MerriweatherSans-Bold.ufo
<glyph name="exclam" format="2">
  <advance width="314.2396590769231"/>
  <unicode hex="0021"/>
  <outline>
    <contour>
      <point x="95.63335384615384" y="272.17655384615387" type="line"/>
      <point x="226.40566153846154" y="272.17655384615387" type="line"/>
      <point x="243.26578461538463" y="869.0" type="line"/>
      <point x="74.18959999999998" y="869.0" type="line"/>
    </contour>
    <contour>
      <point x="152.79692307692306" y="-11.0" type="curve" smooth="yes"/>
      <point x="207.25372307692308" y="-11.0"/>
      <point x="250.8364307692308" y="35.95027692307693"/>
      <point x="250.40566153846154" y="91.17846153846155" type="curve" smooth="yes"/>
      <point x="250.05113846153847" y="142.0660307692308"/>
      <point x="216.82344615384616" y="182.2942153846154"/>
      <point x="161.08873846153847" y="182.2942153846154" type="curve" smooth="yes"/>
      <point x="107.4168" y="182.2942153846154"/>
      <point x="62.480000000000004" y="135.5595076923077"/>
      <point x="63.8340923076923" y="81.0395076923077" type="curve" smooth="yes"/>
      <point x="64.18818461538461" y="29.089230769230774"/>
      <point x="101.7708923076923" y="-11.0"/>
    </contour>
  </outline>
</glyph>
<glyph name="numbersign" format="2">
  <advance width="1521.2615384615385"/>
  <unicode hex="0023"/>
  <outline>
    <contour>
      <point x="301.2307692307692" y="0.0" type="line"/>
      <point x="551.0153846153846" y="0.0" type="line"/>
      <point x="680.4307692307692" y="1340.0" type="line"/>
      <point x="426.6461538461538" y="1340.0" type="line"/>
    </contour>
    <contour>
      <point x="829.3846153846154" y="0.0" type="line"/>
      <point x="1076.0307692307692" y="0.0" type="line"/>
      <point x="1204.3076923076924" y="1340.0" type="line"/>
      <point x="952.8" y="1340.0" type="line"/>
    </contour>
    <contour>
      <point x="1372.646153846154" y="834.3692307692307" type="line"/>
      <point x="1372.646153846154" y="1033.6307692307691" type="line"/>
      <point x="186.03076923076924" y="1033.6307692307691" type="line"/>
      <point x="186.03076923076924" y="834.3692307692307" type="line"/>
    </contour>
    <contour>
      <point x="1328.646153846154" y="316.95384615384614" type="line"/>
      <point x="1328.646153846154" y="524.4923076923077" type="line"/>
      <point x="148.6153846153846" y="524.4923076923077" type="line"/>
      <point x="148.6153846153846" y="316.95384615384614" type="line"/>
    </contour>
  </outline>
</glyph>
<glyph name="dollar" format="2">
  <advance width="681.6246153846154"/>
  <unicode hex="0024"/>
  <anchor x="332.38203076923077" y="0.0" name="bottom"/>
  <anchor x="328.68830769230766" y="-83.0" name="btm"/>
  <anchor x="353.7496" y="830.0" name="top"/>
  <outline>
    <contour>
      <point x="303.75692307692304" y="719.2662769230769" type="line"/>
      <point x="395.3382153846154" y="719.2662769230769" type="line"/>
      <point x="399.4139692307692" y="860.6459076923077" type="line"/>
      <point x="307.8326769230769" y="860.6459076923077" type="line"/>
    </contour>
    <contour>
      <point x="278.32756923076926" y="-112.12498461538462" type="line"/>
      <point x="370.4780923076923" y="-112.12498461538462" type="line"/>
      <point x="373.9079384615385" y="28.038584615384625" type="line"/>
      <point x="282.4033230769231" y="28.038584615384625" type="line"/>
    </contour>
    <component base="S" xOffset="45.46510769230769"/>
  </outline>
</glyph>
<glyph name="percent" format="2">
  <advance width="1056.931625846154"/>
  <unicode hex="0025"/>
  <outline>
    <contour>
      <point x="237.21895384615385" y="302.48332307692306" type="curve" smooth="yes"/>
      <point x="346.8769230769231" y="303.2681846153846"/>
      <point x="446.9656615384616" y="381.6352615384615"/>
      <point x="446.9656615384616" y="523.0780923076923" type="curve" smooth="yes"/>
      <point x="446.9656615384616" y="644.6598769230769"/>
      <point x="388.8137230769231" y="743.0265230769231"/>
      <point x="254.0033230769231" y="741.3183384615385" type="curve" smooth="yes"/>
      <point x="144.34578461538462" y="740.5334769230769"/>
      <point x="44.257046153846154" y="661.7356307692307"/>
      <point x="44.257046153846154" y="519.7235692307693" type="curve" smooth="yes"/>
      <point x="44.257046153846154" y="399.98935384615385"/>
      <point x="107.90295384615385" y="301.1292307692308"/>
    </contour>
    <contour>
      <point x="323.6878153846154" y="0.0" type="line"/>
      <point x="444.3708923076923" y="0.0" type="line"/>
      <point x="733.6111384615385" y="747.0" type="line"/>
      <point x="612.3588307692307" y="747.0" type="line"/>
    </contour>
    <contour>
      <point x="244.78818461538464" y="399.3057846153846" type="curve" smooth="yes"/>
      <point x="194.86436923076923" y="399.3057846153846"/>
      <point x="166.37089230769232" y="450.79975384615386"/>
      <point x="166.37089230769232" y="524.2927999999999" type="curve" smooth="yes"/>
      <point x="166.37089230769232" y="598.7872"/>
      <point x="194.86436923076923" y="644.4958769230769"/>
      <point x="246.78818461538464" y="644.4958769230769" type="curve" smooth="yes"/>
      <point x="296.71243076923076" y="644.4958769230769"/>
      <point x="324.9280615384616" y="594.5720615384615"/>
      <point x="324.9280615384616" y="519.0780923076923" type="curve" smooth="yes"/>
      <point x="324.9280615384616" y="444.6603692307692"/>
      <point x="296.71243076923076" y="399.3057846153846"/>
    </contour>
    <contour>
      <point x="802.9280615384615" y="8.17563076923076" type="curve" smooth="yes"/>
      <point x="912.0168" y="9.52972307692307"/>
      <point x="1012.1051076923077" y="87.32756923076923"/>
      <point x="1012.1051076923077" y="229.41587692307692" type="curve" smooth="yes"/>
      <point x="1012.1051076923077" y="350.64356923076923"/>
      <point x="953.876923076923" y="448.71883076923075"/>
      <point x="819.1432" y="447.01064615384615" type="curve" smooth="yes"/>
      <point x="710.0548923076924" y="445.87126153846157"/>
      <point x="609.9661538461539" y="367.64307692307693"/>
      <point x="609.9661538461539" y="225.9851076923077" type="curve" smooth="yes"/>
      <point x="609.9661538461539" y="105.97347692307692"/>
      <point x="673.5353846153846" y="7.036676923076918"/>
    </contour>
    <contour>
      <point x="810.4972923076923" y="105.64356923076923" type="curve" smooth="yes"/>
      <point x="760.5734769230769" y="105.64356923076923"/>
      <point x="731.4340923076924" y="157.0612923076923"/>
      <point x="731.4340923076924" y="230.63101538461538" type="curve" smooth="yes"/>
      <point x="731.4340923076924" y="305.04873846153845"/>
      <point x="760.5734769230769" y="350.7574153846154"/>
      <point x="811.9280615384615" y="350.7574153846154" type="curve" smooth="yes"/>
      <point x="861.8523076923077" y="350.7574153846154"/>
      <point x="889.9912615384616" y="300.8336"/>
      <point x="889.9912615384616" y="225.41587692307692" type="curve" smooth="yes"/>
      <point x="889.9912615384616" y="150.92190769230768"/>
      <point x="861.8523076923077" y="105.64356923076923"/>
    </contour>
  </outline>
</glyph>
<glyph name="ampersand" format="2">
  <advance width="750.6598295384615"/>
  <unicode hex="0026"/>
  <outline>
    <contour>
      <point x="471.2296" y="127.7259076923077" type="curve"/>
      <point x="437.0" y="110.31052307692309"/>
      <point x="404.4934769230769" y="97.23384615384617"/>
      <point x="347.70104615384616" y="97.23384615384617" type="curve" smooth="yes"/>
      <point x="230.49064615384617" y="97.23384615384617"/>
      <point x="187.73372307692307" y="144.30344615384615"/>
      <point x="187.73372307692307" y="203.5817846153846" type="curve" smooth="yes"/>
      <point x="187.73372307692307" y="257.2769230769231"/>
      <point x="231.2904" y="296.5273230769231"/>
      <point x="299.72166153846155" y="324.8674461538462" type="curve"/>
      <point x="304.21563076923076" y="326.43716923076926"/>
      <point x="346.1505230769231" y="338.08258461538463"/>
      <point x="350.99858461538463" y="339.6523076923077" type="curve"/>
      <point x="459.1051076923077" y="387.2508923076923"/>
      <point x="546.6556307692308" y="441.88424615384616"/>
      <point x="546.6556307692308" y="577.6956307692308" type="curve" smooth="yes"/>
      <point x="546.6556307692308" y="675.1384615384616"/>
      <point x="467.7202461538462" y="755.0"/>
      <point x="341.7081846153846" y="755.0" type="curve" smooth="yes"/>
      <point x="210.1264" y="755.0"/>
      <point x="125.54412307692307" y="686.2156307692308"/>
      <point x="125.54412307692307" y="569.5571692307692" type="curve" smooth="yes"/>
      <point x="125.54412307692307" y="478.68566153846155"/>
      <point x="178.20590769230768" y="409.3888615384615"/>
      <point x="224.68356923076922" y="347.6811692307692" type="curve"/>
      <point x="239.1476923076923" y="330.84806153846154" type="line"/>
      <point x="289.1476923076923" y="261.84806153846154"/>
      <point x="389.0385846153846" y="139.35126153846156"/>
      <point x="456.16166153846154" y="72.36664615384616" type="curve" smooth="yes"/>
      <point x="508.3642461538461" y="26.657969230769236"/>
      <point x="563.2842461538462" y="-8.0"/>
      <point x="648.7829538461539" y="-8.0" type="curve" smooth="yes"/>
      <point x="678.7197538461538" y="-8.0"/>
      <point x="702.0873230769231" y="-4.0"/>
      <point x="717.5938461538461" y="0.0" type="curve"/>
      <point x="717.5938461538461" y="82.60640000000001" type="line"/>
      <point x="647.4428307692308" y="84.88473846153848"/>
      <point x="611.4856615384616" y="105.22295384615386"/>
      <point x="557.4229538461539" y="152.1476923076923" type="curve" smooth="yes"/>
      <point x="504.4089846153846" y="202.56449230769232"/>
      <point x="408.6696" y="324.19975384615384"/>
      <point x="374.59335384615383" y="372.9846153846154" type="curve"/>
      <point x="358.59335384615383" y="393.55384615384617" type="line"/>
      <point x="290.1012923076923" y="486.7076923076923"/>
      <point x="260.7472" y="509.2137230769231"/>
      <point x="260.7472" y="573.6956307692308" type="curve" smooth="yes"/>
      <point x="260.7472" y="625.2257846153847"/>
      <point x="294.6444923076923" y="655.3782153846154"/>
      <point x="342.78436923076924" y="655.3782153846154" type="curve" smooth="yes"/>
      <point x="399.47950769230766" y="655.3782153846154"/>
      <point x="420.52923076923076" y="609.3907692307693"/>
      <point x="420.52923076923076" y="576.3415384615384" type="curve" smooth="yes"/>
      <point x="420.52923076923076" y="493.3521846153846"/>
      <point x="366.6811692307692" y="446.1659076923077"/>
      <point x="284.55384615384617" y="415.3043692307692" type="curve"/>
      <point x="281.7062769230769" y="414.5195076923077"/>
      <point x="249.1398769230769" y="406.7351384615385"/>
      <point x="246.6464" y="405.95027692307696" type="curve"/>
      <point x="134.69796923076922" y="366.95027692307696"/>
      <point x="45.871261538461525" y="304.9204923076923"/>
      <point x="45.871261538461525" y="196.78344615384614" type="curve" smooth="yes"/>
      <point x="45.871261538461525" y="64.5827076923077"/>
      <point x="158.89206153846152" y="-8.0"/>
      <point x="363.5412923076923" y="-8.0" type="curve" smooth="yes"/>
      <point x="437.7829538461539" y="-8.0"/>
      <point x="512.7491076923077" y="20.04283076923077"/>
      <point x="559.4080615384615" y="48.04283076923077" type="curve"/>
      <point x="563.6864" y="49.966646153846156"/>
      <point x="580.0380923076923" y="71.24166153846154"/>
      <point x="583.3164307692308" y="74.1659076923077" type="curve"/>
      <point x="644.7472" y="114.38104615384616"/>
      <point x="685.3294769230769" y="177.4572923076923"/>
      <point x="685.3294769230769" y="279.1910153846154" type="curve" smooth="yes"/>
      <point x="685.3294769230769" y="325.2676923076923"/>
      <point x="678.9748923076922" y="352.9633230769231"/>
      <point x="675.6203692307693" y="366.96424615384615" type="curve"/>
      <point x="550.7081846153847" y="366.96424615384615" type="line"/>
      <point x="553.4168" y="353.3183384615385"/>
      <point x="562.4172923076923" y="325.1910153846154"/>
      <point x="562.4172923076923" y="279.2676923076923" type="curve" smooth="yes"/>
      <point x="562.4172923076923" y="228.56972307692308"/>
      <point x="540.3396307692308" y="175.51076923076926"/>
      <point x="497.6310153846154" y="153.01680000000002" type="curve"/>
      <point x="494.7072" y="150.66178461538465"/>
      <point x="477.86295384615386" y="131.7891076923077"/>
    </contour>
  </outline>
</glyph>
<glyph name="quotesingle" format="2">
  <advance width="726.3692307692307"/>
  <unicode hex="0027"/>
  <outline>
    <contour>
      <point x="254.39999999999998" y="914.8923076923077" type="line"/>
      <point x="472.83076923076925" y="914.8923076923077" type="line"/>
      <point x="509.3846153846154" y="1656.246153846154" type="line"/>
      <point x="216.55384615384614" y="1656.246153846154" type="line"/>
    </contour>
  </outline>
</glyph>
<glyph name="parenleft" format="2">
  <advance width="823.876923076923"/>
  <unicode hex="0028"/>
  <outline>
    <contour>
      <point x="572.0923076923077" y="-341.2307692307692" type="curve"/>
      <point x="744.3076923076924" y="-234.33846153846153" type="line"/>
      <point x="623.9692307692308" y="-136.15384615384613"/>
      <point x="382.92307692307696" y="160.8615384615385"/>
      <point x="388.5230769230769" y="695.6" type="curve" smooth="yes"/>
      <point x="394.12307692307695" y="1233.5384615384614"/>
      <point x="658.2153846153847" y="1536.5230769230768"/>
      <point x="744.3076923076924" y="1606.1846153846154" type="curve"/>
      <point x="572.0923076923077" y="1713.076923076923" type="line"/>
      <point x="463.2923076923077" y="1647.4153846153847"/>
      <point x="119.56923076923077" y="1289.076923076923"/>
      <point x="119.56923076923077" y="699.876923076923" type="curve" smooth="yes"/>
      <point x="119.56923076923077" y="28.615384615384606"/>
      <point x="474.4307692307692" y="-276.9846153846154"/>
    </contour>
  </outline>
</glyph>
<glyph name="asterisk" format="2">
  <advance width="1301.9076923076923"/>
  <unicode hex="002A"/>
  <outline>
    <contour>
      <point x="540.0307692307692" y="593.2615384615384" type="line"/>
      <point x="775.446153846154" y="593.2615384615384" type="line"/>
      <point x="743.9076923076923" y="886.0" type="line"/>
      <point x="741.9076923076923" y="901.4153846153846"/>
      <point x="704.0615384615385" y="1036.0307692307692"/>
      <point x="702.0615384615385" y="1046.3076923076924" type="curve"/>
      <point x="826.3692307692309" y="930.4615384615385" type="line"/>
      <point x="1059.7230769230769" y="765.2615384615384" type="line"/>
      <point x="1179.076923076923" y="978.6769230769231" type="line"/>
      <point x="914.6153846153846" y="1097.2307692307693" type="line"/>
      <point x="752.1846153846154" y="1139.5384615384614" type="line"/>
      <point x="913.4769230769231" y="1187.8461538461538" type="line"/>
      <point x="1171.9384615384615" y="1314.676923076923" type="line"/>
      <point x="1060.4307692307693" y="1520.0923076923077" type="line"/>
      <point x="817.6615384615385" y="1350.6153846153845" type="line"/>
      <point x="805.8153846153847" y="1340.7692307692307"/>
      <point x="708.0615384615385" y="1237.4769230769232"/>
      <point x="700.9230769230769" y="1230.7692307692307" type="curve"/>
      <point x="739.9076923076923" y="1393.7846153846153" type="line"/>
      <point x="760.3076923076924" y="1681.1076923076923" type="line"/>
      <point x="525.323076923077" y="1681.1076923076923" type="line"/>
      <point x="556.2769230769231" y="1389.7846153846153" type="line"/>
      <point x="558.7076923076924" y="1372.8"/>
      <point x="596.9846153846154" y="1238.6153846153845"/>
      <point x="598.5538461538462" y="1228.7692307692307" type="curve"/>
      <point x="478.5230769230769" y="1344.6153846153845" type="line"/>
      <point x="232.06153846153848" y="1511.8153846153846" type="line"/>
      <point x="122.83076923076923" y="1303.5384615384614" type="line"/>
      <point x="385.5692307692308" y="1179.8461538461538" type="line"/>
      <point x="400.9846153846154" y="1174.7076923076922"/>
      <point x="537.876923076923" y="1143.1076923076923"/>
      <point x="547.723076923077" y="1138.676923076923" type="curve"/>
      <point x="387.5692307692308" y="1093.2307692307693" type="line"/>
      <point x="127.96923076923078" y="962.4" type="line"/>
      <point x="245.32307692307694" y="754.9846153846154" type="line"/>
      <point x="482.5230769230769" y="924.4615384615385" type="line"/>
      <point x="600.5538461538462" y="1047.1692307692308" type="line"/>
      <point x="561.1384615384616" y="884.8615384615384" type="line"/>
    </contour>
  </outline>
</glyph>
<glyph name="plus" format="2">
  <advance width="682.6598295384615"/>
  <unicode hex="002B"/>
  <outline>
    <contour>
      <point x="281.8355076923077" y="127.83501538461537" type="line"/>
      <point x="399.8243692307692" y="127.83501538461537" type="line"/>
      <point x="399.8243692307692" y="230.0385846153846" type="line"/>
      <point x="396.47027692307694" y="323.75883076923077" type="line"/>
      <point x="469.8374153846154" y="320.9739692307692" type="line"/>
      <point x="582.6570461538462" y="320.9739692307692" type="line"/>
      <point x="582.6570461538462" y="435.8104" type="line"/>
      <point x="469.8374153846154" y="435.8104" type="line"/>
      <point x="396.47027692307694" y="432.10178461538464" type="line"/>
      <point x="399.8243692307692" y="525.7457846153847" type="line"/>
      <point x="399.8243692307692" y="628.3936" type="line"/>
      <point x="281.8355076923077" y="628.3936" type="line"/>
      <point x="281.8355076923077" y="525.7457846153847" type="line"/>
      <point x="285.1896" y="432.10178461538464" type="line"/>
      <point x="206.05064615384615" y="435.8104" type="line"/>
      <point x="100.00283076923077" y="435.8104" type="line"/>
      <point x="100.00283076923077" y="320.9739692307692" type="line"/>
      <point x="206.05064615384615" y="320.9739692307692" type="line"/>
      <point x="285.1896" y="323.75883076923077" type="line"/>
      <point x="281.8355076923077" y="230.0385846153846" type="line"/>
    </contour>
  </outline>
</glyph>
<glyph name="comma" format="2">
  <advance width="324.69264861538466"/>
  <unicode hex="002C"/>
  <outline>
    <contour>
      <point x="81.18036923076923" y="-199.0" type="line"/>
      <point x="134.34436923076925" y="-247.6449846153846" type="line"/>
      <point x="207.37230769230771" y="-220.43027692307692"/>
      <point x="267.6019076923077" y="-122.4804923076923"/>
      <point x="267.6019076923077" y="-12.897292307692302" type="curve" smooth="yes"/>
      <point x="267.6019076923077" y="43.74818461538462"/>
      <point x="241.7264" y="123.51809230769231"/>
      <point x="181.09347692307693" y="146.0878153846154" type="curve"/>
      <point x="75.87643076923077" y="80.71975384615385" type="line"/>
      <point x="75.87643076923077" y="37.27741538461538" type="line"/>
      <point x="101.21704615384616" y="33.43076923076923"/>
      <point x="130.52332307692308" y="-17.230523076923077"/>
      <point x="130.52332307692308" y="-60.24449230769231" type="curve" smooth="yes"/>
      <point x="130.52332307692308" y="-120.21421538461539"/>
      <point x="106.73796923076922" y="-170.50652307692306"/>
      <point x="81.18036923076923" y="-187.0" type="curve"/>
    </contour>
  </outline>
</glyph>
<glyph name="hyphen" format="2">
  <advance width="1190.0"/>
  <unicode hex="002D"/>
  <outline>
    <contour>
      <point x="180.0" y="537.2307692307692" type="line"/>
      <point x="1010.0" y="537.2307692307692" type="line"/>
      <point x="1010.0" y="771.0461538461539" type="line"/>
      <point x="180.0" y="771.0461538461539" type="line"/>
    </contour>
  </outline>
</glyph>
<glyph name="period" format="2">
  <advance width="314.2396590769231"/>
  <unicode hex="002E"/>
  <outline>
    <contour>
      <point x="153.44283076923077" y="-11.0" type="curve" smooth="yes"/>
      <point x="207.25372307692308" y="-11.0"/>
      <point x="251.19052307692309" y="35.95027692307693"/>
      <point x="250.40566153846154" y="91.17846153846155" type="curve" smooth="yes"/>
      <point x="250.05113846153847" y="142.0660307692308"/>
      <point x="216.82344615384616" y="182.2942153846154"/>
      <point x="161.08873846153847" y="182.2942153846154" type="curve" smooth="yes"/>
      <point x="107.4168" y="182.2942153846154"/>
      <point x="63.40332307692307" y="135.5595076923077"/>
      <point x="63.8340923076923" y="81.0395076923077" type="curve" smooth="yes"/>
      <point x="64.18818461538461" y="29.089230769230774"/>
      <point x="102.20166153846154" y="-11.0"/>
    </contour>
  </outline>
</glyph>
<glyph name="slash" format="2">
  <advance width="940.7076923076924"/>
  <unicode hex="002F"/>
  <outline>
    <contour>
      <point x="72.0" y="-354.0" type="line"/>
      <point x="320.6769230769231" y="-354.0" type="line"/>
      <point x="868.7076923076924" y="1562.0" type="line"/>
      <point x="620.0307692307692" y="1562.0" type="line"/>
    </contour>
  </outline>
</glyph>
<glyph name="zero" format="2">
  <advance width="1391.323076923077"/>
  <unicode hex="0030"/>
  <outline>
    <contour>
      <point x="686.9538461538461" y="-16.0" type="curve" smooth="yes"/>
      <point x="1032.0307692307692" y="-16.0"/>
      <point x="1278.4923076923078" y="289.6"/>
      <point x="1282.4923076923078" y="753.0153846153846" type="curve" smooth="yes"/>
      <point x="1284.923076923077" y="1158.4615384615386"/>
      <point x="1131.0153846153846" y="1503.0153846153846"/>
      <point x="710.9538461538461" y="1503.0153846153846" type="curve" smooth="yes"/>
      <point x="373.6" y="1503.0153846153846"/>
      <point x="114.39999999999998" y="1216.8615384615384"/>
      <point x="108.39999999999998" y="766.7076923076924" type="curve" smooth="yes"/>
      <point x="103.53846153846152" y="358.7076923076923"/>
      <point x="271.75384615384615" y="-16.0"/>
    </contour>
    <contour>
      <point x="694.5230769230769" y="217.90769230769232" type="curve" smooth="yes"/>
      <point x="516.9846153846154" y="220.4923076923077"/>
      <point x="432.5230769230769" y="456.3076923076923"/>
      <point x="432.5230769230769" y="774.7076923076924" type="curve" smooth="yes"/>
      <point x="432.5230769230769" y="1103.446153846154"/>
      <point x="526.7076923076924" y="1268.676923076923"/>
      <point x="698.5230769230769" y="1268.676923076923" type="curve" smooth="yes"/>
      <point x="876.0615384615385" y="1268.676923076923"/>
      <point x="959.2307692307693" y="1062.8615384615384"/>
      <point x="959.2307692307692" y="743.2923076923076" type="curve" smooth="yes"/>
      <point x="959.2307692307692" y="382.9846153846154"/>
      <point x="867.2" y="216.1846153846154"/>
    </contour>
  </outline>
</glyph>
<glyph name="one" format="2">
  <advance width="931.5692307692308"/>
  <unicode hex="0031"/>
  <outline>
    <contour>
      <point x="350.3076923076923" y="0.0" type="line"/>
      <point x="664.5846153846154" y="0.0" type="line"/>
      <point x="665.723076923077" y="1480.0307692307692" type="line"/>
      <point x="517.6" y="1501.446153846154" type="line"/>
      <point x="443.6615384615385" y="1439.2"/>
      <point x="226.6153846153846" y="1332.923076923077"/>
      <point x="98.61538461538461" y="1300.3384615384616" type="curve"/>
      <point x="126.89230769230768" y="1115.6615384615384" type="line"/>
      <point x="200.8923076923077" y="1128.5230769230768"/>
      <point x="273.16923076923075" y="1143.1076923076923"/>
      <point x="350.3076923076923" y="1161.9692307692308" type="curve"/>
    </contour>
  </outline>
</glyph>
<glyph name="two" format="2">
  <advance width="612.6663243076923"/>
  <unicode hex="0032"/>
  <outline>
    <contour>
      <point x="66.91716923076922" y="0.0" type="line"/>
      <point x="565.2078153846154" y="0.0" type="line"/>
      <point x="565.2078153846154" y="123.87833846153848" type="line"/>
      <point x="253.82486153846153" y="110.54104615384617" type="line"/>
      <point x="418.2416615384615" y="222.37421538461538"/>
      <point x="538.1451076923076" y="366.5417846153846"/>
      <point x="538.1451076923076" y="517.1876923076923" type="curve" smooth="yes"/>
      <point x="538.1451076923076" y="641.9585846153846"/>
      <point x="471.6660307692308" y="749.6459076923077"/>
      <point x="298.2918153846154" y="749.6459076923077" type="curve" smooth="yes"/>
      <point x="170.0182153846154" y="749.6459076923077"/>
      <point x="88.33396923076923" y="692.4168"/>
      <point x="49.04258461538461" y="651.4168" type="curve"/>
      <point x="102.50036923076922" y="565.8134769230769" type="line"/>
      <point x="136.8548923076923" y="600.5843692307692"/>
      <point x="201.08356923076923" y="626.9971692307693"/>
      <point x="266.2089846153846" y="626.9971692307693" type="curve" smooth="yes"/>
      <point x="337.34486153846154" y="626.9971692307693"/>
      <point x="380.2835692307692" y="584.1919384615385"/>
      <point x="380.2835692307692" y="503.81655384615385" type="curve" smooth="yes"/>
      <point x="380.2835692307692" y="334.42104615384613"/>
      <point x="180.33513846153843" y="153.25587692307693"/>
      <point x="45.75076923076922" y="68.7342153846154" type="curve"/>
    </contour>
  </outline>
</glyph>
<glyph name="three" format="2">
  <advance width="575.6423950769231"/>
  <unicode hex="0033"/>
  <outline>
    <contour>
      <point x="65.88190769230769" y="9.457292307692311" type="line"/>
      <point x="99.6568" y="0.6111384615384639"/>
      <point x="144.5921846153846" y="-10.645907692307693"/>
      <point x="199.45396923076925" y="-10.645907692307693" type="curve" smooth="yes"/>
      <point x="400.71833846153845" y="-10.645907692307693"/>
      <point x="529.746276923077" y="95.35501538461538"/>
      <point x="529.746276923077" y="216.67526153846154" type="curve" smooth="yes"/>
      <point x="529.746276923077" y="305.47999999999996"/>
      <point x="469.2937230769231" y="391.5860307692308"/>
      <point x="332.03575384615385" y="393.84806153846154" type="curve"/>
      <point x="332.03575384615385" y="377.86295384615386" type="line"/>
      <point x="421.1602461538462" y="413.55526153846154"/>
      <point x="490.3921846153846" y="480.2643692307692"/>
      <point x="490.3921846153846" y="578.3401230769231" type="curve" smooth="yes"/>
      <point x="490.3921846153846" y="689.6657846153846"/>
      <point x="400.75433846153845" y="752.6459076923077"/>
      <point x="263.3851076923077" y="752.6459076923077" type="curve" smooth="yes"/>
      <point x="169.80332307692308" y="752.6459076923077"/>
      <point x="71.30012307692307" y="708.3680615384616"/>
      <point x="39.75833846153846" y="677.9372923076924" type="curve"/>
      <point x="87.68024615384616" y="584.7337230769231" type="line"/>
      <point x="121.80473846153846" y="608.9348923076923"/>
      <point x="169.0059076923077" y="635.3656615384615"/>
      <point x="236.9585846153846" y="635.3656615384615" type="curve" smooth="yes"/>
      <point x="295.7304" y="635.3656615384615"/>
      <point x="337.65563076923075" y="608.3940923076923"/>
      <point x="335.51716923076924" y="551.8503999999999" type="curve" smooth="yes"/>
      <point x="333.94793846153846" y="508.7857846153846"/>
      <point x="306.5571692307692" y="471.5633230769231"/>
      <point x="252.25704615384615" y="445.2710153846154" type="curve" smooth="yes"/>
      <point x="225.3955076923077" y="431.6111384615385"/>
      <point x="188.18627692307692" y="420.24307692307696"/>
      <point x="147.86744615384615" y="412.7983384615385" type="curve"/>
      <point x="171.28332307692307" y="315.48283076923076" type="line"/>
      <point x="229.6444923076923" y="329.21895384615385" type="line"/>
      <point x="330.9748923076923" y="334.9902769230769"/>
      <point x="368.5180923076923" y="283.5102769230769"/>
      <point x="368.5180923076923" y="225.14960000000002" type="curve" smooth="yes"/>
      <point x="368.5180923076923" y="147.45489230769232"/>
      <point x="284.5625846153846" y="98.20356923076925"/>
      <point x="162.87809230769233" y="98.20356923076925" type="curve" smooth="yes"/>
      <point x="133.01796923076924" y="98.20356923076925"/>
      <point x="97.38793846153845" y="103.63384615384618"/>
      <point x="64.95858461538461" y="110.4182153846154" type="curve"/>
    </contour>
  </outline>
</glyph>
<glyph name="four" format="2">
  <advance width="695.4923076923077"/>
  <unicode hex="0034"/>
  <outline>
    <contour>
      <point x="77.34104615384615" y="147.21513846153846" type="line"/>
      <point x="656.6825846153846" y="147.21513846153846" type="line"/>
      <point x="656.6825846153846" y="258.2044923076923" type="line"/>
      <point x="204.40566153846154" y="258.2044923076923" type="line"/>
      <point x="253.7768" y="339.8241230769231" type="line"/>
      <point x="325.1462769230769" y="473.47243076923075"/>
      <point x="367.69655384615385" y="561.2215384615384"/>
      <point x="439.0660307692308" y="694.870276923077" type="curve"/>
      <point x="336.7758769230769" y="752.1249846153846" type="line"/>
      <point x="288.11384615384617" y="752.1249846153846" type="line"/>
      <point x="196.7259076923077" y="556.3410461538462"/>
      <point x="133.69796923076922" y="402.47126153846153"/>
      <point x="41.39076923076922" y="206.6873230769231" type="curve"/>
    </contour>
    <contour>
      <point x="399.6035692307692" y="0.0" type="line"/>
      <point x="546.4520615384615" y="0.0" type="line"/>
      <point x="546.4520615384615" y="472.1318153846154" type="line"/>
      <point x="414.49255384615384" y="472.1318153846154" type="line"/>
      <point x="399.6035692307692" y="261.0380923076923" type="line"/>
    </contour>
  </outline>
</glyph>
<glyph name="five" format="2">
  <advance width="623.8923076923077"/>
  <unicode hex="0035"/>
  <outline>
    <contour>
      <point x="154.41538461538462" y="-9.86153846153846" type="curve" smooth="yes"/>
      <point x="405.0923076923077" y="-9.86153846153846"/>
      <point x="553.6" y="109.5076923076923"/>
      <point x="553.6" y="266.6923076923077" type="curve" smooth="yes"/>
      <point x="553.6" y="400.6923076923077"/>
      <point x="477.6" y="479.53846153846155"/>
      <point x="334.73846153846154" y="479.53846153846155" type="curve" smooth="yes"/>
      <point x="298.46153846153845" y="479.53846153846155"/>
      <point x="257.61538461538464" y="472.96923076923076"/>
      <point x="216.1846153846154" y="461.6923076923077" type="curve"/>
      <point x="232.90769230769232" y="616.676923076923" type="line"/>
      <point x="518.6153846153846" y="616.676923076923" type="line"/>
      <point x="532.4615384615385" y="743.0" type="line"/>
      <point x="121.56923076923077" y="743.0" type="line"/>
      <point x="91.86153846153846" y="356.2153846153846" type="line"/>
      <point x="120.41538461538462" y="340.0769230769231" type="line"/>
      <point x="166.56923076923076" y="355.6461538461538"/>
      <point x="217.12307692307692" y="369.0615384615385"/>
      <point x="258.96923076923076" y="369.0615384615385" type="curve" smooth="yes"/>
      <point x="356.44615384615383" y="369.0615384615385"/>
      <point x="397.32307692307694" y="334.4769230769231"/>
      <point x="397.32307692307694" y="259.6923076923077" type="curve" smooth="yes"/>
      <point x="397.32307692307694" y="162.81538461538463"/>
      <point x="290.9846153846154" y="103.30769230769232"/>
      <point x="123.13846153846154" y="103.30769230769232" type="curve" smooth="yes"/>
      <point x="111.43076923076923" y="103.30769230769232"/>
      <point x="98.86153846153846" y="103.73846153846155"/>
      <point x="86.58461538461538" y="104.30769230769232" type="curve"/>
      <point x="86.58461538461538" y="-3.2923076923076913" type="line"/>
      <point x="105.86153846153846" y="-8.292307692307691"/>
      <point x="137.84615384615384" y="-9.86153846153846"/>
    </contour>
  </outline>
</glyph>
<glyph name="seven" format="2">
  <advance width="627.6078627692308"/>
  <unicode hex="0037"/>
  <outline>
    <contour>
      <point x="153.95101538461537" y="0.0" type="curve"/>
      <point x="325.5481846153846" y="0.0" type="line"/>
      <point x="581.8707692307693" y="696.0705230769231" type="line"/>
      <point x="548.6908923076924" y="743.2296" type="line"/>
      <point x="64.34603076923077" y="743.2296" type="line"/>
      <point x="63.99193846153845" y="607.0920615384615" type="line"/>
      <point x="410.5803692307692" y="606.0920615384615" type="line"/>
      <point x="354.28283076923077" y="460.9798769230769"/>
      <point x="233.33513846153846" y="166.6920615384615"/>
    </contour>
  </outline>
</glyph>
<glyph name="eight" format="2">
  <advance width="1334.676923076923"/>
  <unicode hex="0038"/>
  <outline>
    <contour>
      <point x="680.1846153846154" y="-16.0" type="curve" smooth="yes"/>
      <point x="980.9230769230769" y="-16.0"/>
      <point x="1216.6153846153848" y="129.0769230769231"/>
      <point x="1214.6153846153848" y="402.2153846153846" type="curve" smooth="yes"/>
      <point x="1210.6153846153848" y="812.1538461538462"/>
      <point x="458.3692307692308" y="841.6307692307693"/>
      <point x="458.3692307692308" y="1151.446153846154" type="curve" smooth="yes"/>
      <point x="458.3692307692308" y="1246.4"/>
      <point x="545.0153846153846" y="1319.5384615384614"/>
      <point x="669.9076923076923" y="1319.5384615384614" type="curve" smooth="yes"/>
      <point x="803.9692307692308" y="1319.5384615384614"/>
      <point x="881.4461538461538" y="1243.5076923076922"/>
      <point x="878.8615384615384" y="1141.1384615384616" type="curve" smooth="yes"/>
      <point x="877.1384615384616" y="1022.276923076923"/>
      <point x="817.9692307692308" y="915.6307692307693"/>
      <point x="670.5230769230769" y="869.9076923076923" type="curve"/>
      <point x="790.8" y="748.0" type="line"/>
      <point x="1048.0923076923077" y="821.4769230769231"/>
      <point x="1151.2" y="997.5076923076923"/>
      <point x="1151.2" y="1160.3076923076924" type="curve" smooth="yes"/>
      <point x="1151.2" y="1364.3076923076924"/>
      <point x="974.0615384615385" y="1509.1384615384616"/>
      <point x="669.9384615384615" y="1509.1384615384616" type="curve" smooth="yes"/>
      <point x="367.53846153846155" y="1509.1384615384616"/>
      <point x="174.9230769230769" y="1353.8153846153846"/>
      <point x="174.9230769230769" y="1128.3384615384616" type="curve" smooth="yes"/>
      <point x="174.9230769230769" y="635.5384615384615"/>
      <point x="908.3384615384615" y="656.9538461538461"/>
      <point x="908.3384615384615" y="368.5230769230769" type="curve" smooth="yes"/>
      <point x="908.3384615384615" y="253.56923076923078"/>
      <point x="799.9692307692308" y="173.60000000000002"/>
      <point x="680.4923076923077" y="173.60000000000002" type="curve" smooth="yes"/>
      <point x="492.9846153846154" y="173.60000000000002"/>
      <point x="412.92307692307696" y="274.9846153846154"/>
      <point x="412.92307692307696" y="395.3846153846154" type="curve" smooth="yes"/>
      <point x="412.92307692307696" y="526.5538461538462"/>
      <point x="510.40000000000003" y="616.3692307692307"/>
      <point x="644.4615384615385" y="670.6461538461539" type="curve"/>
      <point x="519.6" y="796.2461538461539" type="line"/>
      <point x="230.58461538461538" y="699.3538461538461"/>
      <point x="124.61538461538461" y="533.6307692307693"/>
      <point x="124.61538461538461" y="379.3846153846154" type="curve" smooth="yes"/>
      <point x="124.61538461538461" y="118.73846153846156"/>
      <point x="359.8461538461538" y="-16.0"/>
    </contour>
  </outline>
</glyph>
<glyph name="nine" format="2">
  <advance width="1398.8923076923077"/>
  <unicode hex="0039"/>
  <outline>
    <contour>
      <point x="139.38461538461536" y="957.4769230769231" type="curve" smooth="yes"/>
      <point x="139.38461538461536" y="698.123076923077"/>
      <point x="299.75384615384615" y="486.5230769230769"/>
      <point x="552.4923076923077" y="486.5230769230769" type="curve" smooth="yes"/>
      <point x="716.3076923076923" y="486.5230769230769"/>
      <point x="816.9846153846154" y="545.2"/>
      <point x="846.7076923076924" y="582.3384615384615" type="curve"/>
      <point x="788.3076923076923" y="745.7846153846153" type="line"/>
      <point x="755.2923076923076" y="732.7692307692308"/>
      <point x="724.9846153846154" y="715.7538461538462"/>
      <point x="644.3692307692307" y="715.7538461538462" type="curve" smooth="yes"/>
      <point x="530.1538461538462" y="715.7538461538462"/>
      <point x="443.10769230769233" y="813.2615384615385"/>
      <point x="443.10769230769233" y="1027.6307692307691" type="curve" smooth="yes"/>
      <point x="443.10769230769233" y="1179.6307692307691"/>
      <point x="532.3076923076924" y="1294.1846153846154"/>
      <point x="681.0769230769231" y="1294.1846153846154" type="curve" smooth="yes"/>
      <point x="873.3538461538461" y="1294.1846153846154"/>
      <point x="942.2153846153847" y="1097.3846153846155"/>
      <point x="938.0615384615385" y="820.3384615384615" type="curve" smooth="yes"/>
      <point x="933.4769230769231" y="529.3230769230769"/>
      <point x="703.5076923076923" y="144.4923076923077"/>
      <point x="313.32307692307694" y="47.90769230769232" type="curve"/>
      <point x="393.723076923077" y="-129.66153846153847" type="line"/>
      <point x="756.6153846153846" y="-73.16923076923078"/>
      <point x="1261.4769230769232" y="315.7538461538461"/>
      <point x="1261.4769230769232" y="903.8153846153846" type="curve"/>
      <point x="1261.4769230769232" y="1247.6923076923076"/>
      <point x="1056.0307692307692" y="1506.4307692307693"/>
      <point x="718.7692307692308" y="1506.4307692307693" type="curve" smooth="yes"/>
      <point x="341.6307692307692" y="1506.4307692307693"/>
      <point x="139.38461538461536" y="1274.6153846153845"/>
    </contour>
  </outline>
</glyph>
<glyph name="less" format="2">
  <advance width="670.6598295384615"/>
  <unicode hex="003C"/>
  <outline>
    <contour>
      <point x="95.02603076923077" y="340.6459076923077" type="line"/>
      <point x="560.2281846153846" y="111.34203076923076" type="line"/>
      <point x="560.2281846153846" y="250.82203076923076" type="line"/>
      <point x="251.60781538461544" y="385.4302769230769" type="line"/>
      <point x="251.60781538461544" y="369.5697230769231" type="line"/>
      <point x="560.2281846153846" y="515.190523076923" type="line"/>
      <point x="560.2281846153846" y="650.809476923077" type="line"/>
      <point x="95.02603076923077" y="416.21513846153846" type="line"/>
    </contour>
  </outline>
</glyph>
<glyph name="equal" format="2">
  <advance width="692.4574344615385"/>
  <unicode hex="003D"/>
  <outline>
    <contour>
      <point x="121.79833846153846" y="449.55809230769233" type="line"/>
      <point x="571.2281846153846" y="449.55809230769233" type="line"/>
      <point x="571.2281846153846" y="556.6579692307693" type="line"/>
      <point x="121.79833846153846" y="556.6579692307693" type="line"/>
    </contour>
    <contour>
      <point x="121.79833846153846" y="199.98793846153845" type="line"/>
      <point x="571.2281846153846" y="199.98793846153845" type="line"/>
      <point x="571.2281846153846" y="306.73372307692307" type="line"/>
      <point x="121.79833846153846" y="306.73372307692307" type="line"/>
    </contour>
  </outline>
</glyph>
<glyph name="question" format="2">
  <advance width="539.3538461538461"/>
  <unicode hex="003F"/>
  <outline>
    <contour>
      <point x="167.32756923076923" y="252.84424615384617" type="curve"/>
      <point x="283.45396923076925" y="252.84424615384617" type="line"/>
      <point x="272.45347692307695" y="294.55384615384617"/>
      <point x="261.82153846153847" y="322.5110153846154"/>
      <point x="264.96049230769233" y="357.7140923076923" type="curve" smooth="yes"/>
      <point x="271.62129230769233" y="484.6528"/>
      <point x="468.56566153846154" y="486.95833846153846"/>
      <point x="477.4201230769231" y="662.8227076923077" type="curve" smooth="yes"/>
      <point x="489.05987692307696" y="793.7718153846154"/>
      <point x="403.1957538461538" y="899.9372923076924"/>
      <point x="193.8982153846154" y="899.9372923076924" type="curve" smooth="yes"/>
      <point x="136.5027076923077" y="899.9372923076924"/>
      <point x="74.25796923076923" y="886.4447384615385"/>
      <point x="55.24498461538461" y="873.5846153846154" type="curve"/>
      <point x="55.24498461538461" y="762.7351384615384" type="line"/>
      <point x="72.5980923076923" y="769.2272"/>
      <point x="107.19883076923077" y="780.5798769230769"/>
      <point x="159.53347692307693" y="780.5798769230769" type="curve" smooth="yes"/>
      <point x="275.3768" y="780.5798769230769"/>
      <point x="328.17230769230764" y="732.1971692307692"/>
      <point x="316.83833846153846" y="649.7001230769231" type="curve" smooth="yes"/>
      <point x="311.1711384615385" y="540.129723076923"/>
      <point x="126.20166153846154" y="517.5526769230769"/>
      <point x="128.26436923076923" y="380.7072" type="curve" smooth="yes"/>
      <point x="129.04923076923077" y="320.89396923076924"/>
      <point x="148.97255384615386" y="279.84424615384614"/>
    </contour>
    <contour>
      <point x="234.50652307692306" y="-11.0" type="curve" smooth="yes"/>
      <point x="286.5185846153846" y="-11.0"/>
      <point x="329.80947692307694" y="33.58178461538462"/>
      <point x="329.1012923076923" y="86.36566153846155" type="curve" smooth="yes"/>
      <point x="328.6705230769231" y="135.37729230769233"/>
      <point x="296.0120615384616" y="173.2374153846154"/>
      <point x="243.07575384615384" y="173.2374153846154" type="curve" smooth="yes"/>
      <point x="191.8489846153846" y="173.2374153846154"/>
      <point x="147.26627692307693" y="128.59335384615386"/>
      <point x="148.26627692307693" y="77.22627692307694" type="curve" smooth="yes"/>
      <point x="148.69704615384614" y="26.721169230769235"/>
      <point x="186.06461538461537" y="-11.0"/>
    </contour>
  </outline>
</glyph>
<glyph name="at" format="2">
  <advance width="1073.6"/>
  <unicode hex="0040"/>
  <outline>
    <contour>
      <point x="501.10769230769233" y="-228.01538461538462" type="curve" smooth="yes"/>
      <point x="622.876923076923" y="-228.01538461538462"/>
      <point x="705.9076923076923" y="-196.18461538461537"/>
      <point x="751.1846153846154" y="-166.33846153846153" type="curve"/>
      <point x="730.4769230769231" y="-91.79999999999998" type="line"/>
      <point x="691.4923076923077" y="-112.64615384615384"/>
      <point x="628.4769230769231" y="-143.2"/>
      <point x="511.10769230769233" y="-143.2" type="curve" smooth="yes"/>
      <point x="342.9384615384615" y="-143.2"/>
      <point x="170.95384615384614" y="-55.87692307692308"/>
      <point x="170.95384615384614" y="211.87692307692308" type="curve" smooth="yes"/>
      <point x="170.95384615384614" y="494.7076923076923"/>
      <point x="367.90769230769234" y="668.1846153846154"/>
      <point x="590.1846153846154" y="668.1846153846154" type="curve" smooth="yes"/>
      <point x="742.6615384615385" y="668.1846153846154"/>
      <point x="892.3230769230769" y="608.7692307692307"/>
      <point x="892.3230769230769" y="380.73846153846154" type="curve" smooth="yes"/>
      <point x="892.3230769230769" y="204.46153846153845"/>
      <point x="804.3076923076924" y="91.52307692307693"/>
      <point x="732.876923076923" y="91.52307692307693" type="curve" smooth="yes"/>
      <point x="708.1692307692308" y="91.52307692307693"/>
      <point x="703.6153846153846" y="126.84615384615384"/>
      <point x="718.323076923077" y="208.58461538461538" type="curve" smooth="yes"/>
      <point x="736.1692307692308" y="299.87692307692305"/>
      <point x="764.6" y="441.9846153846154"/>
      <point x="780.8923076923077" y="512.9846153846154" type="curve"/>
      <point x="689.6307692307693" y="496.9846153846154" type="line"/>
      <point x="661.6307692307693" y="515.8461538461538"/>
      <point x="616.4923076923077" y="523.9846153846154"/>
      <point x="576.7692307692308" y="523.9846153846154" type="curve" smooth="yes"/>
      <point x="376.95384615384614" y="523.9846153846154"/>
      <point x="291.10769230769233" y="349.1384615384615"/>
      <point x="288.10769230769233" y="214.7076923076923" type="curve" smooth="yes"/>
      <point x="285.10769230769233" y="68.27692307692308"/>
      <point x="362.24615384615385" y="-2.0"/>
      <point x="431.6615384615385" y="-2.0" type="curve" smooth="yes"/>
      <point x="553.323076923077" y="-2.0"/>
      <point x="627.6307692307693" y="148.6769230769231"/>
      <point x="665.7846153846154" y="260.0" type="curve"/>
      <point x="664.3538461538461" y="260.0"/>
      <point x="635.3846153846154" y="260.0"/>
      <point x="633.3846153846154" y="260.0" type="curve"/>
      <point x="608.5230769230769" y="168.43076923076922"/>
      <point x="605.9538461538461" y="120.0"/>
      <point x="608.3846153846154" y="89.0" type="curve" smooth="yes"/>
      <point x="612.3846153846154" y="25.446153846153845"/>
      <point x="641.6461538461539" y="-2.0"/>
      <point x="700.7538461538462" y="-2.0" type="curve" smooth="yes"/>
      <point x="842.6" y="-2.0"/>
      <point x="992.1384615384616" y="131.33846153846153"/>
      <point x="992.1384615384616" y="395.46153846153845" type="curve" smooth="yes"/>
      <point x="992.1384615384616" y="626.723076923077"/>
      <point x="826.0461538461539" y="753.0"/>
      <point x="599.2153846153847" y="753.0" type="curve" smooth="yes"/>
      <point x="308.2307692307692" y="753.0"/>
      <point x="70.0" y="536.4307692307692"/>
      <point x="70.0" y="208.56923076923076" type="curve" smooth="yes"/>
      <point x="70.0" y="-92.70769230769231"/>
      <point x="265.53846153846155" y="-228.01538461538462"/>
    </contour>
    <contour>
      <point x="463.63076923076926" y="108.4923076923077" type="curve" smooth="yes"/>
      <point x="426.5846153846154" y="108.4923076923077"/>
      <point x="406.5846153846154" y="152.26153846153846"/>
      <point x="408.44615384615383" y="227.58461538461538" type="curve" smooth="yes"/>
      <point x="410.3076923076923" y="326.5846153846154"/>
      <point x="472.0153846153846" y="429.9076923076923"/>
      <point x="562.2153846153847" y="429.9076923076923" type="curve" smooth="yes"/>
      <point x="593.3538461538461" y="429.9076923076923"/>
      <point x="624.3846153846154" y="420.9076923076923"/>
      <point x="638.1076923076923" y="402.16923076923075" type="curve"/>
      <point x="623.6769230769231" y="290.16923076923075"/>
      <point x="529.9230769230769" y="108.4923076923077"/>
    </contour>
  </outline>
</glyph>
<glyph name="A" format="2">
  <advance width="1404.4615384615386"/>
  <unicode hex="0041"/>
  <anchor x="703.2307692307693" y="0.0" name="bottom"/>
  <anchor x="670.8307692307692" y="-166.0" name="btm"/>
  <anchor x="1264.1846153846154" y="20.0" name="ogonek"/>
  <anchor x="702.3692307692307" y="1660.0" name="top"/>
  <outline>
    <contour>
      <point x="324.61538461538464" y="0.0" type="line"/>
      <point x="652.7076923076924" y="1051.5384615384614" type="line"/>
      <point x="700.123076923077" y="1223.5692307692307" type="line"/>
      <point x="745.5384615384615" y="1051.5384615384614" type="line"/>
      <point x="1074.9846153846154" y="0.0" type="line"/>
      <point x="1409.1076923076923" y="0.0" type="line"/>
      <point x="872.4615384615385" y="1498.5846153846153" type="line"/>
      <point x="533.6" y="1498.5846153846153" type="line"/>
      <point x="-4.215384615384629" y="0.0" type="line"/>
    </contour>
    <contour>
      <point x="300.83076923076925" y="315.4769230769231" type="line"/>
      <point x="1064.8307692307692" y="315.4769230769231" type="line"/>
      <point x="1023.9692307692308" y="538.0" type="line"/>
      <point x="341.96923076923076" y="538.0" type="line"/>
    </contour>
  </outline>
</glyph>
<glyph name="B" format="2">
  <advance width="1382.3384615384616"/>
  <unicode hex="0042"/>
  <anchor x="691.1692307692308" y="0.0" name="bottom"/>
  <anchor x="777.1692307692308" y="-166.0" name="btm"/>
  <anchor x="683.876923076923" y="1661.1384615384616" name="top"/>
  <outline>
    <contour>
      <point x="177.04615384615386" y="0.0" type="line"/>
      <point x="334.03076923076924" y="0.0" type="line"/>
      <point x="411.7230769230769" y="-4.0"/>
      <point x="563.8153846153847" y="-14.0"/>
      <point x="692.3384615384616" y="-14.0" type="curve" smooth="yes"/>
      <point x="1162.7384615384615" y="-14.0"/>
      <point x="1302.3076923076924" y="177.56923076923078"/>
      <point x="1302.3076923076924" y="448.7076923076923" type="curve" smooth="yes"/>
      <point x="1302.3076923076924" y="634.5538461538462"/>
      <point x="1167.569230769231" y="775.6307692307693"/>
      <point x="991.6923076923077" y="792.8923076923077" type="curve"/>
      <point x="1145.1384615384616" y="834.4615384615385"/>
      <point x="1216.5538461538463" y="979.3846153846154"/>
      <point x="1216.5538461538463" y="1130.0615384615385" type="curve" smooth="yes"/>
      <point x="1216.5538461538463" y="1356.1538461538462"/>
      <point x="1059.8461538461538" y="1500.0"/>
      <point x="676.8615384615384" y="1500.0" type="curve" smooth="yes"/>
      <point x="527.4461538461538" y="1500.0"/>
      <point x="427.8769230769231" y="1486.0"/>
      <point x="328.03076923076924" y="1486.0" type="curve"/>
      <point x="177.04615384615386" y="1488.0" type="line"/>
    </contour>
    <contour>
      <point x="487.6" y="868.6461538461539" type="curve"/>
      <point x="487.6" y="1273.753846153846" type="line"/>
      <point x="509.47692307692313" y="1283.753846153846"/>
      <point x="606.5538461538462" y="1286.6153846153845"/>
      <point x="638.4307692307692" y="1286.6153846153845" type="curve" smooth="yes"/>
      <point x="817.0769230769231" y="1286.6153846153845"/>
      <point x="916.123076923077" y="1232.553846153846"/>
      <point x="916.123076923077" y="1096.923076923077" type="curve" smooth="yes"/>
      <point x="916.123076923077" y="930.1538461538462"/>
      <point x="827.9384615384615" y="861.9384615384615"/>
      <point x="679.4153846153846" y="861.9384615384615" type="curve" smooth="yes"/>
      <point x="629.4769230769231" y="861.9384615384615"/>
      <point x="536.8307692307692" y="860.4923076923077"/>
    </contour>
    <contour>
      <point x="487.6" y="219.6923076923077" type="curve"/>
      <point x="487.6" y="653.2307692307692" type="line"/>
      <point x="524.9538461538461" y="660.0923076923077"/>
      <point x="628.123076923077" y="659.9384615384615"/>
      <point x="688.1846153846154" y="659.9384615384615" type="curve" smooth="yes"/>
      <point x="893.8461538461538" y="659.9384615384615"/>
      <point x="983.9076923076923" y="587.6307692307693"/>
      <point x="983.9076923076923" y="437.2307692307692" type="curve" smooth="yes"/>
      <point x="983.9076923076923" y="261.41538461538465"/>
      <point x="880.9538461538461" y="197.2615384615385"/>
      <point x="691.5692307692308" y="197.2615384615385" type="curve" smooth="yes"/>
      <point x="626.8307692307692" y="197.2615384615385"/>
      <point x="516.6153846153846" y="201.53846153846155"/>
    </contour>
  </outline>
</glyph>
<glyph name="C" format="2">
  <advance width="642.1716258461538"/>
  <unicode hex="0043"/>
  <anchor x="319.55526153846154" y="0.0" name="bottom"/>
  <anchor x="385.73206153846155" y="-83.0" name="btm"/>
  <anchor x="401.90153846153845" y="830.0" name="top"/>
  <outline>
    <contour>
      <point x="43.95267692307692" y="369.2918153846154" type="curve" smooth="yes"/>
      <point x="43.95267692307692" y="141.44566153846154"/>
      <point x="180.7664" y="-8.0"/>
      <point x="412.7138461538462" y="-8.0" type="curve" smooth="yes"/>
      <point x="501.7143384615385" y="-8.0"/>
      <point x="556.7138461538461" y="14.56923076923077"/>
      <point x="596.8676923076923" y="31.0" type="curve"/>
      <point x="596.8676923076923" y="160.83409230769234" type="line"/>
      <point x="571.4369230769231" y="139.27883076923078"/>
      <point x="495.1441230769231" y="113.61895384615386"/>
      <point x="427.2333538461538" y="113.61895384615386" type="curve" smooth="yes"/>
      <point x="283.75335384615386" y="113.61895384615386"/>
      <point x="203.75052307692312" y="221.6227076923077"/>
      <point x="203.75052307692312" y="378.72166153846155" type="curve" smooth="yes"/>
      <point x="203.75052307692312" y="535.0511384615385"/>
      <point x="294.47360000000003" y="626.7351384615384"/>
      <point x="421.7602461538462" y="626.7351384615384" type="curve" smooth="yes"/>
      <point x="519.7491076923077" y="626.7351384615384"/>
      <point x="564.9502769230769" y="597.8118153846153"/>
      <point x="583.9304000000001" y="585.8601230769231" type="curve"/>
      <point x="604.9434461538461" y="721.7848615384615" type="line"/>
      <point x="566.52" y="729.7225846153846"/>
      <point x="516.9015384615385" y="751.0"/>
      <point x="409.9768" y="751.0" type="curve" smooth="yes"/>
      <point x="208.72258461538462" y="751.0"/>
      <point x="43.95267692307692" y="618.7072000000001"/>
    </contour>
  </outline>
</glyph>
<glyph name="D" format="2">
  <advance width="1483.2615384615385"/>
  <unicode hex="0044"/>
  <anchor x="737.6307692307693" y="0.0" name="bottom"/>
  <anchor x="674.7076923076924" y="-166.0" name="btm"/>
  <anchor x="737.6307692307693" y="744.0" name="center"/>
  <anchor x="731.0461538461539" y="1660.0" name="top"/>
  <outline>
    <contour>
      <point x="166.8923076923077" y="0.0" type="line"/>
      <point x="205.72307692307692" y="0.0"/>
      <point x="244.55384615384617" y="0.0"/>
      <point x="283.3846153846154" y="0.0" type="curve" smooth="yes"/>
      <point x="392.2153846153846" y="0.0"/>
      <point x="527.3846153846154" y="-14.0"/>
      <point x="656.1538461538462" y="-16.0" type="curve" smooth="yes"/>
      <point x="1120.9538461538461" y="-20.584615384615383"/>
      <point x="1400.4" y="275.7230769230769"/>
      <point x="1400.4" y="782.5846153846154" type="curve" smooth="yes"/>
      <point x="1400.4" y="1238.0"/>
      <point x="1173.5384615384617" y="1502.0"/>
      <point x="679.0153846153846" y="1502.0" type="curve" smooth="yes"/>
      <point x="543.6" y="1502.0"/>
      <point x="378.03076923076924" y="1486.0"/>
      <point x="295.4153846153846" y="1486.0" type="curve" smooth="yes"/>
      <point x="252.86153846153846" y="1486.0"/>
      <point x="210.3076923076923" y="1486.0"/>
      <point x="166.8923076923077" y="1486.0" type="curve"/>
    </contour>
    <contour>
      <point x="481.4461538461539" y="232.64615384615388" type="curve"/>
      <point x="481.4461538461539" y="1261.3538461538462" type="line"/>
      <point x="520.0307692307692" y="1268.2153846153847"/>
      <point x="589.1692307692308" y="1275.3538461538462"/>
      <point x="651.2307692307693" y="1275.3538461538462" type="curve" smooth="yes"/>
      <point x="934.5846153846154" y="1275.3538461538462"/>
      <point x="1074.7076923076922" y="1138.7384615384615"/>
      <point x="1074.7076923076922" y="749.723076923077" type="curve" smooth="yes"/>
      <point x="1074.7076923076922" y="378.12307692307695"/>
      <point x="916.3076923076923" y="218.64615384615388"/>
      <point x="683.323076923077" y="215.78461538461542" type="curve" smooth="yes"/>
      <point x="610.4307692307692" y="214.92307692307696"/>
      <point x="530.6461538461539" y="219.7846153846154"/>
    </contour>
  </outline>
</glyph>
<glyph name="E" format="2">
  <advance width="605.2307692307693"/>
  <unicode hex="0045"/>
  <anchor x="300.4" y="0.0" name="bottom"/>
  <anchor x="325.9846153846154" y="-83.0" name="btm"/>
  <anchor x="539.1384615384616" y="10.0" name="ogonek"/>
  <anchor x="316.7076923076923" y="830.0" name="top"/>
  <anchor x="15.13846153846154" y="743.0" name="topleft"/>
  <outline>
    <contour>
      <point x="83.44615384615385" y="0.0" type="line"/>
      <point x="568.6615384615385" y="0.0" type="line"/>
      <point x="568.6615384615385" y="120.46153846153848" type="line"/>
      <point x="239.5846153846154" y="120.46153846153848" type="line"/>
      <point x="239.5846153846154" y="323.2" type="line"/>
      <point x="465.1846153846154" y="323.2" type="line"/>
      <point x="465.1846153846154" y="438.3846153846154" type="line"/>
      <point x="239.5846153846154" y="438.3846153846154" type="line"/>
      <point x="239.5846153846154" y="625.1076923076923" type="line"/>
      <point x="537.0769230769231" y="625.1076923076923" type="line"/>
      <point x="537.0769230769231" y="743.0" type="line"/>
      <point x="83.44615384615385" y="743.0" type="line"/>
    </contour>
  </outline>
</glyph>
<glyph name="F" format="2">
  <advance width="548.4923076923077"/>
  <unicode hex="0046"/>
  <anchor x="272.24615384615385" y="0.0" name="bottom"/>
  <anchor x="323.44615384615383" y="-83.0" name="btm"/>
  <anchor x="324.0" y="830.5692307692308" name="top"/>
  <outline>
    <contour>
      <point x="83.44615384615385" y="0.0" type="line"/>
      <point x="240.1538461538462" y="0.0" type="line"/>
      <point x="240.1538461538462" y="305.8" type="line"/>
      <point x="461.0615384615385" y="305.8" type="line"/>
      <point x="461.0615384615385" y="423.12307692307695" type="line"/>
      <point x="240.1538461538462" y="423.12307692307695" type="line"/>
      <point x="240.1538461538462" y="625.1076923076923" type="line"/>
      <point x="533.2307692307693" y="625.1076923076923" type="line"/>
      <point x="533.2307692307693" y="743.0" type="line"/>
      <point x="83.44615384615385" y="743.0" type="line"/>
    </contour>
  </outline>
</glyph>
<glyph name="G" format="2">
  <advance width="722.7131643076923"/>
  <unicode hex="0047"/>
  <anchor x="361.39501538461536" y="0.0" name="bottom"/>
  <anchor x="394.02886153846157" y="-83.0" name="btm"/>
  <anchor x="404.9787076923077" y="830.6459076923077" name="top"/>
  <outline>
    <contour>
      <point x="44.66129230769231" y="368.0" type="curve" smooth="yes"/>
      <point x="44.66129230769231" y="139.4814153846154"/>
      <point x="179.6444923076923" y="-8.0"/>
      <point x="400.6733538461539" y="-8.0" type="curve" smooth="yes"/>
      <point x="562.1779692307692" y="-8.0"/>
      <point x="614.4374153846154" y="41.21563076923077"/>
      <point x="666.1292307692307" y="43.569723076923076" type="curve"/>
      <point x="666.1292307692307" y="399.75975384615384" type="line"/>
      <point x="404.02886153846157" y="399.75975384615384" type="line"/>
      <point x="404.02886153846157" y="287.2643692307692" type="line"/>
      <point x="543.6227076923077" y="279.1259076923077" type="line"/>
      <point x="520.8364307692308" y="300.34104615384615" type="line"/>
      <point x="520.8364307692308" y="129.54461538461538" type="line"/>
      <point x="495.1133538461538" y="116.84947692307694"/>
      <point x="450.6111384615385" y="109.63384615384618"/>
      <point x="397.7974153846154" y="109.63384615384618" type="curve" smooth="yes"/>
      <point x="269.1264" y="109.63384615384618"/>
      <point x="204.59858461538465" y="226.6232"/>
      <point x="204.59858461538465" y="381.0" type="curve" smooth="yes"/>
      <point x="204.59858461538465" y="536.3164307692308"/>
      <point x="286.5725538461538" y="628.3666461538462"/>
      <point x="415.92664615384615" y="628.3666461538462" type="curve" smooth="yes"/>
      <point x="519.1580923076923" y="628.3666461538462"/>
      <point x="577.6203692307693" y="609.8740923076923"/>
      <point x="620.4210461538462" y="588.2276923076923" type="curve"/>
      <point x="625.3443692307692" y="722.0" type="line"/>
      <point x="564.8982153846154" y="732.8615384615384"/>
      <point x="523.7905230769231" y="751.0"/>
      <point x="413.77563076923076" y="751.0" type="curve" smooth="yes"/>
      <point x="207.4582153846154" y="751.0"/>
      <point x="44.66129230769231" y="635.2272"/>
    </contour>
  </outline>
</glyph>
<glyph name="H" format="2">
  <advance width="771.6307692307693"/>
  <unicode hex="0048"/>
  <anchor x="385.81538461538463" y="0.0" name="bottom"/>
  <anchor x="384.6615384615385" y="-83.0" name="btm"/>
  <anchor x="385.81538461538463" y="372.0" name="center"/>
  <anchor x="385.81538461538463" y="830.0" name="top"/>
  <anchor x="15.13846153846154" y="743.0" name="topleft"/>
  <outline>
    <contour>
      <point x="83.44615384615385" y="0.0" type="line"/>
      <point x="240.72307692307695" y="0.0" type="line"/>
      <point x="240.72307692307695" y="317.4769230769231" type="line"/>
      <point x="531.9076923076923" y="317.4769230769231" type="line"/>
      <point x="531.9076923076923" y="0.0" type="line"/>
      <point x="688.1846153846154" y="0.0" type="line"/>
      <point x="688.1846153846154" y="743.0" type="line"/>
      <point x="531.9076923076923" y="743.0" type="line"/>
      <point x="531.9076923076923" y="432.5230769230769" type="line"/>
      <point x="240.72307692307695" y="432.5230769230769" type="line"/>
      <point x="240.72307692307695" y="743.0" type="line"/>
      <point x="83.44615384615385" y="743.0" type="line"/>
    </contour>
  </outline>
</glyph>
<glyph name="I" format="2">
  <advance width="694.6461538461539"/>
  <unicode hex="0049"/>
  <anchor x="347.75384615384615" y="0.0" name="bottom"/>
  <anchor x="349.90769230769234" y="-166.0" name="btm"/>
  <anchor x="517.2923076923076" y="20.0" name="ogonek"/>
  <anchor x="348.8923076923077" y="1660.0" name="top"/>
  <anchor x="40.0" y="1486.0" name="topleft"/>
  <outline>
    <contour>
      <point x="189.04615384615383" y="0.0" type="line"/>
      <point x="504.7384615384616" y="0.0" type="line"/>
      <point x="504.7384615384616" y="1486.0" type="line"/>
      <point x="189.04615384615383" y="1486.0" type="line"/>
    </contour>
  </outline>
</glyph>
<glyph name="J" format="2">
  <advance width="375.6933347692308"/>
  <unicode hex="004A"/>
  <anchor x="188.13113846153846" y="0.0" name="bottom"/>
  <anchor x="122.19858461538462" y="-83.0" name="btm"/>
  <anchor x="198.59076923076924" y="830.6459076923077" name="top"/>
  <outline>
    <contour>
      <point x="20.224123076923078" y="-162.0" type="line"/>
      <point x="103.43883076923078" y="-159.44283076923077"/>
      <point x="245.1219076923077" y="-93.01255384615385"/>
      <point x="271.1980923076923" y="44.430276923076924" type="curve" smooth="yes"/>
      <point x="284.8435692307693" y="114.86104615384616"/>
      <point x="280.1980923076923" y="202.0"/>
      <point x="280.1980923076923" y="299.0" type="curve" smooth="yes"/>
      <point x="280.1980923076923" y="743.0" type="line"/>
      <point x="122.8444923076923" y="743.0" type="line"/>
      <point x="122.8444923076923" y="297.0" type="line" smooth="yes"/>
      <point x="122.8444923076923" y="180.1372923076923"/>
      <point x="122.12190769230767" y="101.2232"/>
      <point x="106.92116923076922" y="46.43741538461539" type="curve" smooth="yes"/>
      <point x="86.64332307692307" y="-28.0844923076923"/>
      <point x="32.14886153846154" y="-63.59335384615383"/>
      <point x="-17.49796923076923" y="-82.59335384615383" type="curve"/>
    </contour>
  </outline>
</glyph>
<glyph name="K" format="2">
  <advance width="1388.0923076923077"/>
  <unicode hex="004B"/>
  <anchor x="690.1846153846154" y="0.0" name="bottom"/>
  <anchor x="712.7076923076924" y="-166.0" name="btm"/>
  <anchor x="712.7076923076924" y="1661.1384615384616" name="top"/>
  <outline>
    <contour>
      <point x="166.8923076923077" y="0.0" type="line"/>
      <point x="474.03076923076924" y="0.0" type="line"/>
      <point x="474.03076923076924" y="597.4461538461538" type="line"/>
      <point x="428.8615384615385" y="388.6461538461538" type="line"/>
      <point x="703.4153846153847" y="709.1692307692308" type="line"/>
      <point x="765.2923076923078" y="760.5230769230769" type="line"/>
      <point x="1337.6923076923076" y="1486.0" type="line"/>
      <point x="991.4153846153846" y="1486.0" type="line"/>
      <point x="474.03076923076924" y="810.0615384615385" type="line"/>
      <point x="474.03076923076924" y="1486.0" type="line"/>
      <point x="166.8923076923077" y="1486.0" type="line"/>
    </contour>
    <contour>
      <point x="946.5846153846154" y="114.55384615384615" type="curve" smooth="yes"/>
      <point x="980.3076923076923" y="53.41538461538462"/>
      <point x="990.8615384615384" y="26.0"/>
      <point x="1007.723076923077" y="0.0" type="curve"/>
      <point x="1361.1076923076923" y="0.0" type="line"/>
      <point x="1339.1076923076923" y="36.0"/>
      <point x="1319.1076923076923" y="72.0"/>
      <point x="1297.1076923076923" y="108.0" type="curve"/>
      <point x="1154.5846153846155" y="355.0769230769231"/>
      <point x="891.5692307692309" y="770.8615384615384"/>
      <point x="809.3538461538462" y="887.1384615384616" type="curve"/>
      <point x="712.8307692307693" y="778.3384615384615" type="line"/>
      <point x="602.0923076923077" y="671.9692307692308" type="line"/>
      <point x="705.2307692307693" y="513.0769230769231"/>
      <point x="843.1384615384616" y="306.8615384615385"/>
    </contour>
  </outline>
</glyph>
<glyph name="L" format="2">
  <advance width="1071.6307692307691"/>
  <unicode hex="004C"/>
  <anchor x="531.3846153846154" y="0.0" name="bottom"/>
  <anchor x="580.276923076923" y="-166.0" name="btm"/>
  <anchor x="531.3846153846154" y="744.0" name="center"/>
  <anchor x="324.73846153846154" y="1660.0" name="top"/>
  <anchor x="1031.6307692307691" y="1486.0" name="topright"/>
  <outline>
    <contour>
      <point x="166.8923076923077" y="0.0" type="line"/>
      <point x="1014.4923076923077" y="0.0" type="line"/>
      <point x="1014.4923076923077" y="250.89230769230772" type="line"/>
      <point x="477.1692307692308" y="250.89230769230772" type="line"/>
      <point x="477.1692307692308" y="1486.0" type="line"/>
      <point x="166.8923076923077" y="1486.0" type="line"/>
    </contour>
  </outline>
</glyph>
<glyph name="M" format="2">
  <advance width="955.8369230769231"/>
  <unicode hex="004D"/>
  <anchor x="478.9876923076923" y="0.0" name="bottom"/>
  <anchor x="482.72424615384614" y="-83.0" name="btm"/>
  <anchor x="482.41796923076924" y="800.0" name="top"/>
  <outline>
    <contour>
      <point x="44.979876923076915" y="0.0" type="line"/>
      <point x="191.45895384615386" y="0.0" type="line"/>
      <point x="224.58486153846155" y="416.68332307692305" type="line"/>
      <point x="238.3219076923077" y="626.7969230769231" type="line"/>
      <point x="289.5524307692308" y="413.26793846153845" type="line"/>
      <point x="417.36781538461537" y="-5.292307692307691" type="line"/>
      <point x="541.6075692307693" y="-5.292307692307691" type="line"/>
      <point x="661.6241230769231" y="413.26793846153845" type="line"/>
      <point x="709.729723076923" y="626.7969230769231" type="line"/>
      <point x="721.9457846153847" y="416.68332307692305" type="line"/>
      <point x="758.6414153846154" y="0.0" type="line"/>
      <point x="910.8570461538462" y="0.0" type="line"/>
      <point x="820.1493538461539" y="743.0" type="line"/>
      <point x="613.8797538461538" y="743.0" type="line"/>
      <point x="514.7725538461539" y="346.08049230769234" type="line"/>
      <point x="484.43193846153844" y="178.43692307692308" type="line"/>
      <point x="448.4310153846154" y="346.08049230769234" type="line"/>
      <point x="340.7410461538461" y="743.0" type="line"/>
      <point x="126.9017846153846" y="743.0" type="line"/>
    </contour>
  </outline>
</glyph>
<glyph name="N" format="2">
  <advance width="1546.7076923076922"/>
  <unicode hex="004E"/>
  <anchor x="773.3538461538461" y="0.0" name="bottom"/>
  <anchor x="739.3538461538461" y="-166.0" name="btm"/>
  <anchor x="781.9384615384615" y="1660.0" name="top"/>
  <outline>
    <contour>
      <point x="166.8923076923077" y="0.0" type="line"/>
      <point x="451.4769230769231" y="0.0" type="line"/>
      <point x="451.4769230769231" y="750.553846153846" type="line"/>
      <point x="399.0153846153846" y="1291.6307692307691" type="line"/>
      <point x="315.2923076923077" y="1291.6307692307691" type="line"/>
      <point x="538.4615384615385" y="852.0" type="line"/>
      <point x="1070.4307692307693" y="0.0" type="line"/>
      <point x="1379.8153846153846" y="0.0" type="line"/>
      <point x="1379.8153846153846" y="1486.0" type="line"/>
      <point x="1093.5076923076922" y="1486.0" type="line"/>
      <point x="1093.5076923076922" y="719.1384615384616" type="line"/>
      <point x="1138.8615384615384" y="220.03076923076927" type="line"/>
      <point x="1207.7230769230769" y="220.03076923076927" type="line"/>
      <point x="1014.276923076923" y="607.1076923076923" type="line"/>
      <point x="457.1692307692308" y="1486.0" type="line"/>
      <point x="166.8923076923077" y="1486.0" type="line"/>
    </contour>
  </outline>
</glyph>
<glyph name="O" format="2">
  <advance width="1541.6615384615384"/>
  <unicode hex="004F"/>
  <anchor x="771.9692307692308" y="0.0" name="bottom"/>
  <anchor x="768.8307692307692" y="-166.0" name="btm"/>
  <anchor x="771.9692307692308" y="744.0" name="center"/>
  <anchor x="975.6307692307693" y="20.0" name="ogonek"/>
  <anchor x="789.1384615384616" y="1660.0" name="top"/>
  <anchor x="34.86153846153846" y="1486.0" name="topleft"/>
  <anchor x="1022.8615384615384" y="1442.0" name="topright"/>
  <outline>
    <contour>
      <point x="765.9692307692308" y="-16.0" type="curve" smooth="yes"/>
      <point x="1161.6307692307691" y="-8.0"/>
      <point x="1443.3538461538462" y="230.06153846153845"/>
      <point x="1453.3538461538462" y="745.1384615384616" type="curve" smooth="yes"/>
      <point x="1462.2153846153847" y="1210.8307692307692"/>
      <point x="1205.6307692307691" y="1509.6923076923076"/>
      <point x="794.8307692307692" y="1502.0" type="curve" smooth="yes"/>
      <point x="395.75384615384615" y="1494.3076923076924"/>
      <point x="98.3076923076923" y="1266.8"/>
      <point x="88.3076923076923" y="751.723076923077" type="curve" smooth="yes"/>
      <point x="79.44615384615385" y="288.3384615384615"/>
      <point x="337.16923076923075" y="-24.0"/>
    </contour>
    <contour>
      <point x="771.9692307692308" y="214.0923076923077" type="curve" smooth="yes"/>
      <point x="529.2307692307693" y="214.0923076923077"/>
      <point x="407.13846153846157" y="446.5230769230769"/>
      <point x="407.13846153846157" y="740.0" type="curve" smooth="yes"/>
      <point x="407.13846153846157" y="1123.5076923076922"/>
      <point x="580.123076923077" y="1268.2153846153847"/>
      <point x="787.9692307692308" y="1268.2153846153847" type="curve" smooth="yes"/>
      <point x="1020.7076923076922" y="1268.2153846153847"/>
      <point x="1134.5230769230768" y="1047.2"/>
      <point x="1134.5230769230768" y="755.1384615384616" type="curve" smooth="yes"/>
      <point x="1134.5230769230768" y="381.9384615384615"/>
      <point x="994.9846153846154" y="214.0923076923077"/>
    </contour>
  </outline>
</glyph>
<glyph name="P" format="2">
  <advance width="652.7384615384616"/>
  <unicode hex="0050"/>
  <anchor x="323.9384615384615" y="0.0" name="bottom"/>
  <anchor x="336.4153846153846" y="-83.0" name="btm"/>
  <anchor x="356.3538461538462" y="830.5692307692308" name="top"/>
  <outline>
    <contour>
      <point x="83.44615384615385" y="0.0" type="line"/>
      <point x="240.72307692307695" y="0.0" type="line"/>
      <point x="240.72307692307695" y="230.5076923076923" type="line"/>
      <point x="257.5846153846154" y="230.5076923076923"/>
      <point x="282.03076923076924" y="229.5076923076923"/>
      <point x="324.4769230769231" y="229.5076923076923" type="curve" smooth="yes"/>
      <point x="517.3076923076924" y="229.5076923076923"/>
      <point x="621.2923076923078" y="326.7846153846154"/>
      <point x="621.2923076923078" y="496.75384615384615" type="curve" smooth="yes"/>
      <point x="621.2923076923078" y="680.7076923076924"/>
      <point x="517.7384615384616" y="751.0"/>
      <point x="346.0615384615385" y="751.0" type="curve" smooth="yes"/>
      <point x="275.0769230769231" y="751.0"/>
      <point x="211.95384615384617" y="743.0"/>
      <point x="146.96923076923076" y="743.0" type="curve" smooth="yes"/>
      <point x="83.44615384615385" y="743.0" type="line"/>
    </contour>
    <contour>
      <point x="240.72307692307695" y="347.26153846153846" type="curve"/>
      <point x="240.72307692307695" y="634.0923076923077" type="line"/>
      <point x="263.8769230769231" y="638.3846153846154"/>
      <point x="293.1692307692308" y="640.3846153846154"/>
      <point x="318.75384615384615" y="640.8153846153846" type="curve" smooth="yes"/>
      <point x="417.81538461538463" y="644.2461538461538"/>
      <point x="467.7230769230769" y="591.9692307692308"/>
      <point x="467.7230769230769" y="497.32307692307694" type="curve" smooth="yes"/>
      <point x="467.7230769230769" y="376.95384615384614"/>
      <point x="401.3692307692308" y="342.83076923076925"/>
      <point x="321.46153846153845" y="342.83076923076925" type="curve" smooth="yes"/>
      <point x="292.1846153846154" y="342.83076923076925"/>
      <point x="265.6" y="344.4"/>
    </contour>
  </outline>
</glyph>
<glyph name="Q" format="2">
  <advance width="1553.5076923076924"/>
  <unicode hex="0051"/>
  <anchor x="777.1076923076923" y="0.0" name="bottom"/>
  <anchor x="777.1076923076923" y="-166.0" name="btm"/>
  <anchor x="777.1076923076923" y="1660.0" name="top"/>
  <anchor x="771.9692307692308" y="744.0" name="center"/>
  <anchor x="975.6307692307693" y="20.0" name="ogonek"/>
  <anchor x="34.86153846153846" y="1486.0" name="topleft"/>
  <anchor x="1022.8615384615384" y="1442.0" name="topright"/>
  <outline>
    <contour>
      <point x="1194.1538461538462" y="-323.1692307692308" type="curve" smooth="yes"/>
      <point x="1281.6923076923076" y="-323.1692307692308"/>
      <point x="1336.923076923077" y="-299.32307692307694"/>
      <point x="1369.9076923076923" y="-280.46153846153845" type="curve"/>
      <point x="1369.9076923076923" y="-66.21538461538461" type="line"/>
      <point x="1327.323076923077" y="-81.07692307692307"/>
      <point x="1274.4923076923078" y="-90.76923076923076"/>
      <point x="1220.6461538461538" y="-90.76923076923076" type="curve" smooth="yes"/>
      <point x="1048.9846153846154" y="-90.76923076923076"/>
      <point x="987.723076923077" y="-63.13846153846154"/>
      <point x="938.2153846153847" y="59.169230769230765" type="curve"/>
      <point x="835.7846153846154" y="59.169230769230765" type="line"/>
      <point x="688.8" y="16.61538461538461" type="line"/>
      <point x="797.2615384615384" y="-244.0923076923077"/>
      <point x="905.9384615384615" y="-323.1692307692308"/>
    </contour>
    <component base="O"/>
  </outline>
</glyph>
<glyph name="R" format="2">
  <advance width="1387.5076923076924"/>
  <unicode hex="0052"/>
  <anchor x="689.323076923077" y="0.0" name="bottom"/>
  <anchor x="699.876923076923" y="-166.0" name="btm"/>
  <anchor x="661.876923076923" y="1660.0" name="top"/>
  <outline>
    <contour>
      <point x="480.3076923076924" y="0.0" type="line"/>
      <point x="480.3076923076924" y="566.4923076923077" type="line"/>
      <point x="715.7538461538462" y="566.4923076923077"/>
      <point x="773.7846153846154" y="577.3230769230769"/>
      <point x="853.5076923076923" y="590.4615384615385" type="curve" smooth="yes"/>
      <point x="1085.7846153846153" y="626.4615384615385"/>
      <point x="1239.1692307692308" y="762.1846153846154"/>
      <point x="1239.1692307692308" y="1050.676923076923" type="curve" smooth="yes"/>
      <point x="1239.1692307692308" y="1395.3846153846155"/>
      <point x="981.6307692307693" y="1502.0"/>
      <point x="704.123076923077" y="1502.0" type="curve" smooth="yes"/>
      <point x="516.2461538461539" y="1502.0"/>
      <point x="385.3846153846154" y="1486.0"/>
      <point x="284.55384615384617" y="1486.0" type="curve" smooth="yes"/>
      <point x="245.13846153846154" y="1486.0"/>
      <point x="206.3076923076923" y="1486.0"/>
      <point x="166.8923076923077" y="1486.0" type="curve"/>
      <point x="166.8923076923077" y="0.0" type="line"/>
    </contour>
    <contour>
      <point x="480.3076923076924" y="785.723076923077" type="curve"/>
      <point x="480.3076923076924" y="1260.7692307692307" type="line"/>
      <point x="532.3384615384616" y="1272.7692307692307"/>
      <point x="598.9538461538461" y="1278.7692307692307"/>
      <point x="663.2923076923078" y="1278.7692307692307" type="curve" smooth="yes"/>
      <point x="873.9384615384615" y="1278.7692307692307"/>
      <point x="933.723076923077" y="1179.6615384615384"/>
      <point x="933.723076923077" y="1042.9538461538461" type="curve" smooth="yes"/>
      <point x="933.7230769230769" y="880.8307692307692"/>
      <point x="849.6307692307693" y="778.5846153846154"/>
      <point x="680.4" y="778.5846153846154" type="curve" smooth="yes"/>
      <point x="630.6769230769231" y="778.5846153846154"/>
      <point x="521.1692307692308" y="779.723076923077"/>
    </contour>
    <contour>
      <point x="993.7846153846153" y="0.0" type="curve"/>
      <point x="1340.8923076923077" y="0.0" type="line"/>
      <point x="1320.8923076923077" y="36.0"/>
      <point x="1299.753846153846" y="72.0"/>
      <point x="1279.753846153846" y="108.86153846153846" type="curve" smooth="yes"/>
      <point x="1170.3384615384616" y="302.0"/>
      <point x="1104.0" y="585.2615384615384"/>
      <point x="950.5538461538462" y="653.2615384615384" type="curve"/>
      <point x="755.9076923076923" y="640.2153846153846" type="line"/>
      <point x="668.1846153846154" y="571.3538461538461" type="line"/>
      <point x="810.276923076923" y="559.876923076923"/>
      <point x="858.9230769230769" y="285.7230769230769"/>
      <point x="939.7846153846153" y="107.72307692307692" type="curve" smooth="yes"/>
      <point x="968.6461538461539" y="43.723076923076924"/>
      <point x="976.9230769230769" y="22.584615384615383"/>
    </contour>
  </outline>
</glyph>
<glyph name="S" format="2">
  <advance width="1168.7076923076922"/>
  <unicode hex="0053"/>
  <anchor x="573.6615384615385" y="0.0" name="bottom"/>
  <anchor x="566.5230769230769" y="-166.0" name="btm"/>
  <anchor x="616.4923076923077" y="1660.0" name="top"/>
  <outline>
    <contour>
      <point x="567.5076923076923" y="-16.0" type="curve" smooth="yes"/>
      <point x="893.3846153846155" y="-16.0"/>
      <point x="1090.9846153846154" y="140.33846153846156"/>
      <point x="1090.9846153846154" y="409.3538461538462" type="curve" smooth="yes"/>
      <point x="1090.9846153846154" y="643.7846153846153"/>
      <point x="913.1384615384616" y="759.9384615384615"/>
      <point x="681.6923076923077" y="869.2" type="curve" smooth="yes"/>
      <point x="489.20000000000005" y="961.9692307692308"/>
      <point x="411.47692307692313" y="1012.4"/>
      <point x="411.47692307692313" y="1123.5076923076922" type="curve" smooth="yes"/>
      <point x="411.47692307692313" y="1218.1846153846154"/>
      <point x="502.61538461538464" y="1270.3384615384616"/>
      <point x="645.2" y="1270.3384615384616" type="curve" smooth="yes"/>
      <point x="787.2615384615385" y="1270.3384615384616"/>
      <point x="901.8461538461538" y="1225.7846153846153"/>
      <point x="965.2923076923078" y="1181.076923076923" type="curve"/>
      <point x="1018.123076923077" y="1419.0153846153846" type="line"/>
      <point x="964.9846153846154" y="1451.876923076923"/>
      <point x="832.4615384615385" y="1502.0"/>
      <point x="626.9846153846154" y="1502.0" type="curve" smooth="yes"/>
      <point x="341.8461538461538" y="1502.0"/>
      <point x="110.33846153846153" y="1382.3692307692309"/>
      <point x="110.33846153846153" y="1103.9076923076923" type="curve" smooth="yes"/>
      <point x="110.33846153846153" y="873.6615384615385"/>
      <point x="283.26153846153846" y="737.7846153846153"/>
      <point x="468.67692307692306" y="647.7846153846153" type="curve" smooth="yes"/>
      <point x="686.8" y="543.5076923076923"/>
      <point x="779.2923076923076" y="497.6"/>
      <point x="779.2923076923076" y="383.0769230769231" type="curve" smooth="yes"/>
      <point x="779.2923076923076" y="273.10769230769233"/>
      <point x="702.4923076923077" y="226.92307692307696"/>
      <point x="544.4" y="226.92307692307696" type="curve" smooth="yes"/>
      <point x="394.8615384615385" y="226.92307692307696"/>
      <point x="240.76923076923077" y="277.90769230769234"/>
      <point x="165.9076923076923" y="320.76923076923083" type="curve"/>
      <point x="118.61538461538461" y="73.41538461538461" type="line"/>
      <point x="174.46153846153845" y="38.276923076923076"/>
      <point x="362.83076923076925" y="-16.0"/>
    </contour>
  </outline>
</glyph>
<glyph name="T" format="2">
  <advance width="620.3473513846154"/>
  <unicode hex="0054"/>
  <anchor x="310.17372307692307" y="0.0" name="bottom"/>
  <anchor x="310.17372307692307" y="372.0" name="center"/>
  <anchor x="308.0343384615384" y="830.0" name="top"/>
  <outline>
    <contour>
      <point x="231.2889846153846" y="0.0" type="line"/>
      <point x="389.2118153846154" y="0.0" type="line"/>
      <point x="389.2118153846154" y="622.7351384615384" type="line"/>
      <point x="600.3261538461538" y="622.7351384615384" type="line"/>
      <point x="600.3261538461538" y="743.0" type="line"/>
      <point x="20.097969230769227" y="743.0" type="line"/>
      <point x="20.097969230769227" y="622.7351384615384" type="line"/>
      <point x="231.2889846153846" y="622.7351384615384" type="line"/>
    </contour>
  </outline>
</glyph>
<glyph name="U" format="2">
  <advance width="1477.1384615384616"/>
  <unicode hex="0055"/>
  <anchor x="738.2153846153847" y="0.0" name="bottom"/>
  <anchor x="740.2461538461539" y="-166.0" name="btm"/>
  <anchor x="1330.1538461538462" y="20.0" name="ogonek"/>
  <anchor x="743.3846153846154" y="1660.0" name="top"/>
  <anchor x="1137.446153846154" y="1486.0" name="topright"/>
  <outline>
    <contour>
      <point x="745.7846153846153" y="-16.0" type="curve" smooth="yes"/>
      <point x="1151.8153846153846" y="-16.0"/>
      <point x="1336.0923076923077" y="215.6923076923077"/>
      <point x="1336.0923076923077" y="618.0" type="curve" smooth="yes"/>
      <point x="1336.0923076923077" y="1486.0" type="line"/>
      <point x="1026.676923076923" y="1486.0" type="line"/>
      <point x="1026.676923076923" y="667.5692307692308" type="line" smooth="yes"/>
      <point x="1026.676923076923" y="323.9384615384616"/>
      <point x="926.7384615384615" y="230.61538461538464"/>
      <point x="745.3846153846154" y="230.61538461538464" type="curve" smooth="yes"/>
      <point x="555.2615384615385" y="230.61538461538464"/>
      <point x="451.323076923077" y="318.5230769230769"/>
      <point x="452.4615384615385" y="667.5692307692308" type="curve" smooth="yes"/>
      <point x="455.6" y="1486.0" type="line"/>
      <point x="144.18461538461537" y="1486.0" type="line"/>
      <point x="141.47692307692307" y="623.1384615384616" type="line" smooth="yes"/>
      <point x="141.04615384615386" y="231.81538461538463"/>
      <point x="305.16923076923075" y="-16.0"/>
    </contour>
  </outline>
</glyph>
<glyph name="V" format="2">
  <advance width="677.9487193846154"/>
  <unicode hex="0056"/>
  <anchor x="339.0125538461539" y="0.0" name="bottom"/>
  <anchor x="339.93587692307693" y="-83.0" name="btm"/>
  <anchor x="339.93587692307693" y="830.6459076923077" name="top"/>
  <outline>
    <contour>
      <point x="273.62036923076926" y="-3.493476923076922" type="line"/>
      <point x="408.1756307692308" y="-3.493476923076922" type="line"/>
      <point x="677.6212923076923" y="743.0" type="line"/>
      <point x="511.900123076923" y="743.0" type="line"/>
      <point x="379.1032" y="321.3524307692308" type="line"/>
      <point x="342.93587692307693" y="187.28449230769235" type="line"/>
      <point x="307.19975384615384" y="321.3524307692308" type="line"/>
      <point x="166.47950769230772" y="743.0" type="line"/>
      <point x="0.3275692307692246" y="743.0" type="line"/>
    </contour>
  </outline>
</glyph>
<glyph name="W" format="2">
  <advance width="1922.2769230769231"/>
  <unicode hex="0057"/>
  <anchor x="961.7846153846153" y="0.0" name="bottom"/>
  <anchor x="953.2307692307693" y="-166.0" name="btm"/>
  <anchor x="953.2307692307693" y="1660.0" name="top"/>
  <outline>
    <contour>
      <point x="398.24615384615385" y="-12.584615384615383" type="line"/>
      <point x="692.7692307692308" y="-12.584615384615383" type="line"/>
      <point x="917.3846153846154" y="837.5076923076922" type="line"/>
      <point x="998.0615384615385" y="1378.5538461538463" type="line"/>
      <point x="912.4" y="1379.4153846153847" type="line"/>
      <point x="999.6307692307693" y="837.5076923076922" type="line"/>
      <point x="1223.6615384615384" y="-12.584615384615383" type="line"/>
      <point x="1532.3692307692309" y="-12.584615384615383" type="line"/>
      <point x="1920.923076923077" y="1486.0" type="line"/>
      <point x="1615.476923076923" y="1486.0" type="line"/>
      <point x="1436.923076923077" y="604.7384615384616" type="line"/>
      <point x="1373.3538461538462" y="162.4" type="line"/>
      <point x="1415.2" y="162.4" type="line"/>
      <point x="1332.6153846153845" y="605.1692307692308" type="line"/>
      <point x="1099.6000000000001" y="1486.0" type="line"/>
      <point x="830.0923076923077" y="1486.0" type="line"/>
      <point x="603.0769230769231" y="605.1692307692308" type="line"/>
      <point x="531.2307692307693" y="163.53846153846155" type="line"/>
      <point x="567.9384615384615" y="163.53846153846155" type="line"/>
      <point x="502.6461538461539" y="605.1692307692308" type="line"/>
      <point x="316.0615384615385" y="1486.0" type="line"/>
      <point x="1.353846153846142" y="1486.0" type="line"/>
    </contour>
  </outline>
</glyph>
<glyph name="X" format="2">
  <advance width="1333.1384615384616"/>
  <unicode hex="0058"/>
  <anchor x="666.9230769230769" y="0.0" name="bottom"/>
  <anchor x="652.4923076923077" y="-166.0" name="btm"/>
  <anchor x="652.4923076923077" y="1660.0" name="top"/>
  <outline>
    <contour>
      <point x="28.615384615384613" y="0.0" type="line"/>
      <point x="356.03076923076924" y="0.0" type="line"/>
      <point x="579.5692307692308" y="404.4" type="line"/>
      <point x="690.3384615384615" y="614.9846153846154" type="line"/>
      <point x="618.3692307692307" y="612.9846153846154" type="line"/>
      <point x="732.0" y="404.4" type="line"/>
      <point x="961.1076923076923" y="0.0" type="line"/>
      <point x="1306.3692307692309" y="0.0" type="line"/>
      <point x="817.4153846153847" y="789.4769230769231" type="line"/>
      <point x="825.6307692307693" y="696.3384615384615" type="line"/>
      <point x="1294.0923076923077" y="1486.0" type="line"/>
      <point x="968.2461538461538" y="1486.0" type="line"/>
      <point x="759.6" y="1105.3846153846155" type="line"/>
      <point x="651.7846153846154" y="907.6923076923077" type="line"/>
      <point x="709.323076923077" y="907.6923076923077" type="line"/>
      <point x="598.3692307692309" y="1105.3846153846155" type="line"/>
      <point x="378.8615384615385" y="1488.0" type="line"/>
      <point x="37.169230769230765" y="1486.0" type="line"/>
      <point x="509.26153846153846" y="713.1384615384616" type="line"/>
      <point x="507.0769230769231" y="811.1076923076923" type="line"/>
    </contour>
  </outline>
</glyph>
<glyph name="Y" format="2">
  <advance width="1245.9384615384615"/>
  <unicode hex="0059"/>
  <anchor x="623.9692307692308" y="0.0" name="bottom"/>
  <anchor x="634.2461538461539" y="-166.0" name="btm"/>
  <anchor x="634.2461538461539" y="1660.0" name="top"/>
  <anchor x="40.0" y="1486.0" name="topleft"/>
  <outline>
    <contour>
      <point x="464.276923076923" y="0.0" type="line"/>
      <point x="783.1076923076923" y="0.0" type="line"/>
      <point x="783.1076923076923" y="607.9384615384615" type="line"/>
      <point x="748.6769230769231" y="477.38461538461536" type="line"/>
      <point x="1271.6615384615384" y="1486.0" type="line"/>
      <point x="940.9846153846154" y="1486.0" type="line"/>
      <point x="677.7846153846154" y="940.5230769230769" type="line"/>
      <point x="612.123076923077" y="740.7076923076924" type="line"/>
      <point x="656.0923076923077" y="740.7076923076924" type="line"/>
      <point x="578.1538461538462" y="940.5230769230769" type="line"/>
      <point x="315.0769230769231" y="1486.0" type="line"/>
      <point x="-25.292307692307716" y="1486.0" type="line"/>
      <point x="497.5692307692307" y="478.5230769230769" type="line"/>
      <point x="464.276923076923" y="609.2307692307692" type="line"/>
    </contour>
  </outline>
</glyph>
<glyph name="Z" format="2">
  <advance width="1242.8"/>
  <unicode hex="005A"/>
  <anchor x="608.5230769230769" y="0.0" name="bottom"/>
  <anchor x="595.6923076923077" y="-166.0" name="btm"/>
  <anchor x="608.5230769230769" y="744.0" name="center"/>
  <anchor x="628.276923076923" y="1660.0" name="top"/>
  <outline>
    <contour>
      <point x="90.33846153846153" y="0.0" type="line"/>
      <point x="1153.569230769231" y="0.0" type="line"/>
      <point x="1153.569230769231" y="236.64615384615388" type="line"/>
      <point x="472.1846153846154" y="236.64615384615388" type="line"/>
      <point x="544.1846153846154" y="331.7538461538462" type="line"/>
      <point x="1198.1846153846154" y="1408.0" type="line"/>
      <point x="1155.6" y="1486.0" type="line"/>
      <point x="123.78461538461538" y="1486.0" type="line"/>
      <point x="123.78461538461538" y="1251.9076923076923" type="line"/>
      <point x="776.8923076923077" y="1251.9076923076923" type="line"/>
      <point x="716.3384615384615" y="1168.246153846154" type="line"/>
      <point x="48.615384615384606" y="82.0" type="line"/>
    </contour>
  </outline>
</glyph>
<glyph name="bracketleft" format="2">
  <advance width="408.4"/>
  <unicode hex="005B"/>
  <outline>
    <contour>
      <point x="84.3076923076923" y="31.276923076923076" type="line"/>
      <point x="84.3076923076923" y="-64.72307692307692"/>
      <point x="104.72307692307692" y="-99.83076923076923"/>
      <point x="180.15384615384616" y="-99.83076923076923" type="curve" smooth="yes"/>
      <point x="252.26153846153846" y="-99.83076923076923"/>
      <point x="295.3692307692308" y="-93.6923076923077"/>
      <point x="346.9384615384615" y="-87.12307692307692" type="curve"/>
      <point x="346.9384615384615" y="-13.323076923076918" type="line"/>
      <point x="220.4923076923077" y="-12.89230769230769" type="line"/>
      <point x="220.4923076923077" y="762.0461538461539" type="line"/>
      <point x="346.9384615384615" y="762.0461538461539" type="line"/>
      <point x="346.9384615384615" y="839.4153846153846" type="line"/>
      <point x="295.3692307692308" y="844.8461538461538"/>
      <point x="252.26153846153846" y="851.4153846153846"/>
      <point x="180.15384615384616" y="851.4153846153846" type="curve" smooth="yes"/>
      <point x="105.15384615384616" y="851.4153846153846"/>
      <point x="84.3076923076923" y="822.0"/>
      <point x="84.3076923076923" y="726.0" type="curve" smooth="yes"/>
    </contour>
  </outline>
</glyph>
<glyph name="asciicircum" format="2">
  <advance width="673.1370935384615"/>
  <unicode hex="005E"/>
  <outline>
    <contour>
      <point x="78.19999999999999" y="243.3076923076923" type="line"/>
      <point x="221.6769230769231" y="243.3076923076923" type="line"/>
      <point x="340.9846153846154" y="562.8461538461538" type="line"/>
      <point x="332.2769230769231" y="562.8461538461538" type="line"/>
      <point x="454.2923076923077" y="243.3076923076923" type="line"/>
      <point x="595.0615384615385" y="243.3076923076923" type="line"/>
      <point x="386.3692307692308" y="748.0" type="line"/>
      <point x="287.03076923076924" y="748.0" type="line"/>
    </contour>
  </outline>
</glyph>
<glyph name="underscore" format="2">
  <advance width="1657.4153846153847"/>
  <unicode hex="005F"/>
  <outline>
    <contour>
      <point x="-37.29230769230769" y="-401.0153846153846" type="line"/>
      <point x="1694.7076923076922" y="-401.0153846153846" type="line"/>
      <point x="1694.7076923076922" y="-244.36923076923077" type="line"/>
      <point x="-37.29230769230769" y="-244.36923076923077" type="line"/>
    </contour>
  </outline>
</glyph>
<glyph name="grave" format="2">
  <advance width="645.2307692307693"/>
  <unicode hex="0060"/>
  <anchor x="476.12307692307695" y="1661.1384615384616" name="_top"/>
  <outline>
    <contour>
      <point x="595.9384615384615" y="1350.1538461538462" type="line"/>
      <point x="491.63076923076926" y="1454.6461538461538"/>
      <point x="349.10769230769233" y="1636.0923076923077"/>
      <point x="263.6615384615385" y="1766.4923076923078" type="curve"/>
      <point x="57.53846153846155" y="1602.3076923076924" type="line"/>
      <point x="124.67692307692309" y="1469.2615384615385"/>
      <point x="367.7846153846154" y="1261.6923076923076"/>
      <point x="453.4769230769231" y="1221.1384615384616" type="curve"/>
    </contour>
  </outline>
</glyph>
<glyph name="a" format="2">
  <advance width="1184.0307692307692"/>
  <unicode hex="0061"/>
  <anchor x="592.5846153846154" y="0.0" name="bottom"/>
  <anchor x="584.6153846153846" y="-200.0" name="btm"/>
  <anchor x="1040.3692307692309" y="50.0" name="ogonek"/>
  <anchor x="575.1692307692308" y="1660.0" name="top"/>
  <outline>
    <contour>
      <point x="441.6923076923077" y="-16.0" type="curve" smooth="yes"/>
      <point x="583.9384615384615" y="-16.0"/>
      <point x="690.5538461538462" y="40.0"/>
      <point x="751.2615384615385" y="94.0" type="curve"/>
      <point x="788.2461538461539" y="180.0" type="line"/>
      <point x="735.4153846153846" y="243.23076923076923" type="line"/>
      <point x="714.5538461538462" y="219.5076923076923"/>
      <point x="632.3076923076924" y="183.8769230769231"/>
      <point x="558.8000000000001" y="183.8769230769231" type="curve" smooth="yes"/>
      <point x="463.69230769230774" y="183.8769230769231"/>
      <point x="398.27692307692314" y="233.90769230769232"/>
      <point x="398.27692307692314" y="342.4923076923077" type="curve" smooth="yes"/>
      <point x="398.27692307692314" y="424.6461538461539"/>
      <point x="445.29230769230776" y="457.96923076923076"/>
      <point x="498.4923076923077" y="481.5692307692308" type="curve" smooth="yes"/>
      <point x="553.1384615384616" y="506.89230769230767"/>
      <point x="661.5384615384615" y="522.1846153846154"/>
      <point x="735.4153846153846" y="523.3230769230769" type="curve"/>
      <point x="785.6923076923077" y="620.8307692307692" type="line"/>
      <point x="735.4153846153846" y="683.5384615384615" type="line"/>
      <point x="600.1538461538462" y="683.5384615384615"/>
      <point x="424.03076923076924" y="670.0923076923077"/>
      <point x="292.61538461538464" y="614.6769230769231" type="curve" smooth="yes"/>
      <point x="166.03076923076924" y="560.9538461538461"/>
      <point x="87.44615384615383" y="460.95384615384614"/>
      <point x="87.44615384615383" y="325.7846153846154" type="curve" smooth="yes"/>
      <point x="87.44615384615383" y="121.66153846153847"/>
      <point x="230.3076923076923" y="-16.0"/>
    </contour>
    <contour>
      <point x="1039.8461538461538" y="0.0" type="line"/>
      <point x="1039.8461538461538" y="735.6923076923076" type="line" smooth="yes"/>
      <point x="1039.8461538461538" y="1039.3846153846155"/>
      <point x="897.0769230769231" y="1131.5692307692307"/>
      <point x="590.1538461538462" y="1131.5692307692307" type="curve" smooth="yes"/>
      <point x="401.7846153846154" y="1131.5692307692307"/>
      <point x="198.52307692307693" y="1057.4153846153847"/>
      <point x="132.46153846153845" y="1016.8923076923077" type="curve"/>
      <point x="197.84615384615384" y="824.7076923076922" type="line"/>
      <point x="279.4769230769231" y="866.8307692307692"/>
      <point x="433.75384615384615" y="904.0"/>
      <point x="561.323076923077" y="904.0" type="curve" smooth="yes"/>
      <point x="672.9538461538461" y="904.0"/>
      <point x="735.4153846153846" y="878.5538461538462"/>
      <point x="735.4153846153846" y="766.3384615384615" type="curve" smooth="yes"/>
      <point x="735.4153846153846" y="166.0" type="line"/>
      <point x="751.2615384615385" y="166.0" type="line"/>
      <point x="751.2615384615385" y="0.0" type="line"/>
    </contour>
  </outline>
</glyph>
<glyph name="b" format="2">
  <advance width="642.1846153846154"/>
  <unicode hex="0062"/>
  <anchor x="320.81538461538463" y="0.0" name="bottom"/>
  <anchor x="356.73846153846154" y="-83.0" name="btm"/>
  <anchor x="404.03076923076924" y="830.5692307692308" name="top"/>
  <outline>
    <contour>
      <point x="76.46153846153845" y="811.0" type="line"/>
      <point x="76.46153846153845" y="31.0" type="line"/>
      <point x="227.32307692307694" y="83.70769230769231" type="line"/>
      <point x="227.32307692307694" y="483.0" type="line"/>
      <point x="222.75384615384615" y="486.0" type="line"/>
      <point x="227.32307692307694" y="598.8" type="line"/>
      <point x="227.32307692307694" y="811.0" type="line"/>
    </contour>
    <contour>
      <point x="309.7692307692308" y="-9.569230769230769" type="curve" smooth="yes"/>
      <point x="484.8923076923077" y="-9.569230769230769"/>
      <point x="598.4615384615385" y="113.44615384615385"/>
      <point x="598.4615384615385" y="299.0" type="curve" smooth="yes"/>
      <point x="598.4615384615385" y="479.0"/>
      <point x="497.6" y="564.0"/>
      <point x="379.03076923076924" y="564.0" type="curve" smooth="yes"/>
      <point x="279.1692307692308" y="564.0"/>
      <point x="231.75384615384615" y="516.4153846153846"/>
      <point x="208.75384615384615" y="491.84615384615387" type="curve"/>
      <point x="227.32307692307694" y="414.3538461538461" type="line"/>
      <point x="247.33846153846156" y="429.5076923076923"/>
      <point x="285.9230769230769" y="449.38461538461536"/>
      <point x="329.95384615384614" y="449.38461538461536" type="curve" smooth="yes"/>
      <point x="397.87692307692305" y="449.38461538461536"/>
      <point x="441.61538461538464" y="406.18461538461537"/>
      <point x="441.18461538461537" y="286.7076923076923" type="curve" smooth="yes"/>
      <point x="440.32307692307694" y="163.36923076923077"/>
      <point x="385.5692307692308" y="95.06153846153848"/>
      <point x="313.2307692307692" y="95.06153846153848" type="curve" smooth="yes"/>
      <point x="270.3538461538462" y="95.06153846153848"/>
      <point x="240.76923076923077" y="100.92307692307693"/>
      <point x="227.32307692307694" y="113.35384615384616" type="curve"/>
      <point x="76.46153846153845" y="31.0" type="line"/>
      <point x="92.47692307692307" y="19.138461538461538"/>
      <point x="208.27692307692308" y="-9.569230769230769"/>
    </contour>
  </outline>
</glyph>
<glyph name="c" format="2">
  <advance width="994.2153846153847"/>
  <unicode hex="0063"/>
  <anchor x="489.10769230769233" y="0.0" name="bottom"/>
  <anchor x="563.0769230769231" y="-166.0" name="btm"/>
  <anchor x="592.5538461538462" y="1661.1384615384616" name="top"/>
  <outline>
    <contour>
      <point x="73.16923076923077" y="545.1384615384616" type="curve" smooth="yes"/>
      <point x="73.16923076923077" y="224.86153846153846"/>
      <point x="245.75384615384615" y="-16.0"/>
      <point x="592.2153846153847" y="-16.0" type="curve" smooth="yes"/>
      <point x="734.4923076923077" y="-16.0"/>
      <point x="875.323076923077" y="16.89230769230769"/>
      <point x="939.9076923076923" y="80.89230769230768" type="curve"/>
      <point x="894.7692307692308" y="268.40000000000003" type="line"/>
      <point x="846.7692307692308" y="242.95384615384617"/>
      <point x="753.876923076923" y="218.0615384615385"/>
      <point x="652.9846153846154" y="218.0615384615385" type="curve" smooth="yes"/>
      <point x="497.4769230769231" y="218.0615384615385"/>
      <point x="372.27692307692314" y="327.3538461538462"/>
      <point x="378.0" y="577.1692307692308" type="curve" smooth="yes"/>
      <point x="384.5846153846154" y="809.5692307692308"/>
      <point x="523.7846153846154" y="891.0769230769231"/>
      <point x="654.4307692307692" y="891.0769230769231" type="curve" smooth="yes"/>
      <point x="763.0153846153846" y="891.0769230769231"/>
      <point x="834.4615384615385" y="869.9384615384615"/>
      <point x="883.6307692307693" y="839.9076923076923" type="curve"/>
      <point x="921.9076923076923" y="1073.1384615384616" type="line"/>
      <point x="885.9076923076923" y="1098.2769230769231"/>
      <point x="772.5230769230769" y="1128.0"/>
      <point x="626.8307692307692" y="1128.0" type="curve" smooth="yes"/>
      <point x="249.75384615384615" y="1128.0"/>
      <point x="73.16923076923077" y="872.8615384615384"/>
    </contour>
  </outline>
</glyph>
<glyph name="d" format="2">
  <advance width="646.2304283076924"/>
  <unicode hex="0064"/>
  <anchor x="322.54603076923075" y="0.0" name="bottom"/>
  <anchor x="315.6705230769231" y="-83.0" name="btm"/>
  <anchor x="322.54603076923075" y="279.0" name="center"/>
  <anchor x="200.76024615384617" y="830.6459076923077" name="top"/>
  <anchor x="626.2305230769231" y="557.0" name="topright"/>
  <outline>
    <contour>
      <point x="427.22818461538463" y="0.0" type="line"/>
      <point x="566.8615384615384" y="0.0" type="line"/>
      <point x="566.8615384615384" y="812.3540923076923" type="line"/>
      <point x="415.92332307692305" y="812.3540923076923" type="line"/>
      <point x="415.92332307692305" y="598.809476923077" type="line"/>
      <point x="420.0" y="458.0232" type="line"/>
      <point x="415.92332307692305" y="454.45396923076925" type="line"/>
      <point x="415.92332307692305" y="77.0" type="line"/>
      <point x="427.22818461538463" y="69.49396923076922" type="line"/>
    </contour>
    <contour>
      <point x="262.7857846153846" y="-8.0" type="curve" smooth="yes"/>
      <point x="362.57064615384616" y="-8.0"/>
      <point x="411.6459076923077" y="40.355015384615385"/>
      <point x="434.92332307692305" y="65.27833846153845" type="curve"/>
      <point x="416.5692307692308" y="141.67052307692308" type="line"/>
      <point x="395.2769230769231" y="126.10036923076925"/>
      <point x="354.2142153846154" y="108.0651076923077"/>
      <point x="311.94886153846153" y="108.0651076923077" type="curve" smooth="yes"/>
      <point x="242.57113846153845" y="108.0651076923077"/>
      <point x="200.07667692307695" y="153.99667692307693"/>
      <point x="201.43076923076927" y="269.79975384615386" type="curve" smooth="yes"/>
      <point x="201.8615384615385" y="394.2672"/>
      <point x="256.1278153846154" y="456.94886153846153"/>
      <point x="328.67193846153845" y="456.94886153846153" type="curve" smooth="yes"/>
      <point x="367.63052307692305" y="456.94886153846153"/>
      <point x="399.4153846153846" y="452.03950769230767"/>
      <point x="416.5692307692308" y="437.7611692307692" type="curve"/>
      <point x="451.77181538461537" y="534.4153846153846" type="line"/>
      <point x="439.4172923076923" y="544.276923076923"/>
      <point x="393.13895384615387" y="564.0"/>
      <point x="324.2923076923077" y="564.0" type="curve" smooth="yes"/>
      <point x="155.0004923076923" y="564.0"/>
      <point x="43.77089230769231" y="444.22818461538463"/>
      <point x="43.77089230769231" y="258.7225846153846" type="curve" smooth="yes"/>
      <point x="43.77089230769231" y="78.36806153846155"/>
      <point x="145.1398769230769" y="-8.0"/>
    </contour>
  </outline>
</glyph>
<glyph name="e" format="2">
  <advance width="1159.2615384615385"/>
  <unicode hex="0065"/>
  <anchor x="579.6307692307693" y="0.0" name="bottom"/>
  <anchor x="620.4923076923077" y="-166.0" name="btm"/>
  <anchor x="805.723076923077" y="50.0" name="ogonek"/>
  <anchor x="619.0461538461539" y="1661.1384615384616" name="top"/>
  <outline>
    <contour>
      <point x="620.7692307692308" y="-16.0" type="curve" smooth="yes"/>
      <point x="793.7846153846154" y="-16.0"/>
      <point x="961.7846153846154" y="36.24615384615385"/>
      <point x="1035.7846153846153" y="96.24615384615385" type="curve"/>
      <point x="984.9538461538461" y="262.40000000000003" type="line"/>
      <point x="930.9538461538461" y="232.67692307692312"/>
      <point x="788.6461538461539" y="204.67692307692312"/>
      <point x="694.4307692307692" y="204.67692307692312" type="curve" smooth="yes"/>
      <point x="517.8461538461538" y="204.67692307692312"/>
      <point x="399.4769230769231" y="283.26153846153846"/>
      <point x="392.03076923076924" y="502.24615384615385" type="curve" smooth="yes"/>
      <point x="384.5846153846154" y="826.0923076923077"/>
      <point x="476.12307692307695" y="925.2923076923076"/>
      <point x="615.0461538461539" y="925.2923076923076" type="curve" smooth="yes"/>
      <point x="757.7846153846153" y="925.2923076923076"/>
      <point x="796.0615384615385" y="813.1384615384616"/>
      <point x="786.0615384615385" y="652.0" type="curve"/>
      <point x="273.63076923076926" y="652.0" type="line"/>
      <point x="253.63076923076926" y="486.6461538461538" type="line"/>
      <point x="1059.2307692307693" y="486.6461538461538" type="line"/>
      <point x="1066.9538461538461" y="535.5076923076923"/>
      <point x="1070.3692307692309" y="607.2"/>
      <point x="1070.3692307692309" y="688.9230769230769" type="curve" smooth="yes"/>
      <point x="1064.646153846154" y="1015.9076923076923"/>
      <point x="855.6" y="1129.7230769230769"/>
      <point x="624.7692307692308" y="1128.0" type="curve" smooth="yes"/>
      <point x="281.96923076923076" y="1126.2769230769231"/>
      <point x="90.03076923076922" y="884.276923076923"/>
      <point x="90.03076923076922" y="560.276923076923" type="curve" smooth="yes"/>
      <point x="90.03076923076922" y="199.13846153846154"/>
      <point x="278.0" y="-16.0"/>
    </contour>
  </outline>
</glyph>
<glyph name="f" format="2">
  <advance width="417.1152141538462"/>
  <unicode hex="0066"/>
  <anchor x="208.59575384615385" y="0.0" name="bottom"/>
  <anchor x="198.47126153846153" y="-83.0" name="btm"/>
  <anchor x="147.6923076923077" y="1025.9692307692308" name="top"/>
  <outline>
    <contour>
      <point x="113.21704615384616" y="0.0" type="line"/>
      <point x="266.7096" y="0.0" type="line"/>
      <point x="266.7096" y="452.45489230769226" type="line"/>
      <point x="394.0660307692308" y="452.45489230769226" type="line"/>
      <point x="394.0660307692308" y="557.0" type="line"/>
      <point x="266.7096" y="557.0" type="line"/>
      <point x="266.7096" y="615.2518153846154" type="line" smooth="yes"/>
      <point x="266.7096" y="682.6064"/>
      <point x="296.7872" y="712.8996307692307"/>
      <point x="340.5102769230769" y="712.8996307692307" type="curve" smooth="yes"/>
      <point x="378.9275692307692" y="712.8996307692307"/>
      <point x="401.4340923076923" y="708.1152615384616"/>
      <point x="417.0665230769231" y="702.0385846153846" type="curve"/>
      <point x="417.0665230769231" y="811.0" type="line"/>
      <point x="405.20590769230773" y="814.0766769230769"/>
      <point x="369.9339692307692" y="821.6459076923077"/>
      <point x="323.6459076923077" y="821.6459076923077" type="curve" smooth="yes"/>
      <point x="226.3555076923077" y="821.6459076923077"/>
      <point x="113.21704615384616" y="772.8610461538461"/>
      <point x="113.21704615384616" y="610.5060307692307" type="curve" smooth="yes"/>
      <point x="113.21704615384616" y="557.0" type="line"/>
      <point x="38.36806153846154" y="539.9368000000001" type="line"/>
      <point x="38.36806153846154" y="452.45489230769226" type="line"/>
      <point x="113.21704615384616" y="452.45489230769226" type="line"/>
    </contour>
  </outline>
</glyph>
<glyph name="g" format="2">
  <advance width="1269.6000000000001"/>
  <unicode hex="0067"/>
  <anchor x="632.7384615384616" y="-546.0" name="bottom"/>
  <anchor x="588.3384615384615" y="1660.0" name="top"/>
  <outline>
    <contour>
      <point x="603.0153846153846" y="-504.0" type="curve" smooth="yes"/>
      <point x="912.4" y="-505.1384615384615"/>
      <point x="1193.1384615384616" y="-366.0"/>
      <point x="1193.1384615384616" y="-97.56923076923076" type="curve" smooth="yes"/>
      <point x="1193.1384615384616" y="58.70769230769233"/>
      <point x="1105.7846153846153" y="207.32307692307694"/>
      <point x="760.6461538461539" y="207.32307692307694" type="curve" smooth="yes"/>
      <point x="559.5076923076923" y="207.32307692307694" type="line" smooth="yes"/>
      <point x="459.53846153846155" y="207.32307692307694"/>
      <point x="423.53846153846155" y="227.04615384615386"/>
      <point x="423.53846153846155" y="293.10769230769233" type="curve" smooth="yes"/>
      <point x="423.53846153846155" y="336.0"/>
      <point x="455.1692307692308" y="384.15384615384613"/>
      <point x="508.8615384615385" y="404.8615384615385" type="curve"/>
      <point x="336.83076923076925" y="436.3076923076923" type="line"/>
      <point x="202.67692307692306" y="379.44615384615383"/>
      <point x="160.58461538461538" y="283.4769230769231"/>
      <point x="159.44615384615383" y="205.47692307692307" type="curve" smooth="yes"/>
      <point x="158.3076923076923" y="124.95384615384614"/>
      <point x="197.96923076923076" y="70.58461538461538"/>
      <point x="297.96923076923076" y="42.830769230769235" type="curve" smooth="yes"/>
      <point x="325.3538461538462" y="36.830769230769235"/>
      <point x="326.83076923076925" y="29.38461538461539"/>
      <point x="353.0769230769231" y="23.10769230769231" type="curve" smooth="yes"/>
      <point x="389.96923076923076" y="14.52307692307693"/>
      <point x="425.2" y="5.692307692307695"/>
      <point x="477.29230769230765" y="5.692307692307695" type="curve" smooth="yes"/>
      <point x="662.4307692307692" y="5.692307692307695" type="line" smooth="yes"/>
      <point x="862.5230769230769" y="5.692307692307695"/>
      <point x="900.276923076923" y="-61.44615384615384"/>
      <point x="900.276923076923" y="-161.23076923076923" type="curve" smooth="yes"/>
      <point x="900.276923076923" y="-276.6461538461538"/>
      <point x="775.0461538461539" y="-326.95384615384614"/>
      <point x="617.8461538461538" y="-326.95384615384614" type="curve" smooth="yes"/>
      <point x="430.70769230769235" y="-326.95384615384614"/>
      <point x="375.78461538461545" y="-233.87692307692305"/>
      <point x="375.78461538461545" y="-120.09230769230768" type="curve" smooth="yes"/>
      <point x="375.78461538461545" y="-17.753846153846148"/>
      <point x="437.81538461538463" y="24.215384615384625"/>
      <point x="471.84615384615387" y="53.10769230769231" type="curve"/>
      <point x="297.6615384615385" y="69.41538461538462" type="line"/>
      <point x="173.8153846153846" y="32.0"/>
      <point x="82.61538461538461" y="-52.0"/>
      <point x="82.61538461538461" y="-170.3076923076923" type="curve" smooth="yes"/>
      <point x="82.61538461538461" y="-383.2"/>
      <point x="252.09230769230768" y="-501.7230769230769"/>
    </contour>
    <contour>
      <point x="587.4769230769231" y="376.5846153846154" type="curve" smooth="yes"/>
      <point x="896.3076923076924" y="376.5846153846154"/>
      <point x="1070.0923076923077" y="511.2923076923077"/>
      <point x="1070.0923076923077" y="754.5846153846154" type="curve" smooth="yes"/>
      <point x="1070.0923076923077" y="1001.6307692307693"/>
      <point x="874.7692307692308" y="1130.5846153846153"/>
      <point x="589.2" y="1128.0" type="curve" smooth="yes"/>
      <point x="304.03076923076924" y="1126.2769230769231"/>
      <point x="116.3076923076923" y="995.7538461538461"/>
      <point x="116.3076923076923" y="746.0" type="curve" smooth="yes"/>
      <point x="116.3076923076923" y="514.7692307692307"/>
      <point x="309.7230769230769" y="376.5846153846154"/>
    </contour>
    <contour>
      <point x="591.2" y="548.2153846153847" type="curve" smooth="yes"/>
      <point x="459.53846153846155" y="548.2153846153847"/>
      <point x="410.61538461538464" y="640.4"/>
      <point x="410.61538461538464" y="752.1538461538462" type="curve" smooth="yes"/>
      <point x="410.61538461538464" y="903.9692307692308"/>
      <point x="485.6" y="945.2615384615384"/>
      <point x="598.2153846153847" y="945.2615384615384" type="curve" smooth="yes"/>
      <point x="724.0" y="945.2615384615384"/>
      <point x="786.0307692307692" y="878.2153846153847"/>
      <point x="786.0307692307692" y="749.2923076923076" type="curve" smooth="yes"/>
      <point x="786.0307692307692" y="589.1076923076923"/>
      <point x="708.276923076923" y="548.2153846153847"/>
    </contour>
    <contour>
      <point x="938.5538461538462" y="896.7384615384615" type="line"/>
      <point x="1244.7384615384615" y="896.7384615384615" type="line"/>
      <point x="1244.7384615384615" y="1117.0153846153846" type="line"/>
      <point x="1114.523076923077" y="1117.0153846153846" type="line" smooth="yes"/>
      <point x="1004.8307692307692" y="1117.0153846153846"/>
      <point x="917.0769230769231" y="1058.6153846153845"/>
      <point x="890.9230769230769" y="1023.3230769230769" type="curve"/>
    </contour>
  </outline>
</glyph>
<glyph name="h" format="2">
  <advance width="647.0923076923077"/>
  <unicode hex="0068"/>
  <anchor x="324.1180923076923" y="0.0" name="bottom"/>
  <anchor x="329.2918153846154" y="-83.0" name="btm"/>
  <anchor x="324.1180923076923" y="492.0" name="center"/>
  <anchor x="152.27052307692307" y="869.0" name="top"/>
  <outline>
    <contour>
      <point x="76.58603076923076" y="0.0" type="line"/>
      <point x="229.15526153846156" y="0.0" type="line"/>
      <point x="229.15526153846156" y="400.7174153846154" type="line"/>
      <point x="263.0665230769231" y="430.0724307692308"/>
      <point x="308.7770461538462" y="442.1356307692308"/>
      <point x="337.11858461538463" y="442.4897230769231" type="curve" smooth="yes"/>
      <point x="399.3723076923077" y="444.6291076923077"/>
      <point x="422.21895384615385" y="415.70295384615383"/>
      <point x="422.21895384615385" y="328.1183384615384" type="curve" smooth="yes"/>
      <point x="422.21895384615385" y="0.0" type="line"/>
      <point x="575.4340923076924" y="0.0" type="line"/>
      <point x="575.4340923076924" y="345.3048615384615" type="line" smooth="yes"/>
      <point x="575.4340923076923" y="500.2589538461539"/>
      <point x="521.099876923077" y="568.1533538461539"/>
      <point x="399.9465230769231" y="565.0766769230769" type="curve" smooth="yes"/>
      <point x="326.4972923076923" y="563.6459076923077"/>
      <point x="253.0033230769231" y="526.5697230769231"/>
      <point x="215.72498461538464" y="494.4934769230769" type="curve"/>
      <point x="221.0028307692308" y="480.27833846153845" type="line"/>
      <point x="229.15526153846156" y="594.8248615384616" type="line"/>
      <point x="229.15526153846156" y="812.3540923076923" type="line"/>
      <point x="76.58603076923076" y="812.3540923076923" type="line"/>
    </contour>
  </outline>
</glyph>
<glyph name="k" format="2">
  <advance width="1203.3846153846155"/>
  <unicode hex="006B"/>
  <anchor x="598.6461538461539" y="0.0" name="bottom"/>
  <anchor x="626.6461538461539" y="-166.0" name="btm"/>
  <anchor x="755.2615384615385" y="1660.0" name="top"/>
  <outline>
    <contour>
      <point x="1175.8461538461538" y="1114.0" type="line"/>
      <point x="825.0153846153846" y="1114.0" type="line"/>
      <point x="392.76923076923083" y="613.5384615384615" type="line"/>
      <point x="439.9384615384616" y="568.7076923076924" type="line"/>
      <point x="452.4923076923077" y="907.2" type="line"/>
      <point x="452.4923076923077" y="1622.0" type="line"/>
      <point x="153.35384615384615" y="1622.0" type="line"/>
      <point x="153.35384615384615" y="662.0" type="line"/>
      <point x="153.35384615384615" y="0.0" type="line"/>
      <point x="452.4923076923077" y="0.0" type="line"/>
      <point x="452.4923076923077" y="197.78461538461536" type="line"/>
      <point x="448.4923076923077" y="390.9230769230769" type="line"/>
      <point x="434.1846153846154" y="325.53846153846155" type="line"/>
    </contour>
    <contour>
      <point x="551.4153846153846" y="501.3230769230769" type="line"/>
      <point x="869.6307692307693" y="0.0" type="line"/>
      <point x="1211.323076923077" y="0.0" type="line"/>
      <point x="752.9538461538461" y="708.2461538461539" type="line"/>
    </contour>
  </outline>
</glyph>
<glyph name="l" format="2">
  <advance width="306.81538461538463"/>
  <unicode hex="006C"/>
  <anchor x="153.69230769230768" y="0.0" name="bottom"/>
  <anchor x="147.96923076923076" y="-83.0" name="btm"/>
  <anchor x="153.69230769230768" y="492.0" name="center"/>
  <anchor x="153.55384615384617" y="893.6615384615385" name="top"/>
  <anchor x="293.9384615384615" y="983.0" name="topright"/>
  <outline>
    <contour>
      <point x="76.9076923076923" y="0.0" type="line"/>
      <point x="229.90769230769232" y="0.0" type="line"/>
      <point x="229.90769230769232" y="812.4307692307692" type="line"/>
      <point x="76.9076923076923" y="812.4307692307692" type="line"/>
    </contour>
  </outline>
</glyph>
<glyph name="m" format="2">
  <advance width="1963.0461538461539"/>
  <unicode hex="006D"/>
  <anchor x="983.6615384615385" y="0.0" name="bottom"/>
  <anchor x="988.8307692307692" y="-166.0" name="btm"/>
  <anchor x="986.6769230769231" y="1660.0" name="top"/>
  <outline>
    <contour>
      <point x="156.06153846153845" y="0.0" type="line"/>
      <point x="460.0615384615385" y="0.0" type="line"/>
      <point x="460.0615384615385" y="801.5692307692308" type="line"/>
      <point x="525.5692307692308" y="856.8923076923077"/>
      <point x="616.9230769230769" y="884.3384615384615"/>
      <point x="676.2461538461539" y="885.1999999999999" type="curve" smooth="yes"/>
      <point x="805.6615384615385" y="889.3538461538461"/>
      <point x="839.6615384615385" y="826.8615384615384"/>
      <point x="839.6615384615385" y="656.2461538461538" type="curve" smooth="yes"/>
      <point x="839.6615384615385" y="0.0" type="line"/>
      <point x="1143.6615384615384" y="0.0" type="line"/>
      <point x="1143.6615384615384" y="700.9846153846154" type="line" smooth="yes"/>
      <point x="1143.6615384615384" y="1023.5692307692308"/>
      <point x="1038.2769230769231" y="1136.4307692307693"/>
      <point x="808.9538461538461" y="1130.0" type="curve" smooth="yes"/>
      <point x="663.8153846153847" y="1127.1384615384616"/>
      <point x="516.6461538461539" y="1053.4153846153847"/>
      <point x="438.0615384615385" y="994.0" type="curve"/>
      <point x="433.0769230769231" y="1113.1384615384616" type="line"/>
      <point x="156.06153846153845" y="1113.1384615384616" type="line"/>
    </contour>
    <contour>
      <point x="1130.523076923077" y="796.5846153846154" type="line"/>
      <point x="1185.9076923076923" y="841.3538461538461"/>
      <point x="1273.4153846153847" y="884.3384615384615"/>
      <point x="1350.2769230769231" y="885.1999999999999" type="curve" smooth="yes"/>
      <point x="1481.6923076923076" y="889.3538461538461"/>
      <point x="1513.9692307692308" y="828.0"/>
      <point x="1513.9692307692308" y="657.3846153846154" type="curve" smooth="yes"/>
      <point x="1513.9692307692308" y="0.0" type="line"/>
      <point x="1819.5384615384617" y="0.0" type="line"/>
      <point x="1819.5384615384617" y="700.276923076923" type="line" smooth="yes"/>
      <point x="1819.5384615384617" y="1026.2769230769231"/>
      <point x="1699.323076923077" y="1132.8615384615384"/>
      <point x="1469.2923076923078" y="1130.0" type="curve" smooth="yes"/>
      <point x="1295.3538461538462" y="1129.8461538461538"/>
      <point x="1138.4615384615386" y="1041.1692307692308"/>
      <point x="1075.2615384615385" y="985.8461538461538" type="curve"/>
    </contour>
  </outline>
</glyph>
<glyph name="n" format="2">
  <advance width="645.8957255384615"/>
  <unicode hex="006E"/>
  <anchor x="323.9787076923077" y="0.0" name="bottom"/>
  <anchor x="321.6265230769231" y="-83.0" name="btm"/>
  <anchor x="329.99267692307694" y="830.0" name="top"/>
  <outline>
    <contour>
      <point x="77.9540923076923" y="0.0" type="line"/>
      <point x="229.95409230769232" y="0.0" type="line"/>
      <point x="229.95409230769232" y="400.7174153846154" type="line"/>
      <point x="262.7273230769231" y="428.3647384615384"/>
      <point x="307.4374153846154" y="442.4897230769231"/>
      <point x="337.5633230769231" y="442.9204923076923" type="curve" smooth="yes"/>
      <point x="403.4480615384615" y="445.90652307692307"/>
      <point x="421.09396923076923" y="414.2108923076923"/>
      <point x="421.09396923076923" y="328.1183384615384" type="curve" smooth="yes"/>
      <point x="421.09396923076923" y="0.0" type="line"/>
      <point x="574.0172923076923" y="0.0" type="line"/>
      <point x="574.0172923076923" y="349.4302769230769" type="line" smooth="yes"/>
      <point x="574.0172923076923" y="510.7225846153846"/>
      <point x="520.990276923077" y="567.5841230769231"/>
      <point x="405.1278153846154" y="565.0766769230769" type="curve" smooth="yes"/>
      <point x="331.3723076923077" y="563.6459076923077"/>
      <point x="256.6632" y="526.1384615384616"/>
      <point x="218.95409230769232" y="494.15384615384613" type="curve"/>
      <point x="216.44756923076923" y="556.6459076923077" type="line"/>
      <point x="77.9540923076923" y="556.6459076923077" type="line"/>
    </contour>
  </outline>
</glyph>
<glyph name="o" format="2">
  <advance width="613.8478627692308"/>
  <unicode hex="006F"/>
  <anchor x="307.2087384615385" y="0.0" name="bottom"/>
  <anchor x="300.7933538461538" y="-83.0" name="btm"/>
  <anchor x="307.2087384615385" y="279.0" name="center"/>
  <anchor x="359.81538461538463" y="0.0" name="ogonek"/>
  <anchor x="310.9936" y="830.0" name="top"/>
  <anchor x="428.5230769230769" y="527.0" name="topright"/>
  <outline>
    <contour>
      <point x="302.2087384615385" y="-8.0" type="curve" smooth="yes"/>
      <point x="460.3728" y="-8.0"/>
      <point x="574.2473230769231" y="88.0"/>
      <point x="576.6780923076923" y="267.0" type="curve" smooth="yes"/>
      <point x="579.2473230769231" y="426.1384615384615"/>
      <point x="507.6019076923077" y="564.0"/>
      <point x="312.2087384615385" y="564.0" type="curve" smooth="yes"/>
      <point x="154.39833846153846" y="564.0"/>
      <point x="39.815630769230765" y="468.4307692307692"/>
      <point x="37.16972307692307" y="290.0" type="curve" smooth="yes"/>
      <point x="35.16972307692307" y="130.43076923076924"/>
      <point x="106.89181538461538" y="-8.0"/>
    </contour>
    <contour>
      <point x="305.7779692307692" y="98.34295384615385" type="curve" smooth="yes"/>
      <point x="225.6646153846154" y="99.12781538461539"/>
      <point x="194.8918153846154" y="183.6241230769231"/>
      <point x="194.8918153846154" y="285.9242461538461" type="curve" smooth="yes"/>
      <point x="194.8918153846154" y="397.0232"/>
      <point x="228.51218461538463" y="458.0878153846154"/>
      <point x="309.2087384615385" y="457.3029538461538" type="curve" smooth="yes"/>
      <point x="389.1832" y="456.8721846153846"/>
      <point x="419.31052307692306" y="374.5152615384615"/>
      <point x="419.31052307692306" y="273.5065230769231" type="curve" smooth="yes"/>
      <point x="419.31052307692306" y="159.25513846153845"/>
      <point x="385.6897230769231" y="97.55809230769232"/>
    </contour>
  </outline>
</glyph>
<glyph name="p" format="2">
  <advance width="648.5073513846154"/>
  <unicode hex="0070"/>
  <anchor x="324.2537230769231" y="0.0" name="bottom"/>
  <anchor x="354.7988307692308" y="-83.0" name="btm"/>
  <anchor x="381.0780923076923" y="830.0" name="top"/>
  <outline>
    <contour>
      <point x="79.36898461538462" y="-247.0" type="line"/>
      <point x="231.9382153846154" y="-247.0" type="line"/>
      <point x="231.9382153846154" y="-68.0" type="line"/>
      <point x="230.2923076923077" y="21.83267692307692" type="line"/>
      <point x="231.9382153846154" y="60.73280000000001" type="line"/>
      <point x="231.9382153846154" y="477.0" type="line"/>
      <point x="221.9382153846154" y="489.0" type="line"/>
      <point x="221.9382153846154" y="557.0" type="line"/>
      <point x="79.36898461538462" y="557.0" type="line"/>
    </contour>
    <contour>
      <point x="322.0148923076923" y="-8.0" type="curve" smooth="yes"/>
      <point x="492.1533538461539" y="-8.0"/>
      <point x="604.7365538461538" y="113.49396923076922"/>
      <point x="604.7365538461538" y="299.0" type="curve" smooth="yes"/>
      <point x="604.7365538461538" y="479.0"/>
      <point x="502.01396923076925" y="564.0"/>
      <point x="383.44473846153846" y="564.0" type="curve" smooth="yes"/>
      <point x="283.6598769230769" y="564.0"/>
      <point x="236.36898461538465" y="516.2908923076923"/>
      <point x="213.36898461538465" y="491.6449846153846" type="curve"/>
      <point x="231.9382153846154" y="414.19101538461535" type="line"/>
      <point x="253.01538461538462" y="430.56"/>
      <point x="292.0158769230769" y="449.31741538461534"/>
      <point x="334.85089230769233" y="449.31741538461534" type="curve" smooth="yes"/>
      <point x="404.22818461538463" y="449.31741538461534"/>
      <point x="446.15384615384613" y="404.6014153846154"/>
      <point x="445.7230769230769" y="286.5065230769231" type="curve" smooth="yes"/>
      <point x="444.3689846153846" y="163.76166153846154"/>
      <point x="391.10270769230766" y="97.2672"/>
      <point x="317.55858461538463" y="97.2672" type="curve" smooth="yes"/>
      <point x="279.2459076923077" y="97.2672"/>
      <point x="248.8769230769231" y="103.5446153846154"/>
      <point x="231.9382153846154" y="119.26769230769231" type="curve"/>
      <point x="197.0897230769231" y="22.584615384615383" type="line"/>
      <point x="209.44424615384617" y="12.723076923076922"/>
      <point x="254.7988307692308" y="-8.0"/>
    </contour>
  </outline>
</glyph>
<glyph name="q" format="2">
  <advance width="1295.7230769230769"/>
  <unicode hex="0071"/>
  <anchor x="648.4307692307692" y="0.0" name="bottom"/>
  <anchor x="580.1538461538462" y="-166.0" name="btm"/>
  <anchor x="571.9384615384615" y="1661.1384615384616" name="top"/>
  <outline>
    <contour>
      <point x="834.0" y="-136.0" type="line"/>
      <point x="834.0" y="-494.0" type="line"/>
      <point x="1138.0" y="-494.0" type="line"/>
      <point x="1138.0" y="1114.0" type="line"/>
      <point x="873.3846153846154" y="1073.7230769230769" type="line"/>
      <point x="856.0" y="978.0" type="line"/>
      <point x="834.0" y="954.0" type="line"/>
      <point x="834.0" y="193.72307692307692" type="line"/>
      <point x="838.0" y="106.0" type="line"/>
    </contour>
    <contour>
      <point x="529.0153846153846" y="-16.0" type="curve" smooth="yes"/>
      <point x="728.7384615384615" y="-16.0"/>
      <point x="825.1384615384616" y="80.73846153846154"/>
      <point x="871.1384615384616" y="130.73846153846154" type="curve"/>
      <point x="834.0" y="283.44615384615383" type="line"/>
      <point x="792.5538461538462" y="252.00000000000003"/>
      <point x="711.8153846153846" y="216.0923076923077"/>
      <point x="627.1692307692308" y="216.0923076923077" type="curve" smooth="yes"/>
      <point x="488.61538461538464" y="216.0923076923077"/>
      <point x="403.41538461538465" y="308.1846153846154"/>
      <point x="406.27692307692314" y="539.4461538461538" type="curve" smooth="yes"/>
      <point x="407.13846153846157" y="788.4"/>
      <point x="515.6615384615385" y="913.7538461538461"/>
      <point x="660.6153846153846" y="913.7538461538461" type="curve" smooth="yes"/>
      <point x="738.5230769230769" y="913.7538461538461"/>
      <point x="798.8307692307692" y="904.0307692307692"/>
      <point x="834.0" y="875.7230769230769" type="curve"/>
      <point x="953.7846153846154" y="1062.0" type="line"/>
      <point x="909.2923076923076" y="1089.6923076923076"/>
      <point x="787.2923076923076" y="1128.0"/>
      <point x="652.0" y="1128.0" type="curve" smooth="yes"/>
      <point x="313.2923076923077" y="1128.0"/>
      <point x="87.44615384615385" y="888.2461538461539"/>
      <point x="87.44615384615385" y="517.5692307692308" type="curve" smooth="yes"/>
      <point x="87.44615384615385" y="156.7076923076923"/>
      <point x="293.87692307692305" y="-16.0"/>
    </contour>
  </outline>
</glyph>
<glyph name="r" format="2">
  <advance width="876.5846153846154"/>
  <unicode hex="0072"/>
  <anchor x="296.46153846153845" y="0.0" name="bottom"/>
  <anchor x="294.73846153846154" y="-166.0" name="btm"/>
  <anchor x="503.04615384615386" y="1661.1384615384616" name="top"/>
  <outline>
    <contour>
      <point x="430.33846153846156" y="725.7846153846153" type="line"/>
      <point x="470.6461538461539" y="771.7846153846153"/>
      <point x="552.9538461538461" y="847.4461538461538"/>
      <point x="697.446153846154" y="847.4461538461538" type="curve" smooth="yes"/>
      <point x="774.9230769230769" y="847.4461538461538"/>
      <point x="808.9230769230769" y="831.4461538461538"/>
      <point x="827.7846153846154" y="820.3076923076923" type="curve"/>
      <point x="827.7846153846154" y="1117.1384615384616" type="line"/>
      <point x="812.0615384615385" y="1126.0"/>
      <point x="775.2" y="1130.0"/>
      <point x="735.446153846154" y="1130.0" type="curve" smooth="yes"/>
      <point x="588.0615384615385" y="1130.0"/>
      <point x="452.03076923076924" y="1036.553846153846"/>
      <point x="416.33846153846156" y="940.4" type="curve"/>
    </contour>
    <contour>
      <point x="142.8923076923077" y="0.0" type="line"/>
      <point x="448.03076923076924" y="0.0" type="line"/>
      <point x="448.03076923076924" y="886.0" type="line"/>
      <point x="424.33846153846156" y="939.2615384615384" type="line"/>
      <point x="407.20000000000005" y="1113.1384615384616" type="line"/>
      <point x="142.8923076923077" y="1113.1384615384616" type="line"/>
    </contour>
  </outline>
</glyph>
<glyph name="s" format="2">
  <advance width="499.9230769230769"/>
  <unicode hex="0073"/>
  <anchor x="248.6769230769231" y="0.0" name="bottom"/>
  <anchor x="253.3846153846154" y="-83.0" name="btm"/>
  <anchor x="256.3846153846154" y="830.0" name="top"/>
  <outline>
    <contour>
      <point x="46.87692307692308" y="35.276923076923076" type="line"/>
      <point x="76.15384615384615" y="15.846153846153847"/>
      <point x="156.7076923076923" y="-8.0"/>
      <point x="242.24615384615385" y="-8.0" type="curve" smooth="yes"/>
      <point x="376.4923076923077" y="-8.0"/>
      <point x="462.1692307692308" y="50.41538461538462"/>
      <point x="462.1692307692308" y="161.24615384615385" type="curve" smooth="yes"/>
      <point x="462.1692307692308" y="250.96923076923076"/>
      <point x="398.6769230769231" y="292.67692307692306"/>
      <point x="279.1692307692308" y="341.53846153846155" type="curve" smooth="yes"/>
      <point x="224.90769230769232" y="363.96923076923076"/>
      <point x="192.8769230769231" y="376.2769230769231"/>
      <point x="193.30769230769232" y="414.46153846153845" type="curve" smooth="yes"/>
      <point x="193.73846153846156" y="443.7692307692308"/>
      <point x="221.90769230769232" y="460.2153846153846"/>
      <point x="286.4923076923077" y="460.2153846153846" type="curve" smooth="yes"/>
      <point x="339.2" y="460.2153846153846"/>
      <point x="395.75384615384615" y="439.0923076923077"/>
      <point x="414.8923076923077" y="422.38461538461536" type="curve"/>
      <point x="431.32307692307694" y="532.1538461538462" type="line"/>
      <point x="409.7692307692308" y="544.4307692307692"/>
      <point x="349.3538461538462" y="564.0"/>
      <point x="267.4" y="564.0" type="curve" smooth="yes"/>
      <point x="146.43076923076924" y="564.0"/>
      <point x="48.46153846153845" y="512.5846153846154"/>
      <point x="47.599999999999994" y="408.46153846153845" type="curve" smooth="yes"/>
      <point x="46.599999999999994" y="320.87692307692305"/>
      <point x="97.64615384615384" y="269.32307692307694"/>
      <point x="205.86153846153846" y="226.6153846153846" type="curve" smooth="yes"/>
      <point x="266.6" y="202.30769230769232"/>
      <point x="313.32307692307694" y="183.2923076923077"/>
      <point x="313.32307692307694" y="148.26153846153846" type="curve" smooth="yes"/>
      <point x="313.32307692307694" y="114.66153846153847"/>
      <point x="285.5846153846154" y="96.92307692307693"/>
      <point x="225.0" y="97.92307692307693" type="curve" smooth="yes"/>
      <point x="152.86153846153846" y="98.35384615384616"/>
      <point x="79.58461538461538" y="130.33846153846156"/>
      <point x="64.01538461538462" y="143.04615384615386" type="curve"/>
    </contour>
  </outline>
</glyph>
<glyph name="t" format="2">
  <advance width="444.0615384615385"/>
  <unicode hex="0074"/>
  <anchor x="216.4" y="0.0" name="bottom"/>
  <anchor x="242.27692307692308" y="-83.0" name="btm"/>
  <anchor x="216.4" y="279.0" name="center"/>
  <anchor x="201.23076923076923" y="913.0" name="top"/>
  <anchor x="415.5076923076923" y="557.0" name="topright"/>
  <outline>
    <contour>
      <point x="246.6923076923077" y="-8.0" type="curve" smooth="yes"/>
      <point x="318.6461538461539" y="-8.0"/>
      <point x="391.4769230769231" y="19.984615384615388"/>
      <point x="419.2" y="44.69230769230769" type="curve"/>
      <point x="399.0615384615385" y="130.04615384615386" type="line"/>
      <point x="381.63076923076926" y="119.04615384615386"/>
      <point x="338.61538461538464" y="108.04615384615386"/>
      <point x="312.32307692307694" y="108.04615384615386" type="curve" smooth="yes"/>
      <point x="262.03076923076924" y="108.04615384615386"/>
      <point x="249.1846153846154" y="117.04615384615386"/>
      <point x="249.1846153846154" y="222.76923076923077" type="curve" smooth="yes"/>
      <point x="249.1846153846154" y="452.6461538461538" type="line"/>
      <point x="398.3538461538462" y="452.6461538461538" type="line"/>
      <point x="398.3538461538462" y="557.0" type="line"/>
      <point x="249.1846153846154" y="557.0" type="line"/>
      <point x="249.1846153846154" y="684.0" type="line"/>
      <point x="156.84615384615384" y="684.0" type="line"/>
      <point x="143.41538461538462" y="647.4"/>
      <point x="130.13846153846154" y="609.5538461538462"/>
      <point x="120.43076923076923" y="586.9846153846154" type="curve" smooth="yes"/>
      <point x="106.72307692307692" y="555.5538461538462"/>
      <point x="78.16923076923077" y="548.0"/>
      <point x="29.169230769230765" y="534.0" type="curve"/>
      <point x="29.169230769230765" y="452.6461538461538" type="line"/>
      <point x="96.61538461538461" y="452.6461538461538" type="line"/>
      <point x="96.61538461538461" y="158.35384615384618" type="line" smooth="yes"/>
      <point x="96.61538461538461" y="39.07692307692309"/>
      <point x="144.35384615384615" y="-8.0"/>
    </contour>
  </outline>
</glyph>
<glyph name="u" format="2">
  <advance width="630.7692307692308"/>
  <unicode hex="0075"/>
  <anchor x="312.6615384615385" y="0.0" name="bottom"/>
  <anchor x="302.8" y="-83.0" name="btm"/>
  <anchor x="570.4769230769231" y="10.0" name="ogonek"/>
  <anchor x="315.0923076923077" y="830.0" name="top"/>
  <anchor x="501.4153846153846" y="557.0" name="topright"/>
  <outline>
    <contour>
      <point x="245.98461538461538" y="-8.0" type="curve" smooth="yes"/>
      <point x="302.5692307692308" y="-8.0"/>
      <point x="376.0" y="17.153846153846153"/>
      <point x="417.5846153846154" y="48.29230769230769" type="curve"/>
      <point x="414.44615384615383" y="62.89230769230769" type="line"/>
      <point x="414.44615384615383" y="26.169230769230765" type="line" smooth="yes"/>
      <point x="414.44615384615383" y="-3.4307692307692306"/>
      <point x="428.89230769230767" y="-8.0"/>
      <point x="455.33846153846156" y="-8.0" type="curve" smooth="yes"/>
      <point x="552.7384615384616" y="-8.0" type="line"/>
      <point x="552.7384615384616" y="557.0" type="line"/>
      <point x="400.16923076923075" y="557.0" type="line"/>
      <point x="400.16923076923075" y="137.66153846153847" type="line"/>
      <point x="382.4307692307692" y="124.50769230769231"/>
      <point x="339.95384615384614" y="106.4923076923077"/>
      <point x="303.5076923076923" y="106.4923076923077" type="curve" smooth="yes"/>
      <point x="244.8923076923077" y="106.4923076923077"/>
      <point x="218.73846153846156" y="123.33846153846156"/>
      <point x="218.73846153846156" y="228.01538461538462" type="curve" smooth="yes"/>
      <point x="218.73846153846156" y="557.0" type="line"/>
      <point x="66.73846153846154" y="557.0" type="line"/>
      <point x="66.73846153846154" y="229.86153846153846" type="line" smooth="yes"/>
      <point x="66.73846153846154" y="90.27692307692308"/>
      <point x="90.73846153846154" y="-8.0"/>
    </contour>
  </outline>
</glyph>
<glyph name="v" format="2">
  <advance width="1140.9846153846154"/>
  <unicode hex="0076"/>
  <anchor x="570.9230769230769" y="0.0" name="bottom"/>
  <anchor x="570.9230769230769" y="1114.0" name="top"/>
  <outline>
    <contour>
      <point x="432.0923076923077" y="-16.0" type="line"/>
      <point x="714.7692307692308" y="-16.0" type="line"/>
      <point x="1136.646153846154" y="1114.0" type="line"/>
      <point x="814.8" y="1114.0" type="line"/>
      <point x="648.3692307692307" y="570.7076923076924" type="line"/>
      <point x="549.3538461538461" y="170.52307692307696" type="line"/>
      <point x="611.6307692307693" y="170.52307692307696" type="line"/>
      <point x="504.1846153846154" y="570.7076923076924" type="line"/>
      <point x="331.323076923077" y="1114.0" type="line"/>
      <point x="4.33846153846153" y="1114.0" type="line"/>
    </contour>
  </outline>
</glyph>
<glyph name="w" format="2">
  <advance width="1680.8923076923077"/>
  <unicode hex="0077"/>
  <anchor x="841.4461538461538" y="0.0" name="bottom"/>
  <anchor x="845.4461538461538" y="-163.84615384615384" name="btm"/>
  <anchor x="845.4461538461538" y="1665.0153846153846" name="top"/>
  <outline>
    <contour>
      <point x="344.0615384615385" y="-16.0" type="line"/>
      <point x="624.6769230769231" y="-16.0" type="line"/>
      <point x="796.1846153846154" y="599.1999999999999" type="line"/>
      <point x="866.3076923076924" y="931.0769230769231" type="line"/>
      <point x="811.4769230769231" y="931.0769230769231" type="line"/>
      <point x="878.7384615384616" y="599.1999999999999" type="line"/>
      <point x="1055.3846153846155" y="-16.0" type="line"/>
      <point x="1326.1538461538462" y="-16.0" type="line"/>
      <point x="1673.4153846153847" y="1114.0" type="line"/>
      <point x="1385.2307692307693" y="1114.0" type="line"/>
      <point x="1253.3846153846155" y="576.9846153846154" type="line"/>
      <point x="1165.8461538461538" y="163.6615384615385" type="line"/>
      <point x="1231.8153846153846" y="163.6615384615385" type="line"/>
      <point x="1141.7230769230769" y="580.0" type="line"/>
      <point x="988.6153846153846" y="1114.0" type="line"/>
      <point x="706.8307692307692" y="1114.0" type="line"/>
      <point x="553.723076923077" y="579.1384615384616" type="line"/>
      <point x="459.5076923076923" y="160.8" type="line"/>
      <point x="529.4769230769231" y="160.8" type="line"/>
      <point x="439.9384615384615" y="580.0" type="line"/>
      <point x="307.3538461538462" y="1114.0" type="line"/>
      <point x="7.476923076923072" y="1114.0" type="line"/>
    </contour>
  </outline>
</glyph>
<glyph name="x" format="2">
  <advance width="575.3076923076924"/>
  <unicode hex="0078"/>
  <anchor x="284.9384615384615" y="0.0" name="bottom"/>
  <anchor x="291.3692307692308" y="-83.0" name="btm"/>
  <anchor x="291.3692307692308" y="830.0" name="top"/>
  <outline>
    <contour>
      <point x="7.0153846153846136" y="0.0" type="line"/>
      <point x="177.72307692307695" y="0.0" type="line"/>
      <point x="269.6461538461539" y="157.93846153846152" type="line"/>
      <point x="302.0769230769231" y="223.79999999999998" type="line"/>
      <point x="259.0769230769231" y="223.79999999999998" type="line"/>
      <point x="297.8" y="158.36923076923077" type="line"/>
      <point x="398.7230769230769" y="0.0" type="line"/>
      <point x="568.723076923077" y="0.0" type="line"/>
      <point x="356.0" y="304.1384615384615" type="line"/>
      <point x="356.0" y="265.4307692307692" type="line"/>
      <point x="564.723076923077" y="557.0" type="line"/>
      <point x="397.7230769230769" y="557.0" type="line"/>
      <point x="305.2" y="408.46153846153845" type="line"/>
      <point x="271.6461538461539" y="342.4923076923077" type="line"/>
      <point x="310.2153846153846" y="342.4923076923077" type="line"/>
      <point x="271.0923076923077" y="408.03076923076924" type="line"/>
      <point x="175.1538461538462" y="557.0" type="line"/>
      <point x="7.1538461538461515" y="557.0" type="line"/>
      <point x="213.73846153846154" y="262.7230769230769" type="line"/>
      <point x="211.03076923076924" y="295.7230769230769" type="line"/>
    </contour>
  </outline>
</glyph>
<glyph name="y" format="2">
  <advance width="573.2"/>
  <unicode hex="0079"/>
  <anchor x="496.723076923077" y="0.0" name="bottom"/>
  <anchor x="299.9846153846154" y="830.0" name="top"/>
  <outline>
    <contour>
      <point x="63.30769230769231" y="-238.86153846153846" type="line"/>
      <point x="69.3076923076923" y="-242.86153846153846"/>
      <point x="120.53846153846155" y="-248.0"/>
      <point x="135.53846153846155" y="-248.0" type="curve" smooth="yes"/>
      <point x="158.5076923076923" y="-248.0"/>
      <point x="194.04615384615386" y="-242.86153846153846"/>
      <point x="214.30769230769232" y="-235.01538461538462" type="curve" smooth="yes"/>
      <point x="285.73846153846154" y="-211.6"/>
      <point x="350.0153846153846" y="-148.15384615384616"/>
      <point x="392.3076923076923" y="-14.723076923076922" type="curve" smooth="yes"/>
      <point x="571.6153846153846" y="557.0" type="line"/>
      <point x="410.04615384615386" y="557.0" type="line"/>
      <point x="332.10769230769233" y="234.70769230769233" type="line"/>
      <point x="291.67692307692306" y="63.33846153846155" type="line"/>
      <point x="312.5692307692308" y="63.33846153846155" type="line"/>
      <point x="267.2769230769231" y="234.70769230769233" type="line"/>
      <point x="171.76923076923077" y="557.0" type="line"/>
      <point x="9.630769230769221" y="557.0" type="line"/>
      <point x="204.64615384615382" y="0.0" type="line"/>
      <point x="270.2923076923077" y="0.0" type="line"/>
      <point x="263.2923076923077" y="14.0" type="line"/>
      <point x="237.7076923076923" y="-114.06153846153845"/>
      <point x="166.83076923076925" y="-127.95384615384614"/>
      <point x="119.13846153846154" y="-127.95384615384614" type="curve" smooth="yes"/>
      <point x="104.72307692307692" y="-127.95384615384614"/>
      <point x="74.3076923076923" y="-123.24615384615383"/>
      <point x="63.30769230769231" y="-119.24615384615383" type="curve"/>
    </contour>
  </outline>
</glyph>
<glyph name="z" format="2">
  <advance width="524.9538461538461"/>
  <unicode hex="007A"/>
  <anchor x="258.26153846153846" y="0.0" name="bottom"/>
  <anchor x="258.83076923076925" y="-83.0" name="btm"/>
  <anchor x="258.26153846153846" y="279.0" name="center"/>
  <anchor x="266.95384615384614" y="830.0" name="top"/>
  <outline>
    <contour>
      <point x="43.599999999999994" y="0.0" type="line"/>
      <point x="486.0769230769231" y="0.0" type="line"/>
      <point x="486.0769230769231" y="108.04615384615386" type="line"/>
      <point x="227.9846153846154" y="108.04615384615386" type="line"/>
      <point x="258.69230769230774" y="151.32307692307694" type="line"/>
      <point x="500.63076923076926" y="510.0" type="line"/>
      <point x="483.0615384615385" y="557.0" type="line"/>
      <point x="59.43076923076923" y="557.0" type="line"/>
      <point x="58.86153846153846" y="449.9384615384615" type="line"/>
      <point x="297.24615384615385" y="449.9384615384615" type="line"/>
      <point x="268.24615384615385" y="406.66153846153844" type="line"/>
      <point x="22.599999999999994" y="40.56923076923077" type="line"/>
    </contour>
  </outline>
</glyph>
<glyph name="braceleft" format="2">
  <advance width="968.8307692307692"/>
  <unicode hex="007B"/>
  <outline>
    <contour>
      <point x="323.44615384615383" y="58.0" type="line"/>
      <point x="323.44615384615383" y="-134.0"/>
      <point x="387.6615384615385" y="-206.52307692307693"/>
      <point x="537.6615384615385" y="-206.52307692307693" type="curve" smooth="yes"/>
      <point x="645.6615384615385" y="-206.52307692307693"/>
      <point x="755.5692307692308" y="-195.66153846153847"/>
      <point x="839.5692307692308" y="-172.52307692307693" type="curve"/>
      <point x="839.5692307692308" y="-25.78461538461538" type="line"/>
      <point x="589.8153846153847" y="-25.78461538461538" type="line"/>
      <point x="589.8153846153847" y="543.4769230769231" type="line" smooth="yes"/>
      <point x="589.8153846153847" y="584.3076923076923"/>
      <point x="576.0923076923077" y="616.8615384615384"/>
      <point x="550.9538461538461" y="642.8615384615384" type="curve" smooth="yes"/>
      <point x="502.0923076923077" y="699.1384615384616"/>
      <point x="398.9846153846154" y="741.1384615384616"/>
      <point x="316.9846153846154" y="768.8615384615384" type="curve"/>
      <point x="316.9846153846154" y="747.1384615384616" type="line"/>
      <point x="398.9846153846154" y="776.5846153846154"/>
      <point x="504.3692307692308" y="817.4153846153846"/>
      <point x="551.2307692307693" y="871.1076923076923" type="curve" smooth="yes"/>
      <point x="574.9538461538461" y="898.2461538461539"/>
      <point x="589.8153846153847" y="930.5230769230769"/>
      <point x="589.8153846153847" y="973.0769230769231" type="curve" smooth="yes"/>
      <point x="589.8153846153847" y="1530.3692307692309" type="line"/>
      <point x="839.5692307692308" y="1530.3692307692309" type="line"/>
      <point x="839.5692307692308" y="1689.1076923076923" type="line"/>
      <point x="755.5692307692308" y="1700.246153846154"/>
      <point x="645.6615384615385" y="1713.1076923076923"/>
      <point x="537.6615384615385" y="1713.1076923076923" type="curve" smooth="yes"/>
      <point x="387.6615384615385" y="1713.1076923076923"/>
      <point x="323.44615384615383" y="1644.0"/>
      <point x="323.44615384615383" y="1452.0" type="curve" smooth="yes"/>
      <point x="323.44615384615383" y="977.6307692307693" type="line" smooth="yes"/>
      <point x="323.44615384615383" y="903.9692307692308"/>
      <point x="171.16923076923075" y="856.8"/>
      <point x="73.16923076923077" y="846.8" type="curve"/>
      <point x="73.16923076923077" y="671.2" type="line"/>
      <point x="171.16923076923075" y="661.2"/>
      <point x="323.44615384615383" y="604.0307692307692"/>
      <point x="323.44615384615383" y="532.3692307692307" type="curve" smooth="yes"/>
    </contour>
  </outline>
</glyph>
<glyph name="bar" format="2">
  <advance width="419.65982953846157"/>
  <unicode hex="007C"/>
  <outline>
    <contour>
      <point x="147.4187076923077" y="-91.35409230769231" type="line"/>
      <point x="272.24116923076923" y="-91.35409230769231" type="line"/>
      <point x="272.24116923076923" y="869.0" type="line"/>
      <point x="147.4187076923077" y="869.0" type="line"/>
    </contour>
  </outline>
</glyph>
<glyph name="asciitilde" format="2">
  <advance width="704.6598295384615"/>
  <unicode hex="007E"/>
  <outline>
    <contour>
      <point x="162.79883076923076" y="332.77895384615385" type="line"/>
      <point x="184.58412307692308" y="357.47409230769233"/>
      <point x="210.95218461538462" y="385.27243076923077"/>
      <point x="257.5214153846154" y="385.27243076923077" type="curve" smooth="yes"/>
      <point x="332.6111384615385" y="385.27243076923077"/>
      <point x="345.4785846153846" y="306.4248615384615"/>
      <point x="444.5687384615385" y="306.4248615384615" type="curve" smooth="yes"/>
      <point x="530.9841230769231" y="306.4248615384615"/>
      <point x="592.8721846153846" y="366.5753846153846"/>
      <point x="606.3661538461539" y="410.8542153846154" type="curve"/>
      <point x="548.9995076923077" y="478.52473846153845" type="line"/>
      <point x="527.5060307692307" y="453.8296"/>
      <point x="498.99858461538463" y="426.1079384615385"/>
      <point x="451.78344615384617" y="426.1079384615385" type="curve" smooth="yes"/>
      <point x="381.7694769230769" y="426.1079384615385"/>
      <point x="360.3048615384616" y="504.3096"/>
      <point x="260.5692307692308" y="504.3096" type="curve" smooth="yes"/>
      <point x="175.16873846153845" y="504.3096"/>
      <point x="110.7872" y="431.7427076923077"/>
      <point x="97.93963076923076" y="393.74178461538463" type="curve"/>
    </contour>
  </outline>
</glyph>
<glyph name="cent" format="2">
  <advance width="1165.1076923076923"/>
  <unicode hex="00A2"/>
  <anchor x="541.6923076923077" y="0.0" name="bottom"/>
  <anchor x="615.6615384615385" y="-166.0" name="btm"/>
  <anchor x="645.1384615384616" y="1661.1384615384616" name="top"/>
  <outline>
    <contour>
      <point x="580.0615384615385" y="1042.0" type="line"/>
      <point x="749.1384615384616" y="1042.0" type="line"/>
      <point x="755.1384615384616" y="1344.0" type="line"/>
      <point x="588.0615384615385" y="1344.0" type="line"/>
    </contour>
    <contour>
      <point x="549.2" y="-210.0" type="line"/>
      <point x="717.4153846153846" y="-210.0" type="line"/>
      <point x="723.4153846153846" y="90.0" type="line"/>
      <point x="555.2" y="90.0" type="line"/>
    </contour>
    <component base="c" xOffset="52.58461538461538"/>
  </outline>
</glyph>
<glyph name="sterling" format="2">
  <advance width="773.0232473846154"/>
  <unicode hex="00A3"/>
  <outline>
    <contour>
      <point x="57.897292307692304" y="52.901538461538465" type="curve" smooth="yes"/>
      <point x="57.897292307692304" y="13.138953846153845"/>
      <point x="96.91027692307692" y="-2.9372923076923083"/>
      <point x="126.3536" y="-2.9372923076923083" type="curve" smooth="yes"/>
      <point x="165.3536" y="-2.9372923076923083"/>
      <point x="208.5678153846154" y="22.277415384615384"/>
      <point x="228.5678153846154" y="43.21563076923077" type="curve"/>
      <point x="282.6859076923077" y="45.063199999999995"/>
      <point x="352.9046153846154" y="-8.784861538461538"/>
      <point x="495.05655384615386" y="-8.784861538461538" type="curve" smooth="yes"/>
      <point x="647.0049846153846" y="-8.784861538461538"/>
      <point x="719.7902769230769" y="58.255138461538465"/>
      <point x="719.7902769230769" y="166.3950153846154" type="curve" smooth="yes"/>
      <point x="719.7902769230769" y="241.74129230769233"/>
      <point x="671.8688615384616" y="282.31643076923075"/>
      <point x="649.9306461538462" y="295.3926769230769" type="curve"/>
      <point x="542.2629538461539" y="242.72116923076925" type="line"/>
      <point x="556.6937230769231" y="234.98461538461538"/>
      <point x="576.4497230769231" y="205.99858461538463"/>
      <point x="576.4497230769231" y="172.64356923076923" type="curve" smooth="yes"/>
      <point x="576.4497230769231" y="126.65704615384617"/>
      <point x="544.8674461538461" y="92.40615384615386"/>
      <point x="465.4" y="92.40615384615386" type="curve" smooth="yes"/>
      <point x="397.5779692307692" y="92.40615384615386"/>
      <point x="363.7801230769231" y="111.65655384615386"/>
      <point x="312.6537230769231" y="122.30203076923078" type="curve"/>
      <point x="345.99384615384616" y="153.5524307692308"/>
      <point x="357.8489846153846" y="212.62744615384617"/>
      <point x="357.49489230769234" y="304.8123076923077" type="curve" smooth="yes"/>
      <point x="357.14036923076924" y="479.77821538461535" type="line" smooth="yes"/>
      <point x="356.7862769230769" y="613.5758769230769"/>
      <point x="407.8937230769231" y="631.7974153846154"/>
      <point x="466.5720615384615" y="631.7974153846154" type="curve" smooth="yes"/>
      <point x="517.5306461538462" y="631.7974153846154"/>
      <point x="555.883323076923" y="608.8601230769231"/>
      <point x="577.9465230769231" y="590.0265230769231" type="curve"/>
      <point x="641.0970461538461" y="701.9382153846154" type="line"/>
      <point x="608.0691076923077" y="725.1538461538462"/>
      <point x="552.1034461538462" y="751.0"/>
      <point x="463.1342153846154" y="751.0" type="curve" smooth="yes"/>
      <point x="294.8042461538462" y="751.0"/>
      <point x="203.1264" y="649.1876923076923"/>
      <point x="203.1264" y="504.11101538461537" type="curve" smooth="yes"/>
      <point x="203.1264" y="254.21987692307692" type="line" smooth="yes"/>
      <point x="203.1264" y="216.54104615384617"/>
      <point x="200.48049230769232" y="160.67335384615384"/>
      <point x="187.1891076923077" y="142.25513846153848" type="curve"/>
      <point x="116.13796923076923" y="138.97729230769232"/>
      <point x="57.897292307692304" y="105.34486153846154"/>
    </contour>
    <contour>
      <point x="116.98744615384615" y="348.76024615384614" type="line"/>
      <point x="510.53206153846156" y="348.76024615384614" type="line"/>
      <point x="510.53206153846156" y="438.0632" type="line"/>
      <point x="116.98744615384615" y="438.0632" type="line"/>
    </contour>
  </outline>
</glyph>
<glyph name="currency" format="2">
  <advance width="756.8588024615385"/>
  <unicode hex="00A4"/>
  <outline>
    <contour>
      <point x="377.55384615384617" y="155.7718153846154" type="curve" smooth="yes"/>
      <point x="498.7689846153846" y="155.7718153846154"/>
      <point x="598.4139692307692" y="252.7091076923077"/>
      <point x="598.4139692307692" y="377.0" type="curve" smooth="yes"/>
      <point x="598.4139692307692" y="501.6449846153846"/>
      <point x="498.7689846153846" y="599.2281846153846"/>
      <point x="377.55384615384617" y="599.2281846153846" type="curve" smooth="yes"/>
      <point x="256.6928" y="599.2281846153846"/>
      <point x="157.90886153846154" y="501.6449846153846"/>
      <point x="157.90886153846154" y="377.0" type="curve"/>
      <point x="157.90886153846154" y="252.7091076923077"/>
      <point x="257.26203076923076" y="155.7718153846154"/>
    </contour>
    <contour>
      <point x="378.55384615384617" y="262.88566153846153" type="curve" smooth="yes"/>
      <point x="316.50412307692307" y="262.88566153846153"/>
      <point x="267.65513846153846" y="315.38012307692304"/>
      <point x="267.65513846153846" y="377.0" type="curve" smooth="yes"/>
      <point x="267.65513846153846" y="439.6198769230769"/>
      <point x="316.50412307692307" y="491.5451076923077"/>
      <point x="378.55384615384617" y="491.5451076923077" type="curve" smooth="yes"/>
      <point x="440.81870769230767" y="491.5451076923077"/>
      <point x="488.09846153846155" y="439.6198769230769"/>
      <point x="488.09846153846155" y="377.0" type="curve" smooth="yes"/>
      <point x="488.09846153846155" y="315.38012307692304"/>
      <point x="440.81870769230767" y="262.88566153846153"/>
    </contour>
    <contour>
      <point x="208.33963076923078" y="491.2774153846154" type="line"/>
      <point x="276.49113846153847" y="562.1510153846154" type="line"/>
      <point x="169.78203076923077" y="672.0752615384615" type="line"/>
      <point x="101.63052307692308" y="599.8475692307692" type="line"/>
    </contour>
    <contour>
      <point x="548.9832" y="489.0627076923077" type="line"/>
      <point x="661.9832" y="603.3540923076923" type="line"/>
      <point x="593.1857846153846" y="676.0743384615384" type="line"/>
      <point x="479.61655384615386" y="561.935876923077" type="line"/>
    </contour>
    <contour>
      <point x="169.8587076923077" y="82.49396923076922" type="line"/>
      <point x="277.4148923076923" y="191.4182153846154" type="line"/>
      <point x="207.7704" y="262.5692307692308" type="line"/>
      <point x="101.06129230769231" y="153.6449846153846" type="line"/>
    </contour>
    <contour>
      <point x="586.9711384615384" y="82.63335384615384" type="line"/>
      <point x="655.6923076923077" y="153.86104615384616" type="line"/>
      <point x="547.8447384615384" y="264.49255384615384" type="line"/>
      <point x="479.0473230769231" y="192.69563076923077" type="line"/>
    </contour>
  </outline>
</glyph>
<glyph name="yen" format="2">
  <advance width="1525.6307692307691"/>
  <unicode hex="00A5"/>
  <outline>
    <contour>
      <point x="619.9384615384615" y="0.0" type="line"/>
      <point x="907.8461538461538" y="0.0" type="line"/>
      <point x="907.8461538461538" y="827.2" type="line"/>
      <point x="848.0307692307692" y="614.5538461538462" type="line"/>
      <point x="1401.1076923076923" y="1486.0" type="line"/>
      <point x="1078.9846153846154" y="1486.0" type="line"/>
      <point x="837.6307692307693" y="1071.569230769231" type="line"/>
      <point x="739.9692307692308" y="851.5384615384615" type="line"/>
      <point x="749.5692307692308" y="851.5384615384615"/>
      <point x="794.4615384615385" y="851.5384615384615"/>
      <point x="804.0615384615385" y="851.5384615384615" type="curve"/>
      <point x="702.2461538461539" y="1070.5538461538463" type="line"/>
      <point x="467.47692307692313" y="1486.0" type="line"/>
      <point x="140.2153846153846" y="1486.0" type="line"/>
      <point x="697.4153846153846" y="603.5384615384615" type="line"/>
      <point x="619.9384615384615" y="827.2" type="line"/>
    </contour>
    <contour>
      <point x="263.16923076923075" y="636.7692307692307" type="line"/>
      <point x="1249.446153846154" y="636.7692307692307" type="line"/>
      <point x="1249.446153846154" y="817.7846153846153" type="line"/>
      <point x="263.16923076923075" y="817.7846153846153" type="line"/>
    </contour>
    <contour>
      <point x="263.16923076923075" y="261.5076923076923" type="line"/>
      <point x="1249.446153846154" y="261.5076923076923" type="line"/>
      <point x="1249.446153846154" y="441.3846153846154" type="line"/>
      <point x="263.16923076923075" y="441.3846153846154" type="line"/>
    </contour>
  </outline>
</glyph>
<glyph name="brokenbar" format="2">
  <advance width="839.4153846153846"/>
  <unicode hex="00A6"/>
  <outline>
    <contour>
      <point x="294.6461538461538" y="941.3846153846154" type="line"/>
      <point x="544.3384615384615" y="941.3846153846154" type="line"/>
      <point x="544.3384615384615" y="1738.0" type="line"/>
      <point x="294.6461538461538" y="1738.0" type="line"/>
    </contour>
    <contour>
      <point x="294.6461538461538" y="-182.0" type="line"/>
      <point x="544.3384615384615" y="-182.0" type="line"/>
      <point x="544.3384615384615" y="603.7846153846153" type="line"/>
      <point x="294.6461538461538" y="603.7846153846153" type="line"/>
    </contour>
  </outline>
</glyph>
<glyph name="section" format="2">
  <advance width="1355.6307692307691"/>
  <unicode hex="00A7"/>
  <outline>
    <contour>
      <point x="230.12307692307692" y="1296.1538461538462" type="curve" smooth="yes"/>
      <point x="230.12307692307692" y="875.1692307692308"/>
      <point x="921.2923076923076" y="916.6153846153846"/>
      <point x="921.2923076923076" y="613.1076923076923" type="curve" smooth="yes"/>
      <point x="921.2923076923076" y="531.1076923076923"/>
      <point x="848.2153846153847" y="396.0"/>
      <point x="809.0769230769231" y="344.0" type="curve"/>
      <point x="925.876923076923" y="292.83076923076925" type="line"/>
      <point x="1067.2" y="382.24615384615385"/>
      <point x="1172.8307692307692" y="509.3846153846154"/>
      <point x="1172.8307692307692" y="669.323076923077" type="curve" smooth="yes"/>
      <point x="1172.8307692307692" y="1081.6"/>
      <point x="512.0" y="1087.7230769230769"/>
      <point x="512.0" y="1297.5076923076922" type="curve" smooth="yes"/>
      <point x="512.0" y="1386.0"/>
      <point x="603.6615384615385" y="1416.4615384615383"/>
      <point x="710.7384615384616" y="1417.323076923077" type="curve" smooth="yes"/>
      <point x="876.7692307692308" y="1418.4615384615383"/>
      <point x="969.5076923076923" y="1369.9076923076923"/>
      <point x="1011.6615384615385" y="1339.9076923076923" type="curve"/>
      <point x="1057.3538461538462" y="1562.0" type="line"/>
      <point x="999.0769230769231" y="1596.0"/>
      <point x="878.8" y="1634.0"/>
      <point x="692.5230769230769" y="1634.0" type="curve" smooth="yes"/>
      <point x="473.16923076923075" y="1634.0"/>
      <point x="230.12307692307692" y="1543.2"/>
    </contour>
    <contour>
      <point x="1134.0615384615385" y="163.93846153846155" type="curve" smooth="yes"/>
      <point x="1134.0615384615385" y="589.5692307692308"/>
      <point x="444.46153846153845" y="512.5846153846154"/>
      <point x="444.46153846153845" y="798.5230769230769" type="curve" smooth="yes"/>
      <point x="444.46153846153845" y="880.5230769230769"/>
      <point x="518.6769230769231" y="984.0"/>
      <point x="557.1076923076923" y="1036.0" type="curve"/>
      <point x="428.1846153846154" y="1094.0" type="line"/>
      <point x="290.8615384615385" y="1012.0"/>
      <point x="187.5076923076923" y="889.1384615384616"/>
      <point x="187.5076923076923" y="740.8923076923077" type="curve" smooth="yes"/>
      <point x="187.5076923076923" y="330.9230769230769"/>
      <point x="852.6153846153845" y="350.36923076923074"/>
      <point x="852.6153846153845" y="155.90769230769232" type="curve" smooth="yes"/>
      <point x="852.6153846153845" y="63.69230769230772"/>
      <point x="753.5076923076923" y="30.953846153846186"/>
      <point x="636.9846153846154" y="29.815384615384644" type="curve" smooth="yes"/>
      <point x="467.81538461538463" y="28.953846153846186"/>
      <point x="341.3538461538462" y="87.23076923076925"/>
      <point x="291.2" y="125.23076923076925" type="curve"/>
      <point x="245.5076923076923" y="-98.0" type="line"/>
      <point x="306.6461538461539" y="-140.0"/>
      <point x="469.7846153846154" y="-188.0"/>
      <point x="654.0615384615385" y="-188.0" type="curve" smooth="yes"/>
      <point x="881.723076923077" y="-188.0"/>
      <point x="1134.0615384615385" y="-93.19999999999999"/>
    </contour>
  </outline>
</glyph>
<glyph name="dieresis" format="2">
  <advance width="473.0273513846154"/>
  <unicode hex="00A8"/>
  <anchor x="236.05206153846154" y="830.6459076923077" name="_top"/>
  <outline>
    <contour>
      <point x="111.76166153846154" y="640.6705230769231" type="curve" smooth="yes"/>
      <point x="161.35741538461542" y="640.6705230769231"/>
      <point x="201.57206153846155" y="680.1895999999999"/>
      <point x="201.57206153846155" y="730.5566769230769" type="curve" smooth="yes"/>
      <point x="201.57206153846155" y="777.2908923076923"/>
      <point x="173.42104615384616" y="811.8736"/>
      <point x="121.3318153846154" y="811.8736" type="curve" smooth="yes"/>
      <point x="73.08972307692308" y="811.8736"/>
      <point x="29.952184615384617" y="771.2151384615385"/>
      <point x="29.952184615384617" y="722.2025846153846" type="curve" smooth="yes"/>
      <point x="29.952184615384617" y="673.9748923076922"/>
      <point x="63.73563076923077" y="640.6705230769231"/>
    </contour>
    <contour>
      <point x="352.6956307692308" y="640.6705230769231" type="curve" smooth="yes"/>
      <point x="402.8610461538462" y="640.6705230769231"/>
      <point x="442.99858461538463" y="680.1895999999999"/>
      <point x="442.99858461538463" y="730.5566769230769" type="curve" smooth="yes"/>
      <point x="442.99858461538463" y="777.2908923076923"/>
      <point x="414.3550153846154" y="811.8736"/>
      <point x="362.7583384615385" y="811.8736" type="curve" smooth="yes"/>
      <point x="313.6696" y="811.8736"/>
      <point x="271.4553846153846" y="771.2151384615385"/>
      <point x="271.4553846153846" y="722.2025846153846" type="curve" smooth="yes"/>
      <point x="271.4553846153846" y="673.9748923076922"/>
      <point x="305.2388307692308" y="640.6705230769231"/>
    </contour>
  </outline>
</glyph>
<glyph name="copyright" format="2">
  <advance width="2055.7846153846153"/>
  <unicode hex="00A9"/>
  <outline>
    <contour>
      <point x="177.3230769230769" y="940.0" type="curve" smooth="yes"/>
      <point x="177.3230769230769" y="464.0"/>
      <point x="552.4615384615385" y="81.13846153846154"/>
      <point x="1027.323076923077" y="81.13846153846154" type="curve" smooth="yes"/>
      <point x="1502.4615384615386" y="81.13846153846154"/>
      <point x="1878.4615384615386" y="464.0"/>
      <point x="1878.4615384615386" y="940.0" type="curve" smooth="yes"/>
      <point x="1878.4615384615386" y="1416.0"/>
      <point x="1502.4615384615386" y="1794.8615384615384"/>
      <point x="1027.323076923077" y="1794.8615384615384" type="curve" smooth="yes"/>
      <point x="552.4615384615385" y="1794.8615384615384"/>
      <point x="177.3230769230769" y="1416.0"/>
    </contour>
    <contour>
      <point x="316.46153846153845" y="940.0" type="curve" smooth="yes"/>
      <point x="316.46153846153845" y="1344.0"/>
      <point x="618.4615384615385" y="1672.8615384615384"/>
      <point x="1027.323076923077" y="1672.8615384615384" type="curve" smooth="yes"/>
      <point x="1436.4615384615386" y="1672.8615384615384"/>
      <point x="1738.4615384615386" y="1344.0"/>
      <point x="1738.4615384615386" y="940.0" type="curve" smooth="yes"/>
      <point x="1738.4615384615386" y="536.0"/>
      <point x="1436.4615384615386" y="207.13846153846154"/>
      <point x="1027.323076923077" y="207.13846153846154" type="curve" smooth="yes"/>
      <point x="618.4615384615385" y="207.13846153846154"/>
      <point x="316.46153846153845" y="536.0"/>
    </contour>
    <contour>
      <point x="592.1846153846154" y="932.4307692307692" type="curve" smooth="yes"/>
      <point x="593.3230769230769" y="682.7384615384615"/>
      <point x="761.0153846153846" y="463.0153846153846"/>
      <point x="1029.446153846154" y="463.0153846153846" type="curve" smooth="yes"/>
      <point x="1159.446153846154" y="463.0153846153846"/>
      <point x="1279.446153846154" y="507.5692307692308"/>
      <point x="1340.7384615384615" y="560.4307692307692" type="curve"/>
      <point x="1296.7384615384615" y="711.4769230769231" type="line"/>
      <point x="1254.0" y="684.3384615384615"/>
      <point x="1173.2615384615385" y="650.7692307692307"/>
      <point x="1070.123076923077" y="650.7692307692307" type="curve" smooth="yes"/>
      <point x="922.5230769230769" y="650.7692307692307"/>
      <point x="815.9384615384615" y="745.9692307692308"/>
      <point x="817.0769230769231" y="961.1076923076923" type="curve" smooth="yes"/>
      <point x="818.2153846153847" y="1122.1538461538462"/>
      <point x="915.7846153846153" y="1235.076923076923"/>
      <point x="1071.5692307692307" y="1235.076923076923" type="curve" smooth="yes"/>
      <point x="1158.0307692307692" y="1235.076923076923"/>
      <point x="1238.7076923076922" y="1210.2153846153847"/>
      <point x="1283.876923076923" y="1178.923076923077" type="curve"/>
      <point x="1319.0153846153846" y="1365.8461538461538" type="line"/>
      <point x="1281.1692307692308" y="1386.553846153846"/>
      <point x="1191.7846153846153" y="1418.2769230769231"/>
      <point x="1076.1846153846154" y="1418.2769230769231" type="curve" smooth="yes"/>
      <point x="759.9076923076923" y="1418.2769230769231"/>
      <point x="592.1846153846154" y="1208.0"/>
    </contour>
  </outline>
</glyph>
<glyph name="ordfeminine" format="2">
  <advance width="1037.6307692307691"/>
  <unicode hex="00AA"/>
  <outline>
    <contour>
      <point x="408.46153846153845" y="653.1692307692308" type="curve" smooth="yes"/>
      <point x="523.6" y="653.1692307692308"/>
      <point x="628.0" y="706.8615384615384"/>
      <point x="665.876923076923" y="746.7384615384615" type="curve"/>
      <point x="696.7384615384615" y="807.876923076923" type="line"/>
      <point x="654.7384615384615" y="878.4" type="line"/>
      <point x="635.876923076923" y="863.3846153846154"/>
      <point x="569.9384615384615" y="830.4923076923077"/>
      <point x="488.8923076923077" y="830.4923076923077" type="curve" smooth="yes"/>
      <point x="420.4307692307693" y="830.4923076923077"/>
      <point x="364.12307692307695" y="868.3384615384615"/>
      <point x="364.12307692307695" y="934.8" type="curve" smooth="yes"/>
      <point x="364.12307692307695" y="986.8615384615384"/>
      <point x="381.723076923077" y="1026.9846153846154"/>
      <point x="436.3076923076923" y="1056.553846153846" type="curve" smooth="yes"/>
      <point x="496.0615384615385" y="1087.5692307692307"/>
      <point x="571.8461538461538" y="1090.553846153846"/>
      <point x="654.7384615384615" y="1090.553846153846" type="curve"/>
      <point x="696.7384615384615" y="1152.2769230769231" type="line"/>
      <point x="654.7384615384615" y="1228.2153846153847" type="line"/>
      <point x="539.9076923076923" y="1228.2153846153847"/>
      <point x="411.0153846153846" y="1213.9384615384615"/>
      <point x="301.84615384615387" y="1173.3538461538462" type="curve" smooth="yes"/>
      <point x="194.43076923076922" y="1132.2153846153847"/>
      <point x="115.6" y="1047.5384615384614"/>
      <point x="115.6" y="916.2461538461539" type="curve" smooth="yes"/>
      <point x="115.6" y="753.4153846153846"/>
      <point x="229.47692307692307" y="653.1692307692308"/>
    </contour>
    <contour>
      <point x="909.2615384615385" y="660.4615384615385" type="line"/>
      <point x="909.2615384615385" y="1140.2769230769231" type="line"/>
      <point x="909.2615384615385" y="1276.9846153846154" type="line" smooth="yes"/>
      <point x="909.2615384615385" y="1503.1076923076923"/>
      <point x="778.4" y="1579.2307692307693"/>
      <point x="530.9538461538461" y="1579.2307692307693" type="curve" smooth="yes"/>
      <point x="375.96923076923076" y="1579.2307692307693"/>
      <point x="176.73846153846154" y="1505.076923076923"/>
      <point x="140.73846153846154" y="1471.076923076923" type="curve"/>
      <point x="196.73846153846154" y="1319.753846153846" type="line"/>
      <point x="239.87692307692308" y="1350.8923076923077"/>
      <point x="393.6923076923077" y="1395.0461538461539"/>
      <point x="483.96923076923076" y="1395.0461538461539" type="curve" smooth="yes"/>
      <point x="604.8307692307692" y="1395.0461538461539"/>
      <point x="654.7384615384615" y="1376.923076923077"/>
      <point x="654.7384615384615" y="1273.2615384615385" type="curve" smooth="yes"/>
      <point x="654.7384615384615" y="796.7384615384615" type="line"/>
      <point x="665.876923076923" y="796.7384615384615" type="line"/>
      <point x="665.876923076923" y="733.6" type="line" smooth="yes"/>
      <point x="665.876923076923" y="654.8923076923077"/>
      <point x="707.876923076923" y="660.4615384615385"/>
      <point x="781.4461538461538" y="660.4615384615385" type="curve" smooth="yes"/>
    </contour>
  </outline>
</glyph>
<glyph name="guillemetleft" format="2">
  <advance width="1947.1076923076923"/>
  <unicode hex="00AB"/>
  <outline>
    <contour>
      <point x="225.47692307692307" y="478.8" type="line"/>
      <point x="845.723076923077" y="72.52307692307691" type="line"/>
      <point x="918.5230769230769" y="284.33846153846156" type="line"/>
      <point x="448.12307692307695" y="654.5230769230769" type="line"/>
      <point x="448.12307692307695" y="546.6153846153846" type="line"/>
      <point x="918.5230769230769" y="918.5230769230769" type="line"/>
      <point x="845.723076923077" y="1130.4923076923078" type="line"/>
      <point x="225.47692307692307" y="719.323076923077" type="line"/>
    </contour>
    <contour>
      <point x="991.1692307692308" y="478.8" type="line"/>
      <point x="1631.4153846153847" y="72.52307692307691" type="line"/>
      <point x="1704.2153846153847" y="284.33846153846156" type="line"/>
      <point x="1213.8153846153846" y="654.5230769230769" type="line"/>
      <point x="1213.8153846153846" y="546.6153846153846" type="line"/>
      <point x="1704.2153846153847" y="918.5230769230769" type="line"/>
      <point x="1631.4153846153847" y="1130.4923076923078" type="line"/>
      <point x="991.1692307692308" y="719.323076923077" type="line"/>
    </contour>
  </outline>
</glyph>
<glyph name="logicalnot" format="2">
  <advance width="1441.4153846153847"/>
  <unicode hex="00AC"/>
  <outline>
    <contour>
      <point x="236.7076923076923" y="621.4461538461538" type="line"/>
      <point x="965.4153846153846" y="621.4461538461538" type="line"/>
      <point x="965.4153846153846" y="302.3384615384615" type="line"/>
      <point x="1204.7076923076922" y="302.3384615384615" type="line"/>
      <point x="1204.7076923076922" y="832.0" type="line"/>
      <point x="236.7076923076923" y="832.0" type="line"/>
    </contour>
  </outline>
</glyph>
<glyph name="registered" format="2">
  <advance width="1027.8061538461538"/>
  <unicode hex="00AE"/>
  <outline>
    <contour>
      <point x="87.32664615384616" y="470.0" type="curve" smooth="yes"/>
      <point x="87.32664615384616" y="232.0"/>
      <point x="276.1876923076923" y="40.56923076923077"/>
      <point x="513.6184615384615" y="40.56923076923077" type="curve" smooth="yes"/>
      <point x="751.1876923076923" y="40.56923076923077"/>
      <point x="940.4795076923077" y="232.0"/>
      <point x="940.4795076923077" y="470.0" type="curve" smooth="yes"/>
      <point x="940.4795076923077" y="707.3540923076923"/>
      <point x="751.1876923076923" y="897.4307692307692"/>
      <point x="513.6184615384615" y="897.4307692307692" type="curve" smooth="yes"/>
      <point x="276.1876923076923" y="897.4307692307692"/>
      <point x="87.32664615384616" y="707.3540923076923"/>
    </contour>
    <contour>
      <point x="156.8958769230769" y="470.0" type="curve" smooth="yes"/>
      <point x="156.8958769230769" y="671.3540923076923"/>
      <point x="310.47950769230766" y="835.7848615384615"/>
      <point x="513.6184615384615" y="835.7848615384615" type="curve" smooth="yes"/>
      <point x="716.8958769230769" y="835.7848615384615"/>
      <point x="870.4795076923077" y="671.3540923076923"/>
      <point x="870.4795076923077" y="470.0" type="curve" smooth="yes"/>
      <point x="870.4795076923077" y="268.0"/>
      <point x="716.8958769230769" y="103.56923076923077"/>
      <point x="513.6184615384615" y="103.56923076923077" type="curve" smooth="yes"/>
      <point x="310.47950769230766" y="103.56923076923077"/>
      <point x="156.8958769230769" y="268.0"/>
    </contour>
    <contour>
      <point x="348.6816615384615" y="235.78436923076924" type="line"/>
      <point x="450.0757538461539" y="235.78436923076924" type="line"/>
      <point x="450.0757538461539" y="409.4028307692308" type="line"/>
      <point x="465.68024615384616" y="409.4028307692308"/>
      <point x="491.5412923076923" y="409.4028307692308"/>
      <point x="499.6662769230769" y="410.32615384615383" type="curve"/>
      <point x="545.2643692307693" y="393.31267692307694"/>
      <point x="564.3888615384615" y="328.76424615384616"/>
      <point x="584.173723076923" y="287.5625846153846" type="curve" smooth="yes"/>
      <point x="594.2364307692308" y="266.80566153846155"/>
      <point x="601.0073230769231" y="250.89538461538461"/>
      <point x="613.2089846153847" y="236.3536" type="curve"/>
      <point x="728.9711384615384" y="236.3536" type="line"/>
      <point x="707.0752615384615" y="266.1457846153846"/>
      <point x="699.3043692307692" y="278.28473846153844"/>
      <point x="689.9502769230769" y="295.05563076923073" type="curve" smooth="yes"/>
      <point x="664.2281846153846" y="339.93064615384617"/>
      <point x="646.935876923077" y="395.34104615384615"/>
      <point x="603.3256615384615" y="422.32615384615383" type="curve"/>
      <point x="673.6170461538461" y="442.8336"/>
      <point x="697.1723076923076" y="503.21513846153846"/>
      <point x="697.1723076923076" y="574.7076923076924" type="curve" smooth="yes"/>
      <point x="697.1723076923076" y="650.3675692307693"/>
      <point x="640.8814153846154" y="708.7843692307692"/>
      <point x="520.0487384615384" y="708.7843692307692" type="curve" smooth="yes"/>
      <point x="462.77821538461535" y="708.7843692307692"/>
      <point x="430.75643076923075" y="706.3536"/>
      <point x="392.2643692307692" y="706.3536" type="curve" smooth="yes"/>
      <point x="377.4033230769231" y="706.3536"/>
      <point x="363.5427076923077" y="706.3536"/>
      <point x="348.6816615384615" y="706.3536" type="curve"/>
    </contour>
    <contour>
      <point x="450.0757538461539" y="483.78344615384617" type="curve"/>
      <point x="450.0757538461539" y="629.173723076923" type="line"/>
      <point x="467.4302769230769" y="634.2504"/>
      <point x="481.35360000000003" y="634.173723076923"/>
      <point x="500.41587692307695" y="634.5278153846153" type="curve" smooth="yes"/>
      <point x="572.3474461538461" y="635.8819076923077"/>
      <point x="594.4859076923077" y="607.9720615384615"/>
      <point x="594.4859076923077" y="561.7704" type="curve" smooth="yes"/>
      <point x="594.4859076923077" y="505.7974153846154"/>
      <point x="565.5138461538461" y="481.1379692307692"/>
      <point x="509.7704" y="481.1379692307692" type="curve" smooth="yes"/>
      <point x="492.4785846153846" y="481.1379692307692"/>
      <point x="464.0757538461539" y="481.1379692307692"/>
    </contour>
  </outline>
</glyph>
<glyph name="macron" format="2">
  <advance width="679.1384615384616"/>
  <unicode hex="00AF"/>
  <anchor x="338.9230769230769" y="1661.1384615384616" name="_top"/>
  <outline>
    <contour>
      <point x="50.70769230769231" y="1380.1846153846154" type="line"/>
      <point x="628.4307692307692" y="1380.1846153846154" type="line"/>
      <point x="628.4307692307692" y="1583.753846153846" type="line"/>
      <point x="50.70769230769231" y="1583.753846153846" type="line"/>
    </contour>
  </outline>
</glyph>
<glyph name="degree" format="2">
  <advance width="464.9001704615385"/>
  <unicode hex="00B0"/>
  <outline>
    <contour>
      <point x="51.953599999999994" y="624.0" type="curve" smooth="yes"/>
      <point x="51.953599999999994" y="523.0780923076923"/>
      <point x="131.38295384615384" y="444.8643692307692"/>
      <point x="232.30436923076923" y="444.8643692307692" type="curve" smooth="yes"/>
      <point x="336.3782153846154" y="444.8643692307692"/>
      <point x="413.3010461538462" y="521.3555076923077"/>
      <point x="413.3010461538462" y="624.0" type="curve" smooth="yes"/>
      <point x="413.3010461538462" y="724.9219076923077"/>
      <point x="335.0864" y="802.5664"/>
      <point x="232.30436923076923" y="802.5664" type="curve" smooth="yes"/>
      <point x="129.66036923076922" y="802.5664"/>
      <point x="51.953599999999994" y="726.5678153846154"/>
    </contour>
    <contour>
      <point x="149.81538461538463" y="624.0" type="curve" smooth="yes"/>
      <point x="149.81538461538463" y="675.4307692307692"/>
      <point x="186.6769230769231" y="710.0153846153846"/>
      <point x="232.4" y="710.0153846153846" type="curve" smooth="yes"/>
      <point x="277.12307692307695" y="710.0153846153846"/>
      <point x="315.12307692307695" y="674.8615384615384"/>
      <point x="315.12307692307695" y="624.0" type="curve" smooth="yes"/>
      <point x="315.12307692307695" y="573.1384615384616"/>
      <point x="278.26153846153846" y="537.9846153846154"/>
      <point x="232.4" y="537.9846153846154" type="curve" smooth="yes"/>
      <point x="187.81538461538463" y="537.9846153846154"/>
      <point x="149.81538461538463" y="573.1384615384616"/>
    </contour>
  </outline>
</glyph>
<glyph name="plusminus" format="2">
  <advance width="682.6598295384615"/>
  <unicode hex="00B1"/>
  <outline>
    <contour>
      <point x="117.21655384615384" y="0.0" type="line"/>
      <point x="561.2291076923077" y="0.0" type="line"/>
      <point x="561.2291076923077" y="101.00972307692308" type="line"/>
      <point x="117.21655384615384" y="101.00972307692308" type="line"/>
    </contour>
    <component base="plus"/>
  </outline>
</glyph>
<glyph name="acute" format="2">
  <advance width="644.3692307692309"/>
  <unicode hex="00B4"/>
  <anchor x="180.98461538461538" y="1661.1384615384616" name="_top"/>
  <outline>
    <contour>
      <point x="188.33846153846156" y="1229.1076923076923" type="line"/>
      <point x="268.3076923076923" y="1265.5076923076922"/>
      <point x="521.323076923077" y="1478.430769230769"/>
      <point x="577.723076923077" y="1602.3076923076924" type="curve"/>
      <point x="372.73846153846154" y="1766.4923076923078" type="line"/>
      <point x="278.73846153846154" y="1620.8"/>
      <point x="141.07692307692307" y="1461.753846153846"/>
      <point x="41.599999999999994" y="1359.2615384615385" type="curve"/>
    </contour>
  </outline>
</glyph>
<glyph name="micro" format="2">
  <advance width="678.7770935384616"/>
  <unicode hex="00B5"/>
  <outline>
    <contour>
      <point x="84.77421538461537" y="-181.0" type="line"/>
      <point x="224.11526153846154" y="-181.0" type="line"/>
      <point x="206.11526153846154" y="79.0" type="line"/>
      <point x="181.36566153846155" y="74.0" type="line"/>
      <point x="207.42886153846155" y="11.0"/>
      <point x="251.02744615384614" y="-8.0"/>
      <point x="322.73655384615387" y="-8.0" type="curve" smooth="yes"/>
      <point x="393.73655384615387" y="-8.0"/>
      <point x="429.3969230769231" y="30.569723076923076"/>
      <point x="448.4601230769231" y="59.0" type="curve"/>
      <point x="450.3969230769231" y="10.506523076923077"/>
      <point x="481.6733538461539" y="-9.0"/>
      <point x="525.3318153846154" y="-9.0" type="curve" smooth="yes"/>
      <point x="594.9261538461539" y="-9.0"/>
      <point x="643.2170461538461" y="32.0"/>
      <point x="649.6478153846153" y="42.0" type="curve"/>
      <point x="634.6478153846153" y="114.53064615384616" type="line"/>
      <point x="616.6478153846153" y="103.96141538461539"/>
      <point x="600.7872" y="101.53064615384616"/>
      <point x="594.7872" y="101.53064615384616" type="curve" smooth="yes"/>
      <point x="583.7872" y="101.53064615384616"/>
      <point x="573.4958769230769" y="108.53064615384616"/>
      <point x="573.4958769230769" y="138.53064615384616" type="curve" smooth="yes"/>
      <point x="573.4958769230769" y="557.0" type="line"/>
      <point x="420.8504" y="557.0" type="line"/>
      <point x="420.8504" y="139.63716923076925" type="line"/>
      <point x="399.5720615384615" y="121.28307692307693"/>
      <point x="363.3076923076923" y="107.08000000000001"/>
      <point x="334.75052307692306" y="107.08000000000001" type="curve" smooth="yes"/>
      <point x="266.9628307692308" y="107.08000000000001"/>
      <point x="237.0660307692308" y="139.87833846153848"/>
      <point x="237.0660307692308" y="223.18603076923077" type="curve" smooth="yes"/>
      <point x="237.0660307692308" y="557.0" type="line"/>
      <point x="84.77421538461537" y="557.0" type="line"/>
    </contour>
  </outline>
</glyph>
<glyph name="paragraph" format="2">
  <advance width="721.5692307692308"/>
  <unicode hex="00B6"/>
  <outline>
    <contour>
      <point x="281.5692307692308" y="0.0" type="line"/>
      <point x="402.04615384615386" y="0.0" type="line"/>
      <point x="402.04615384615386" y="740.3384615384615" type="line"/>
      <point x="506.8" y="740.3384615384615" type="line"/>
      <point x="507.3692307692308" y="0.0" type="line"/>
      <point x="627.2769230769231" y="0.0" type="line"/>
      <point x="627.2769230769231" y="826.0" type="line"/>
      <point x="552.2" y="827.0"/>
      <point x="422.90769230769234" y="835.0"/>
      <point x="361.10769230769233" y="835.0" type="curve" smooth="yes"/>
      <point x="163.72307692307692" y="835.0"/>
      <point x="70.0" y="749.7076923076924"/>
      <point x="70.0" y="609.0" type="curve" smooth="yes"/>
      <point x="70.0" y="447.0"/>
      <point x="152.96923076923076" y="379.0"/>
      <point x="281.5692307692308" y="379.0" type="curve"/>
    </contour>
  </outline>
</glyph>
<glyph name="cedilla" format="2">
  <advance width="250.17914338461537"/>
  <unicode hex="00B8"/>
  <anchor x="153.7096" y="-83.0" name="_btm"/>
  <outline>
    <contour>
      <point x="17.34104615384615" y="-213.0" type="line"/>
      <point x="29.555753846153845" y="-221.0"/>
      <point x="74.30486153846154" y="-227.0"/>
      <point x="102.52" y="-227.0" type="curve" smooth="yes"/>
      <point x="167.74769230769232" y="-227.0"/>
      <point x="224.2542153846154" y="-190.92424615384616"/>
      <point x="227.53255384615386" y="-107.7091076923077" type="curve" smooth="yes"/>
      <point x="229.02603076923077" y="-60.430276923076924"/>
      <point x="219.45680000000002" y="-5.924246153846152"/>
      <point x="197.02603076923077" y="15.0" type="curve"/>
      <point x="172.95027692307693" y="17.0" type="line"/>
      <point x="109.25181538461538" y="15.0" type="line"/>
      <point x="118.32806153846153" y="-2.1389538461538447"/>
      <point x="127.11243076923077" y="-23.202584615384612"/>
      <point x="123.91076923076923" y="-65.34203076923076" type="curve" smooth="yes"/>
      <point x="122.12590769230769" y="-115.26627692307692"/>
      <point x="96.34104615384615" y="-138.34203076923077"/>
      <point x="64.91027692307692" y="-138.34203076923077" type="curve" smooth="yes"/>
      <point x="49.34104615384615" y="-138.34203076923077"/>
      <point x="35.77089230769231" y="-137.34203076923077"/>
      <point x="26.84756923076923" y="-132.2657846153846" type="curve"/>
    </contour>
  </outline>
</glyph>
<glyph name="ordmasculine" format="2">
  <advance width="1035.6307692307691"/>
  <unicode hex="00BA"/>
  <outline>
    <contour>
      <point x="80.79999999999998" y="1128.9846153846154" type="curve" smooth="yes"/>
      <point x="77.66153846153844" y="841.723076923077"/>
      <point x="232.33846153846153" y="653.6"/>
      <point x="511.53846153846155" y="653.6" type="curve" smooth="yes"/>
      <point x="727.9076923076923" y="653.6"/>
      <point x="942.4307692307692" y="781.723076923077"/>
      <point x="947.5692307692308" y="1108.9846153846154" type="curve" smooth="yes"/>
      <point x="951.5692307692308" y="1387.1076923076923"/>
      <point x="804.8923076923077" y="1581.5076923076924"/>
      <point x="534.2461538461539" y="1581.5076923076924" type="curve" smooth="yes"/>
      <point x="322.03076923076924" y="1581.5076923076924"/>
      <point x="85.66153846153844" y="1457.3846153846155"/>
    </contour>
    <contour>
      <point x="342.61538461538464" y="1128.9846153846154" type="curve" smooth="yes"/>
      <point x="342.61538461538464" y="1318.7692307692307"/>
      <point x="414.3692307692308" y="1390.3692307692309"/>
      <point x="522.6769230769231" y="1392.3692307692309" type="curve" smooth="yes"/>
      <point x="630.5846153846154" y="1394.3692307692309"/>
      <point x="686.6153846153846" y="1284.6153846153845"/>
      <point x="686.6153846153846" y="1106.9846153846154" type="curve" smooth="yes"/>
      <point x="686.6153846153846" y="919.4769230769231"/>
      <point x="630.5846153846154" y="843.6"/>
      <point x="522.6769230769231" y="841.6" type="curve" smooth="yes"/>
      <point x="405.5076923076923" y="839.6"/>
      <point x="342.61538461538464" y="954.0615384615385"/>
    </contour>
  </outline>
</glyph>
<glyph name="guillemetright" format="2">
  <advance width="980.7846153846153"/>
  <unicode hex="00BB"/>
  <outline>
    <contour>
      <point x="865.3384615384616" y="239.6153846153846" type="line"/>
      <point x="865.3384615384616" y="359.6615384615385" type="line"/>
      <point x="549.0923076923077" y="565.2461538461539" type="line"/>
      <point x="512.6923076923077" y="459.04615384615386" type="line"/>
      <point x="754.4461538461538" y="273.3076923076923" type="line"/>
      <point x="754.4461538461538" y="327.26153846153846" type="line"/>
      <point x="512.6923076923077" y="141.95384615384614" type="line"/>
      <point x="549.0923076923077" y="36.47692307692307" type="line"/>
    </contour>
    <contour>
      <point x="468.7076923076923" y="239.6153846153846" type="line"/>
      <point x="468.7076923076923" y="359.6615384615385" type="line"/>
      <point x="155.13846153846154" y="565.2461538461539" type="line"/>
      <point x="118.73846153846154" y="459.04615384615386" type="line"/>
      <point x="357.38461538461536" y="273.3076923076923" type="line"/>
      <point x="357.38461538461536" y="327.26153846153846" type="line"/>
      <point x="118.73846153846154" y="141.95384615384614" type="line"/>
      <point x="155.13846153846154" y="36.47692307692307" type="line"/>
    </contour>
  </outline>
</glyph>
<glyph name="questiondown" format="2">
  <advance width="539.3538461538461"/>
  <unicode hex="00BF"/>
  <outline>
    <contour>
      <point x="368.1493538461539" y="491.15575384615386" type="curve"/>
      <point x="252.02295384615385" y="491.15575384615386" type="line"/>
      <point x="263.0234461538462" y="449.44615384615383"/>
      <point x="273.6553846153846" y="421.4889846153846"/>
      <point x="270.51643076923074" y="386.2859076923077" type="curve" smooth="yes"/>
      <point x="263.85563076923074" y="259.3472"/>
      <point x="66.91126153846153" y="257.04166153846154"/>
      <point x="58.0568" y="81.17729230769228" type="curve" smooth="yes"/>
      <point x="46.41704615384616" y="-49.7718153846154"/>
      <point x="132.28116923076925" y="-155.9372923076923"/>
      <point x="341.5787076923077" y="-155.9372923076923" type="curve" smooth="yes"/>
      <point x="398.9742153846154" y="-155.9372923076923"/>
      <point x="461.21895384615385" y="-142.44473846153846"/>
      <point x="480.23193846153845" y="-129.58461538461538" type="curve"/>
      <point x="480.23193846153845" y="-18.73513846153844" type="line"/>
      <point x="462.8788307692308" y="-25.22719999999999"/>
      <point x="428.2780923076923" y="-36.57987692307691"/>
      <point x="375.9434461538462" y="-36.57987692307691" type="curve" smooth="yes"/>
      <point x="260.10012307692307" y="-36.57987692307691"/>
      <point x="207.30461538461543" y="11.802830769230773"/>
      <point x="218.63858461538464" y="94.29987692307691" type="curve" smooth="yes"/>
      <point x="224.30578461538465" y="203.87027692307691"/>
      <point x="409.27526153846156" y="226.44732307692306"/>
      <point x="407.21255384615387" y="363.2928" type="curve" smooth="yes"/>
      <point x="406.4276923076923" y="423.10603076923076"/>
      <point x="386.50436923076927" y="464.15575384615386"/>
    </contour>
    <contour>
      <point x="300.9704" y="755.0" type="curve" smooth="yes"/>
      <point x="248.95833846153846" y="755.0"/>
      <point x="205.66744615384616" y="710.4182153846153"/>
      <point x="206.37563076923078" y="657.6343384615384" type="curve" smooth="yes"/>
      <point x="206.8064" y="608.6227076923077"/>
      <point x="239.46486153846155" y="570.7625846153846"/>
      <point x="292.40116923076926" y="570.7625846153846" type="curve" smooth="yes"/>
      <point x="343.6279384615385" y="570.7625846153846"/>
      <point x="388.21064615384614" y="615.4066461538462"/>
      <point x="387.21064615384614" y="666.773723076923" type="curve" smooth="yes"/>
      <point x="386.7798769230769" y="717.2788307692308"/>
      <point x="349.4123076923077" y="755.0"/>
    </contour>
  </outline>
</glyph>
<glyph name="AE" format="2">
  <advance width="941.7251267692308"/>
  <unicode hex="00C6"/>
  <anchor x="470.90104615384615" y="0.0" name="bottom"/>
  <anchor x="683.8118153846154" y="-83.0" name="btm"/>
  <anchor x="509.2416615384615" y="830.0" name="top"/>
  <outline>
    <contour>
      <point x="-49.901538461538465" y="0.0" type="line"/>
      <point x="119.31267692307694" y="0.0" type="line"/>
      <point x="428.3751384615385" y="685.5846153846154" type="line"/>
      <point x="304.4918153846154" y="743.0" type="line"/>
    </contour>
    <contour>
      <point x="417.8118153846154" y="743.0" type="line"/>
      <point x="304.4918153846154" y="743.0" type="line"/>
      <point x="324.6148923076923" y="672.0" type="line"/>
      <point x="449.0627076923077" y="672.0" type="line"/>
    </contour>
    <contour>
      <point x="129.2118153846154" y="168.90910769230769" type="line"/>
      <point x="502.2033230769231" y="168.90910769230769" type="line"/>
      <point x="490.2118153846154" y="278.7306461538462" type="line"/>
      <point x="151.30203076923078" y="278.7306461538462" type="line"/>
    </contour>
    <contour>
      <point x="417.8118153846154" y="0.0" type="line"/>
      <point x="901.2811692307693" y="0.0" type="line"/>
      <point x="901.2811692307693" y="120.35643076923078" type="line"/>
      <point x="573.0265230769231" y="120.35643076923078" type="line"/>
      <point x="573.0265230769231" y="323.75975384615384" type="line"/>
      <point x="796.6125538461539" y="323.75975384615384" type="line"/>
      <point x="796.6125538461539" y="439.8866461538462" type="line"/>
      <point x="573.0265230769231" y="439.8866461538462" type="line"/>
      <point x="573.0265230769231" y="625.0120615384616" type="line"/>
      <point x="869.5720615384615" y="625.0120615384616" type="line"/>
      <point x="869.5720615384615" y="743.0" type="line"/>
      <point x="417.8118153846154" y="743.0" type="line"/>
    </contour>
  </outline>
</glyph>
<glyph name="multiply" format="2">
  <advance width="678.4905987692307"/>
  <unicode hex="00D7"/>
  <outline>
    <contour>
      <point x="88.21089230769229" y="199.75883076923077" type="line"/>
      <point x="169.11193846153844" y="120.21230769230768" type="line"/>
      <point x="339.1379692307692" y="300.6542153846154" type="line"/>
      <point x="509.7328" y="120.21230769230768" type="line"/>
      <point x="590.6338461538462" y="199.75883076923077" type="line"/>
      <point x="414.1292307692308" y="379.0" type="line"/>
      <point x="591.2797538461539" y="562.3318153846154" type="line"/>
      <point x="510.4553846153846" y="640.7876923076923" type="line"/>
      <point x="339.78344615384617" y="454.3457846153846" type="line"/>
      <point x="169.11193846153844" y="640.7876923076923" type="line"/>
      <point x="88.21089230769229" y="562.3318153846154" type="line"/>
      <point x="265.3614153846154" y="378.07667692307695" type="line"/>
    </contour>
  </outline>
</glyph>
<glyph name="Oslash" format="2">
  <advance width="776.6724781538461"/>
  <unicode hex="00D8"/>
  <anchor x="388.65895384615385" y="0.0" name="bottom"/>
  <anchor x="379.52049230769234" y="830.0" name="top"/>
  <outline>
    <contour>
      <point x="179.1244923076923" y="-107.79692307692308" type="line"/>
      <point x="661.5943384615385" y="855.5306461538462" type="line"/>
      <point x="600.1789538461538" y="870.5311384615385" type="line"/>
      <point x="117.63243076923077" y="-93.4419076923077" type="line"/>
    </contour>
    <contour>
      <point x="385.5827076923077" y="-8.0" type="curve" smooth="yes"/>
      <point x="583.5952615384616" y="-4.0"/>
      <point x="724.4568" y="114.84898461538461"/>
      <point x="729.4568" y="372.6459076923077" type="curve" smooth="yes"/>
      <point x="733.8108923076924" y="605.4153846153846"/>
      <point x="605.5952615384616" y="754.8750153846154"/>
      <point x="400.01347692307695" y="751.0" type="curve" smooth="yes"/>
      <point x="200.4172923076923" y="747.1249846153846"/>
      <point x="51.6464" y="633.5817846153847"/>
      <point x="46.6464" y="375.7081846153846" type="curve" smooth="yes"/>
      <point x="42.21563076923077" y="144.21704615384616"/>
      <point x="171.0004923076923" y="-12.0"/>
    </contour>
    <contour>
      <point x="388.65895384615385" y="108.05064615384617" type="curve" smooth="yes"/>
      <point x="267.69655384615385" y="108.05064615384616"/>
      <point x="207.1524307692308" y="224.01255384615385"/>
      <point x="207.1524307692308" y="370.0" type="curve" smooth="yes"/>
      <point x="207.1524307692308" y="560.4814153846154"/>
      <point x="293.1905230769231" y="632.8736"/>
      <point x="396.5827076923077" y="632.8736" type="curve" smooth="yes"/>
      <point x="512.5451076923076" y="632.8736"/>
      <point x="568.8740923076923" y="523.1264"/>
      <point x="568.8740923076923" y="377.5692307692308" type="curve" smooth="yes"/>
      <point x="568.8740923076923" y="192.01206153846155"/>
      <point x="499.32947692307687" y="108.05064615384617"/>
    </contour>
  </outline>
</glyph>
